SplineFontDB: 3.2
FontName: NerdFontCloud
FullName: Nerd Font File Cloud Services
FamilyName: Nerd Font Cloud
Weight: Regular
Copyright: copyright missing
Version: 000.000
ItalicAngle: 0
UnderlinePosition: -150
UnderlineWidth: 50
Ascent: 800
Descent: 200
InvalidEm: 0
sfntRevision: 0x00000000
LayerCount: 2
Layer: 0 0 "Back" 1
Layer: 1 0 "Fore" 0
XUID: [1021 382 560324961 2867807]
StyleMap: 0x0040
FSType: 8
OS2Version: 3
OS2_WeightWidthSlopeOnly: 0
OS2_UseTypoMetrics: 0
CreationTime: 1522789984
ModificationTime: 1614547576
PfmFamily: 81
TTFWeight: 400
TTFWidth: 5
LineGap: 0
VLineGap: 0
Panose: 0 0 0 0 0 0 0 0 0 0
OS2TypoAscent: 960
OS2TypoAOffset: 0
OS2TypoDescent: -64
OS2TypoDOffset: 0
OS2TypoLinegap: 64
OS2WinAscent: 960
OS2WinAOffset: 0
OS2WinDescent: 64
OS2WinDOffset: 0
HheadAscent: 960
HheadAOffset: 0
HheadDescent: -64
HheadDOffset: 0
OS2SubXSize: 650
OS2SubYSize: 600
OS2SubXOff: 0
OS2SubYOff: 75
OS2SupXSize: 650
OS2SupYSize: 600
OS2SupXOff: 0
OS2SupYOff: 350
OS2StrikeYSize: 50
OS2StrikeYPos: 220
OS2Vendor: '    '
OS2CodePages: 00000001.00000000
OS2UnicodeRanges: 00000001.10000000.00000000.00000000
DEI: 91125
LangName: 1033 "" "" "" "0.000;    ;NerdFontCloudServices-R" "" "Version 0.000;PS 000.000;hotconv 1.0.88;makeotf.lib2.5.64775"
Encoding: UnicodeBmp
UnicodeInterp: none
NameList: AGL For New Fonts
DisplaySize: -48
AntiAlias: 1
FitToEm: 0
WinInfo: 59356 38 14
BeginPrivate: 7
BlueScale 5 0.037
BlueShift 2 20
BlueFuzz 1 0
StdHW 5 [182]
StdVW 4 [49]
StemSnapH 11 [48 62 182]
StemSnapV 4 [49]
EndPrivate
BeginChars: 65538 82

StartChar: gcp
Encoding: 59648 59648 4
Width: 1166
Flags: MW
HStem: 1.58594 173.164<332.629 582.123> 629.25 172.856<575.998 575.998>
LayerCount: 2
Fore
SplineSet
590.915039062 802 m 0
 685.984375 799.822265625 773.016601562 763.426757812 839.540039062 704.75 c 1
 839.290039062 702.666992188 l 1
 841.081054688 704.458984375 l 1
 897.07421875 654.748046875 938.459960938 589.137695312 958.623046875 514.791992188 c 1
 1189.49804688 358.75 1077.45605469 -2 798.831054688 0.208984375 c 2
 582.498046875 0.208984375 l 1
 581.248046875 1.458984375 l 1
 365.706054688 1.458984375 l 2
 365.282226562 1.45703125 364.650390625 1.5859375 364.2265625 1.5859375 c 0
 301.03125 1.5859375 242.701171875 22.576171875 195.831054688 57.958984375 c 1
 196.123046875 59.208984375 l 1
 195.873046875 58.9169921875 l 1
 42.748046875 176.875 44.7060546875 408.5 206.165039062 514.791992188 c 1
 203.873046875 514.25 208.373046875 515.625 206.165039062 514.791992188 c 1
 251.077148438 680.198242188 402.1953125 802.106445312 581.73828125 802.106445312 c 0
 584.805664062 802.106445312 587.864257812 802.071289062 590.915039062 802 c 0
575.998046875 629.25 m 1
 576.081054688 629.208984375 l 1
 515.595703125 627.30859375 461.254882812 600.58203125 423.165039062 558.791992188 c 0
 422.581054688 558.916992188 421.665039062 558.25 420.915039062 557.833984375 c 1
 489.395507812 544.44921875 549.111328125 506.393554688 590.040039062 453.041992188 c 1
 464.498046875 327.541992188 l 1
 447.504882812 365.0703125 409.680664062 391.171875 365.834960938 391.171875 c 0
 306.11328125 391.171875 257.626953125 342.684570312 257.626953125 282.962890625 c 0
 257.626953125 239.1171875 283.76171875 201.326171875 321.290039062 184.333984375 c 1
 321.248046875 184.333984375 l 1
 334.78515625 178.212890625 349.895507812 174.75 365.706054688 174.75 c 2
 582.123046875 174.75 l 1
 582.123046875 173.083984375 l 1
 582.456054688 173.458984375 l 1
 798.831054688 173.458984375 l 2
 945.915039062 170.583984375 945.915039062 392.75 798.831054688 389.833984375 c 1
 798.831054688 411.416992188 l 2
 798.856445312 412.779296875 799.000976562 414.009765625 799.000976562 415.37890625 c 0
 799.000976562 482.03515625 768.75390625 541.682617188 721.248046875 581.333984375 c 0
 680.915039062 613.916992188 627.831054688 630.916992188 575.998046875 629.25 c 1
EndSplineSet
Validated: 37
EndChar

StartChar: aws
Encoding: 59649 59649 5
Width: 1080
Flags: HMW
HStem: 147.625 71.833 434.333 43.542 577 39.583 678.458 66.4902 700.708 44.917
VStem: 101.747 58.208 286.955 54.542 803.122 55.25 963.839 55.1582
LayerCount: 2
Fore
SplineSet
321.799804688 183.916015625 m 5xf780
 321.799804688 171.583007812 323.1328125 161.625 325.465820312 154.333007812 c 4
 328.1328125 147 331.465820312 139 336.1328125 130.333007812 c 4
 337.799804688 127.708007812 338.465820312 125.041015625 338.465820312 122.708007812 c 4
 338.465820312 119.375 336.465820312 116.041015625 332.1328125 112.708007812 c 6
 311.174804688 98.75 l 6
 308.72265625 96.982421875 305.725585938 95.8837890625 302.5078125 95.75 c 4
 299.174804688 95.75 295.840820312 97.416015625 292.549804688 100.416015625 c 4
 288.063476562 105.2421875 284.09375 110.423828125 280.590820312 116.041015625 c 4
 276.884765625 122.400390625 273.419921875 128.977539062 270.2578125 135.666015625 c 5
 244.340820312 105.083007812 211.715820312 89.791015625 172.465820312 89.791015625 c 4
 144.549804688 89.791015625 122.2578125 97.75 105.965820312 113.708007812 c 4
 89.6748046875 129.708007812 81.3828125 150.958007812 81.3828125 177.583007812 c 4
 81.3828125 205.833007812 91.3408203125 228.833007812 111.6328125 246.083007812 c 4
 131.924804688 263.375 158.840820312 272.041015625 193.090820312 272.041015625 c 4
 204.424804688 272.041015625 216.049804688 271.041015625 228.340820312 269.375 c 4
 240.674804688 267.708007812 253.340820312 265.041015625 266.590820312 262.041015625 c 5
 266.590820312 286.333007812 l 6
 266.590820312 311.625 261.299804688 329.25 250.965820312 339.541015625 c 4
 240.340820312 349.875 222.3828125 354.833007812 196.799804688 354.833007812 c 4
 185.1328125 354.833007812 173.1328125 353.541015625 160.840820312 350.541015625 c 4
 148.549804688 347.541015625 136.549804688 343.875 124.924804688 339.208007812 c 4
 121.184570312 337.533203125 117.233398438 336.0625 113.2578125 334.875 c 4
 111.583007812 334.334960938 109.797851562 334.001953125 107.965820312 333.916015625 c 4
 103.299804688 333.916015625 100.965820312 337.25 100.965820312 344.208007812 c 6
 100.965820312 360.5 l 6
 100.965820312 365.833007812 101.6328125 369.833007812 103.299804688 372.166015625 c 4
 105.8046875 375.177734375 108.982421875 377.561523438 112.6328125 379.125 c 4
 124.2578125 385.125 138.215820312 390.125 154.5078125 394.125 c 4
 170.52734375 398.225585938 187.3125 400.40625 204.603515625 400.40625 c 4
 205.25 400.40625 205.779296875 400.422851562 206.424804688 400.416015625 c 4
 246.0078125 400.416015625 274.924804688 391.416015625 293.549804688 373.458007812 c 4
 311.840820312 355.541015625 321.1328125 328.25 321.1328125 291.666015625 c 6
 321.1328125 183.916015625 l 5
 321.799804688 183.916015625 l 5xf780
186.799804688 133.333007812 m 4
 197.7578125 133.333007812 209.049804688 135.333007812 221.049804688 139.333007812 c 4
 233.0078125 143.333007812 243.674804688 150.625 252.6328125 160.583007812 c 4
 257.965820312 166.916015625 261.965820312 173.916015625 263.965820312 181.916015625 c 4
 265.924804688 189.875 267.299804688 199.541015625 267.299804688 210.833007812 c 6
 267.299804688 224.791015625 l 5
 257.340820312 227.21875 247.020507812 229.138671875 236.674804688 230.458007812 c 4
 226.35546875 231.76953125 216.09375 232.442382812 205.424804688 232.458007812 c 4
 183.1328125 232.458007812 166.840820312 228.125 155.840820312 219.125 c 4
 144.8828125 210.166015625 139.590820312 197.541015625 139.590820312 180.916015625 c 4
 139.590820312 165.291015625 143.549804688 153.625 151.8828125 145.666015625 c 4
 159.840820312 137.333007812 171.465820312 133.333007812 186.799804688 133.333007812 c 4
453.8828125 97.416015625 m 6
 447.8828125 97.416015625 443.8828125 98.416015625 441.215820312 100.75 c 4
 438.549804688 102.75 436.215820312 107.416015625 434.215820312 113.708007812 c 6
 356.090820312 370.833007812 l 6
 354.604492188 375.05078125 353.5703125 379.568359375 353.090820312 384.166015625 c 4
 353.090820312 389.5 355.7578125 392.5 361.049804688 392.5 c 6
 393.674804688 392.5 l 6
 399.965820312 392.5 404.299804688 391.458007812 406.590820312 389.166015625 c 4
 409.299804688 387.166015625 411.299804688 382.5 413.2578125 376.166015625 c 6
 469.174804688 156 l 5
 521.049804688 376.166015625 l 6
 522.715820312 382.833007812 524.715820312 387.166015625 527.340820312 389.166015625 c 4
 530.81640625 391.297851562 534.903320312 392.526367188 539.275390625 392.526367188 c 4
 539.743164062 392.526367188 540.213867188 392.52734375 540.674804688 392.5 c 6
 567.2578125 392.5 l 6
 573.590820312 392.5 577.924804688 391.458007812 580.590820312 389.166015625 c 4
 583.215820312 387.166015625 585.590820312 382.5 586.8828125 376.166015625 c 6
 639.424804688 153.333007812 l 5
 696.965820312 376.166015625 l 6
 698.965820312 382.833007812 701.299804688 387.166015625 703.6328125 389.166015625 c 4
 706.985351562 391.294921875 710.961914062 392.528320312 715.223632812 392.528320312 c 4
 715.680664062 392.528320312 716.140625 392.52734375 716.590820312 392.5 c 6
 747.549804688 392.5 l 6
 752.840820312 392.5 755.8828125 389.791015625 755.8828125 384.166015625 c 4
 755.8828125 382.5 755.5078125 380.833007812 755.174804688 378.833007812 c 4
 754.650390625 375.978515625 753.852539062 373.150390625 752.840820312 370.5 c 6
 672.715820312 113.416015625 l 6
 670.715820312 106.75 668.3828125 102.458007812 665.715820312 100.458007812 c 4
 662.41015625 98.3369140625 658.479492188 97.1064453125 654.263671875 97.1064453125 c 4
 653.872070312 97.1064453125 653.477539062 97.103515625 653.090820312 97.125 c 6
 624.465820312 97.125 l 6
 618.174804688 97.125 613.840820312 98.125 611.1328125 100.458007812 c 4
 608.5078125 102.791015625 606.174804688 107.125 604.8828125 113.791015625 c 6
 553.299804688 328.291015625 l 5
 502.049804688 114.125 l 6
 500.3828125 107.458007812 498.424804688 103.125 495.799804688 100.791015625 c 4
 493.090820312 98.4580078125 488.424804688 97.4580078125 482.465820312 97.4580078125 c 6
 453.8828125 97.416015625 l 6
881.215820312 88.4580078125 m 4
 863.924804688 88.4580078125 846.6328125 90.4580078125 830.0078125 94.416015625 c 4
 813.3828125 98.416015625 800.424804688 102.75 791.7578125 107.75 c 4
 786.424804688 110.708007812 782.799804688 114.041015625 781.465820312 117.041015625 c 4
 780.206054688 119.893554688 779.486328125 123.063476562 779.465820312 126.375 c 6
 779.465820312 143.333007812 l 6
 779.465820312 150.291015625 782.1328125 153.625 787.090820312 153.625 c 4
 789.090820312 153.625 791.090820312 153.291015625 793.090820312 152.625 c 4
 795.090820312 151.958007812 798.090820312 150.625 801.424804688 149.291015625 c 4
 812.715820312 144.291015625 825.0078125 140.333007812 838.0078125 137.666015625 c 4
 851.299804688 135 864.2578125 133.666015625 877.590820312 133.666015625 c 4
 898.5078125 133.666015625 914.840820312 137.333007812 926.1328125 144.666015625 c 4
 936.522460938 150.943359375 943.474609375 162.345703125 943.474609375 175.359375 c 4
 943.474609375 175.669921875 943.432617188 175.94140625 943.424804688 176.25 c 4
 943.43359375 176.560546875 943.4375 176.873046875 943.4375 177.186523438 c 4
 943.4375 185.856445312 940.0234375 193.727539062 934.465820312 199.541015625 c 4
 928.465820312 205.833007812 917.1328125 211.5 900.840820312 216.833007812 c 6
 852.6328125 231.833007812 l 6
 828.340820312 239.458007812 810.3828125 250.75 799.424804688 265.708007812 c 4
 789.072265625 279.033203125 782.842773438 295.813476562 782.7578125 313.958007812 c 4
 782.7578125 327.916015625 785.799804688 340.208007812 791.7578125 350.875 c 4
 797.7578125 361.5 805.715820312 370.833007812 815.715820312 378.125 c 4
 825.715820312 385.791015625 836.965820312 391.458007812 850.299804688 395.416015625 c 4
 863.6328125 399.416015625 877.590820312 401.083007812 892.215820312 401.083007812 c 4
 899.5078125 401.083007812 907.174804688 400.75 914.5078125 399.75 c 4
 922.1328125 398.75 929.090820312 397.416015625 936.090820312 396.083007812 c 4
 942.7578125 394.416015625 949.090820312 392.75 955.049804688 390.791015625 c 4
 961.049804688 388.791015625 965.715820312 386.791015625 969.049804688 384.791015625 c 4
 973.005859375 382.799804688 976.3984375 379.961914062 979.049804688 376.458007812 c 4
 980.931640625 373.623046875 982.028320312 370.22265625 982.028320312 366.567382812 c 4
 982.028320312 366.2109375 982.028320312 365.8515625 982.0078125 365.5 c 6
 982.0078125 349.875 l 6
 982.0078125 342.875 979.340820312 339.208007812 974.340820312 339.208007812 c 4
 969.837890625 339.724609375 965.524414062 341.129882812 961.715820312 343.208007812 c 4
 942.940429688 351.501953125 922.177734375 356.109375 900.346679688 356.109375 c 4
 899.549804688 356.109375 898.676757812 356.178710938 897.8828125 356.166015625 c 4xef80
 878.924804688 356.166015625 863.924804688 353.208007812 853.6328125 346.875 c 4
 843.299804688 340.541015625 838.0078125 330.916015625 838.0078125 317.291015625 c 4
 838.0078125 307.958007812 841.340820312 299.958007812 848.0078125 293.666015625 c 4
 854.6328125 287.333007812 866.924804688 281 884.549804688 275.333007812 c 6
 931.799804688 260.416015625 l 6
 955.715820312 252.75 973.049804688 242.083007812 983.340820312 228.458007812 c 4
 993.6328125 214.833007812 998.6328125 199.208007812 998.6328125 181.916015625 c 4
 998.6328125 167.625 995.6328125 154.625 990.0078125 143.333007812 c 4
 984.0078125 132 976.0078125 122.041015625 965.715820312 114.041015625 c 4
 955.3828125 105.708007812 943.090820312 99.75 928.799804688 95.416015625 c 4
 913.799804688 90.791015625 898.215820312 88.4580078125 881.215820312 88.4580078125 c 4
944.090820312 -73.208984375 m 4
 834.674804688 -154.041992188 675.674804688 -196.916992188 539.0078125 -196.916992188 c 4
 347.424804688 -196.916992188 174.840820312 -126.083984375 44.4248046875 -8.333984375 c 4
 34.1328125 0.9580078125 43.4248046875 13.625 55.7578125 6.291015625 c 4
 196.7578125 -75.5 370.715820312 -125.083984375 550.6328125 -125.083984375 c 4
 672.049804688 -125.083984375 805.3828125 -99.7919921875 928.1328125 -47.9169921875 c 4
 946.424804688 -39.583984375 962.049804688 -59.875 944.090820312 -73.208984375 c 4
989.674804688 -21.2919921875 m 4
 975.674804688 -3.375 897.174804688 -12.6669921875 861.590820312 -17 c 4
 850.965820312 -18.333984375 849.299804688 -9 858.965820312 -2 c 4
 921.465820312 41.875 1024.2578125 29.25 1036.21582031 14.625 c 4
 1048.17480469 -0.375 1032.8828125 -103.125 974.340820312 -152.333984375 c 4
 965.3828125 -160 956.715820312 -156 960.715820312 -146.041992188 c 4
 974.049804688 -113.125 1003.6328125 -38.958984375 989.674804688 -21.2919921875 c 4
EndSplineSet
Validated: 33
EndChar

StartChar: openstack
Encoding: 59650 59650 6
Width: 1032
Flags: MW
HStem: 10.5537 183.13<334.256 697.473 697.473 708.718 334.256 845.855 185.738 697.473 334.256 845.994> 10.5537 252.859<738.236 845.855 845.855 845.994> 315.803 183.197<110.398 293.561 110.398 293.561 738.236 921.365> 621.153 183.13<334.393 697.607 334.393 334.393>
VStem: 110.398 183.162<85.9287 499 263.446 499 315.803 499 315.803 499> 738.236 183.129<263.413 499 315.803 499 315.803 499>
LayerCount: 2
Fore
SplineSet
738.236328125 499 m 1x3c
 921.365234375 499 l 1
 921.365234375 315.802734375 l 1
 738.236328125 315.802734375 l 1
 738.236328125 499 l 1x3c
110.3984375 499 m 1
 293.560546875 499 l 1
 293.560546875 315.802734375 l 1
 110.3984375 315.802734375 l 1
 110.3984375 499 l 1
733 220 m 2
 738.236328125 263.413085938 l 1
 921.6015625 263.413085938 l 1
 921.6015625 85.89453125 l 2
 921.453125 44.2900390625 887.6328125 10.5537109375 845.994140625 10.5537109375 c 2
 845.85546875 10.5537109375 l 1
 185.73828125 10.5537109375 l 2x7c
 144.205078125 10.68359375 110.509765625 44.390625 110.3984375 85.9287109375 c 2
 110.3984375 263.446289062 l 1
 293.52734375 263.446289062 l 1
 293.52734375 234.446289062 l 2
 293.544921875 211.96875 311.783203125 193.720703125 334.255859375 193.68359375 c 2
 697.47265625 193.68359375 l 2xbc
 719.962890625 193.68359375 732.98046875 197.510742188 733 220 c 2
845.990234375 804.283203125 m 2
 887.62890625 804.283203125 921.453125 770.546875 921.6015625 728.942382812 c 2
 921.6015625 551.389648438 l 1
 738.337890625 551.389648438 l 1
 738.337890625 580.390625 l 2
 738.337890625 602.876953125 720.08984375 621.134765625 697.607421875 621.153320312 c 2
 334.392578125 621.153320312 l 2
 311.91015625 621.134765625 293.662109375 602.876953125 293.662109375 580.390625 c 2
 293.662109375 551.389648438 l 1
 110.5 551.389648438 l 1
 110.5 728.908203125 l 2
 110.611328125 770.45703125 144.326171875 804.171875 185.873046875 804.283203125 c 2
 845.990234375 804.283203125 l 2
EndSplineSet
Validated: 1
EndChar

StartChar: azure
Encoding: 59651 59651 7
Width: 1112
Flags: MW
HStem: 91 83.417
LayerCount: 2
Fore
SplineSet
284.458007812 12.7080078125 m 1
 756.958007812 96.125 l 1
 513.791992188 385.208007812 l 1
 640.375 733 l 1
 1056 12.7080078125 l 1
 284.458007812 12.7080078125 l 1
607.25 787.708007812 m 1
 285.375 97.416015625 l 1
 285.375 98 l 1
 56 98 l 1
 310.375 538.666015625 l 1
 607.25 787.708007812 l 1
EndSplineSet
Validated: 1
EndChar

StartChar: ovh
Encoding: 59652 59652 8
Width: 1098
Flags: W
LayerCount: 2
Fore
SplineSet
877.375 389 m 1
 984.166992188 574.416992188 l 1
 1025.41699219 501.75 1049 417.791992188 1049 328.166992188 c 0
 1049 208.166992188 1006.625 98.0419921875 936.083007812 11.75 c 1
 660.25 11.75 l 1
 745.25 159.291992188 l 1
 632.916992188 159.291992188 l 1
 765.25 389 l 1
 877.375 389 l 1
780.708007812 607.458007812 m 1
 437.875 12.125 l 1
 438 11.75 l 1
 161.875 11.75 l 1
 91.25 98.0830078125 49 208.166992188 49 328.166992188 c 0
 49 417.833007812 72.75 501.916992188 114.041992188 574.75 c 1
 292.958007812 263.791992188 l 1
 490.666992188 607.458007812 l 1
 780.708007812 607.458007812 l 1
EndSplineSet
Validated: 1
EndChar

StartChar: linode
Encoding: 59653 59653 9
Width: 1000
Flags: MW
VStem: 501.096 9.66602<720.699 727.699> 509.43 10.332<518.625 523.633> 515.096 11.3672<387.6 392.933> 521.762 11.668<222.199 222.199> 526.43 7 575.762 10.3672<158.199 265.233 265.233 265.233> 623.129 10.0332<401.6 440.933 394.566 449.967 394.566 449.967>
LayerCount: 2
Fore
SplineSet
833.529296875 444.932617188 m 2x26
 819.529296875 331.899414062 l 2
 819.45703125 330.563476562 818.826171875 329.373046875 817.861328125 328.56640625 c 2
 732.162109375 261.866210938 l 2
 731.376953125 261.266601562 730.388671875 260.91015625 729.32421875 260.91015625 c 0
 728.26171875 260.91015625 727.28125 261.266601562 726.49609375 261.866210938 c 2
 693.162109375 284.19921875 l 1
 690.162109375 231.866210938 l 2
 689.826171875 230.467773438 689.125 229.205078125 688.162109375 228.19921875 c 2
 583.4296875 144.5 l 2
 582.6171875 143.819335938 581.56640625 143.409179688 580.42578125 143.409179688 c 0
 579.28515625 143.409179688 578.240234375 143.819335938 577.4296875 144.5 c 2
 533.4296875 181.166015625 l 1
 535.76171875 110.5 l 2
 535.7109375 108.881835938 534.943359375 107.444335938 533.76171875 106.5 c 2
 403.0625 2.466796875 l 2
 402.21484375 1.6015625 401.033203125 1.064453125 399.728515625 1.064453125 c 0
 398.423828125 1.064453125 397.2421875 1.6015625 396.39453125 2.466796875 c 2
 296.328125 109.833007812 l 2
 296.205078125 110.19921875 296.138671875 110.592773438 296.138671875 111 c 0
 296.138671875 111.408203125 296.205078125 111.799804688 296.328125 112.166015625 c 2
 271.328125 233.56640625 l 2
 271.23046875 233.958984375 271.171875 234.364257812 271.171875 234.787109375 c 0
 271.171875 236.491210938 272.025390625 237.997070312 273.328125 238.899414062 c 2
 299.99609375 255.233398438 l 1
 258.662109375 293.233398438 l 2
 258.587890625 293.612304688 258.546875 293.994140625 258.546875 294.39453125 c 0
 258.546875 294.795898438 258.587890625 295.1875 258.662109375 295.56640625 c 2
 225.328125 452.299804688 l 2
 225.267578125 452.623046875 225.228515625 452.950195312 225.228515625 453.291015625 c 0
 225.228515625 455.3046875 226.34765625 457.05859375 227.99609375 457.966796875 c 2
 269.99609375 477.966796875 l 1
 208.99609375 523.966796875 l 2
 208.916015625 524.400390625 208.873046875 524.8359375 208.873046875 525.29296875 c 0
 208.873046875 525.750976562 208.916015625 526.198242188 208.99609375 526.6328125 c 2
 166.662109375 734.399414062 l 2
 166.505859375 734.900390625 166.416015625 735.428710938 166.416015625 735.98046875 c 0
 166.416015625 738.052734375 167.599609375 739.850585938 169.328125 740.733398438 c 2
 363.328125 801.06640625 l 1
 366.662109375 801.06640625 l 1
 508.095703125 732.033203125 l 2
 509.6171875 731.158203125 510.66015625 729.553710938 510.76171875 727.69921875 c 2x96
 519.76171875 518.6328125 l 2
 519.76171875 518.6171875 519.767578125 518.604492188 519.767578125 518.588867188 c 0
 519.767578125 516.614257812 518.69140625 514.888671875 517.095703125 513.966796875 c 2
 466.76171875 487.932617188 l 1
 521.76171875 451.599609375 l 2x56
 522.98828125 450.630859375 523.845703125 449.213867188 524.095703125 447.599609375 c 2
 526.462890625 392.932617188 l 1
 580.462890625 426.266601562 l 2
 581.18359375 426.724609375 582.048828125 426.989257812 582.966796875 426.989257812 c 0
 583.884765625 426.989257812 584.740234375 426.724609375 585.462890625 426.266601562 c 2
 623.12890625 401.599609375 l 1
 623.12890625 449.966796875 l 2
 623.208984375 451.747070312 624.107421875 453.31640625 625.462890625 454.299804688 c 2
 717.828125 510.6328125 l 2
 718.513671875 511.028320312 719.3203125 511.254882812 720.16796875 511.254882812 c 0
 721.015625 511.254882812 721.810546875 511.028320312 722.49609375 510.6328125 c 2
 831.1953125 449.932617188 l 2
 832.630859375 449.053710938 833.583984375 447.479492188 833.583984375 445.674804688 c 0
 833.583984375 445.422851562 833.564453125 445.174804688 833.529296875 444.932617188 c 2x26
512.76171875 439.932617188 m 1
 356.0625 350.266601562 l 1
 378.0625 199.19921875 l 1
 519.095703125 294.899414062 l 1
 515.095703125 387.599609375 l 1x26
 512.76171875 439.932617188 l 1
501.095703125 720.69921875 m 1x86
 312.6953125 648 l 1
 342.6953125 437.299804688 l 1
 509.4296875 523.6328125 l 1x46
 501.095703125 720.69921875 l 1x86
217.99609375 530.299804688 m 1
 280.6953125 481.6328125 l 1
 333.361328125 441.6328125 l 1
 302.328125 648.399414062 l 1
 177.662109375 725.733398438 l 1
 217.99609375 530.299804688 l 1
266.662109375 299.233398438 m 1
 310.6953125 257.866210938 l 1
 366.6953125 203.866210938 l 1
 346.6953125 349.932617188 l 1
 237.328125 441.266601562 l 1
 266.662109375 299.233398438 l 1
304.662109375 115.5 m 1
 395.0625 19.7998046875 l 1
 379.39453125 125.19921875 l 1
 282.99609375 220.19921875 l 1
 304.662109375 115.5 l 1
404.728515625 15.5 m 1
 526.4296875 112.866210938 l 1x0e
 521.76171875 222.19921875 l 1x16
 388.39453125 126.5 l 1
 404.728515625 15.5 l 1
533.4296875 194.166015625 m 1x16
 575.76171875 158.19921875 l 1
 575.76171875 265.233398438 l 1
 529.4296875 300.56640625 l 1
 529.4296875 291.866210938 l 2
 529.431640625 291.809570312 529.435546875 291.7578125 529.435546875 291.701171875 c 0
 529.435546875 290.11328125 528.642578125 288.708984375 527.4296875 287.866210938 c 2
 494.095703125 264.533203125 l 1
 531.76171875 233.866210938 l 2
 532.744140625 232.939453125 533.37109375 231.640625 533.4296875 230.19921875 c 2x0e
 533.4296875 194.166015625 l 1x16
681.49609375 234.19921875 m 1
 688.462890625 338.899414062 l 1
 586.12890625 265.533203125 l 1
 586.12890625 158.19921875 l 1
 681.49609375 234.19921875 l 1
724.49609375 274.533203125 m 1
 733.162109375 377.932617188 l 1
 633.162109375 440.932617188 l 1
 633.162109375 394.56640625 l 1
 697.49609375 352.233398438 l 2
 697.564453125 351.965820312 697.6015625 351.689453125 697.6015625 351.401367188 c 0
 697.6015625 351.112304688 697.564453125 350.833007812 697.49609375 350.56640625 c 0
 697.5859375 350.248046875 697.634765625 349.9140625 697.634765625 349.567382812 c 0
 697.634765625 349.219726562 697.5859375 348.884765625 697.49609375 348.56640625 c 2
 694.49609375 295.56640625 l 1
 724.49609375 274.533203125 l 1
809.49609375 336.56640625 m 1
 823.1953125 434.266601562 l 1
 742.162109375 378.233398438 l 1
 733.49609375 276.233398438 l 1
 809.49609375 336.56640625 l 1
EndSplineSet
Validated: 1
EndChar

StartChar: digitalocean
Encoding: 59654 59654 10
Width: 1000
Flags: MW
HStem: -30.9277 164.723<498.098 498.098 498.098 636.825> 7.11035 126.225<208.177 334.331 102.706 208.177> 133.335 105.471<102.706 208.142 102.706 208.142 102.706 334.331> 133.335 163.731<102.706 498.098 208.177 498.098 334.331 498.098 334.367 497.638 334.367 498.098>
VStem: 72.7793 164.263<394.355 481.534 394.355 511.62> 102.706 105.436<133.335 238.806> 208.177 126.154<7.11035 133.335 7.11035 133.335> 334.367 163.73<133.795 297.066 133.795 297.066 133.795 297.066>
LayerCount: 2
Fore
SplineSet
499.018554688 819.072265625 m 0x89
 545.666015625 818.802734375 590.688476562 811.374023438 633 798 c 0
 760.145507812 758.013671875 861.791992188 656.864257812 901.28125 529.71875 c 0
 992.301757812 237.814453125 776.012695312 -30.927734375 497.637695312 -30.927734375 c 1x89
 497.637695312 133.334960938 l 1
 334.3671875 133.334960938 l 1
 334.3671875 297.06640625 l 1
 498.09765625 297.06640625 l 1x19
 498.09765625 133.794921875 l 1
 672.206054688 134.114257812 807.25 306.876953125 740.34765625 490.228515625 c 0
 715.508789062 558.350585938 661.588867188 612.28125 593.475585938 637.13671875 c 0
 409.946289062 703.579101562 237.041992188 568.711914062 237.041992188 394.35546875 c 1
 72.779296875 394.35546875 l 1
 72.779296875 628.884765625 264.135742188 819.78125 499.018554688 819.072265625 c 0x89
334.331054688 133.334960938 m 1x43
 334.331054688 7.1103515625 l 1
 208.176757812 7.1103515625 l 1
 208.176757812 133.334960938 l 1
 334.331054688 133.334960938 l 1x43
208.141601562 133.334960938 m 1x25
 102.706054688 133.334960938 l 1
 102.706054688 238.805664062 l 1
 208.141601562 238.805664062 l 1
 208.141601562 133.334960938 l 1x25
EndSplineSet
Validated: 33
EndChar

StartChar: k8s
Encoding: 59655 59655 11
Width: 1000
Flags: MW
HStem: 7.86426 157.963<487.006 654.37> 351.23 58.334<499.948 499.948> 451.719 101.545<457.535 479.148>
LayerCount: 2
Fore
SplineSet
440.115234375 317.564453125 m 1
 440.348632812 317.23046875 l 1
 407.047851562 236.796875 l 1
 375.309570312 257.116210938 350.890625 287.379882812 337.881835938 323.364257812 c 1
 423.815429688 337.930664062 l 1
 423.948242188 337.763671875 l 2
 424.8125 337.922851562 425.703125 338.005859375 426.612304688 338.005859375 c 0
 434.70703125 338.005859375 441.279296875 331.43359375 441.279296875 323.338867188 c 0
 441.279296875 321.29296875 440.83984375 319.333984375 440.08203125 317.564453125 c 1
 440.115234375 317.564453125 l 1
412.348632812 388.530273438 m 1
 412.28125 388.23046875 l 1
 328.481445312 364.064453125 l 1
 327.796875 370.283203125 327.560546875 376.608398438 327.560546875 383.008789062 c 0
 327.560546875 415.822265625 336.798828125 446.494140625 352.815429688 472.564453125 c 1
 418.181640625 414.09765625 l 1
 418.115234375 413.73046875 l 2
 421.19921875 411.041015625 423.137695312 407.087890625 423.137695312 402.678710938 c 0
 423.137695312 395.92578125 418.564453125 390.232421875 412.348632812 388.530273438 c 1
450.514648438 454.530273438 m 2
 450.381835938 454.430664062 l 1
 378.815429688 505.197265625 l 1
 405.275390625 531.225585938 440.346679688 548.728515625 479.1484375 553.263671875 c 1
 474.1484375 465.930664062 l 1
 473.815429688 465.763671875 l 1
 473.48828125 457.958007812 467.034179688 451.71875 459.1484375 451.71875 c 0
 455.921875 451.71875 452.9375 452.762695312 450.514648438 454.530273438 c 2
475.848632812 362.864257812 m 1
 469.881835938 388.796875 l 1
 486.547851562 409.564453125 l 1
 513.348632812 409.564453125 l 1
 530.014648438 388.796875 l 1
 524.014648438 362.796875 l 1
 499.948242188 351.23046875 l 1
 475.848632812 362.864257812 l 1
525.848632812 466.030273438 m 1
 525.78125 466.064453125 l 1
 520.848632812 553.23046875 l 1
 559.373046875 548.458007812 594.198242188 531.000976562 620.58203125 505.1640625 c 1
 549.448242188 454.73046875 l 1
 549.181640625 454.831054688 l 2
 546.752929688 453.047851562 543.743164062 451.99609375 540.501953125 451.99609375 c 0
 532.618164062 451.99609375 526.1796875 458.228515625 525.848632812 466.030273438 c 1
888.381835938 267.030273438 m 2
 695.948242188 27.6640625 l 2
 686.16796875 15.5673828125 671.208984375 7.8271484375 654.45703125 7.8271484375 c 0
 654.4140625 7.8271484375 654.391601562 7.8642578125 654.348632812 7.8642578125 c 2
 345.6484375 7.763671875 l 1
 345.607421875 7.763671875 l 2
 328.82421875 7.763671875 313.861328125 15.49609375 304.08203125 27.630859375 c 2
 111.547851562 266.963867188 l 2
 104.333007812 275.989257812 100.016601562 287.432617188 100.016601562 299.875 c 0
 100.016601562 303.913085938 100.454101562 307.8515625 101.315429688 311.630859375 c 2
 169.981445312 610.130859375 l 2
 173.58203125 625.796875 184.1484375 638.930664062 198.748046875 645.897460938 c 2
 476.815429688 778.796875 l 2
 483.79296875 782.1328125 491.60546875 784 499.849609375 784 c 0
 508.09375 784 516.002929688 782.1328125 522.981445312 778.796875 c 2
 801.1484375 645.963867188 l 2
 815.748046875 638.997070312 826.315429688 625.831054688 829.915039062 610.197265625 c 2
 898.6484375 311.697265625 l 2
 902.248046875 296.030273438 898.481445312 279.59765625 888.381835938 267.030273438 c 2
778.748046875 335.59765625 m 0
 777.348632812 335.930664062 775.315429688 336.463867188 773.915039062 336.73046875 c 0
 768.115234375 337.831054688 763.415039062 337.564453125 757.948242188 337.997070312 c 0
 746.28125 339.23046875 736.681640625 340.23046875 728.115234375 342.930664062 c 0
 724.615234375 344.263671875 722.115234375 348.430664062 720.915039062 350.130859375 c 2
 714.21484375 352.09765625 l 1
 715.547851562 361.766601562 716.236328125 371.639648438 716.236328125 381.672851562 c 0
 716.236328125 398.348632812 714.315429688 414.241210938 710.71484375 429.831054688 c 0
 704.755859375 455.856445312 693.9609375 480.434570312 679.514648438 501.930664062 c 0
 681.248046875 503.497070312 684.514648438 506.364257812 685.415039062 507.23046875 c 0
 685.681640625 510.23046875 685.448242188 513.331054688 688.547851562 516.630859375 c 0
 695.115234375 522.796875 703.348632812 527.897460938 713.315429688 534.030273438 c 0
 718.047851562 536.831054688 722.415039062 538.59765625 727.1484375 542.09765625 c 0
 728.21484375 542.897460938 729.681640625 544.1640625 730.815429688 545.064453125 c 0
 738.815429688 551.430664062 740.6484375 562.397460938 734.915039062 569.59765625 c 0
 729.181640625 576.796875 718.047851562 577.463867188 710.08203125 571.09765625 c 0
 708.948242188 570.197265625 707.415039062 569.030273438 706.381835938 568.1640625 c 0
 701.915039062 564.296875 699.1484375 560.497070312 695.381835938 556.497070312 c 0
 687.181640625 548.1640625 680.381835938 541.23046875 672.948242188 536.197265625 c 0
 669.71484375 534.331054688 664.981445312 534.963867188 662.848632812 535.09765625 c 2
 656.514648438 530.59765625 l 1
 621.072265625 567.791015625 572.423828125 592.448242188 518.315429688 597.364257812 c 1
 517.915039062 604.796875 l 2
 515.748046875 606.864257812 513.1484375 608.630859375 512.481445312 613.130859375 c 0
 511.748046875 622.064453125 512.981445312 631.697265625 514.381835938 643.296875 c 0
 515.1484375 648.73046875 516.415039062 653.23046875 516.6484375 659.130859375 c 0
 516.681640625 660.463867188 516.615234375 662.430664062 516.615234375 663.864257812 c 0
 516.615234375 674.064453125 509.1484375 682.364257812 499.948242188 682.364257812 c 0
 490.78125 682.364257812 483.315429688 674.064453125 483.315429688 663.864257812 c 2
 483.348632812 663.397460938 l 2
 483.348632812 662.030273438 483.28125 660.331054688 483.348632812 659.130859375 c 0
 483.547851562 653.23046875 484.815429688 648.73046875 485.58203125 643.296875 c 0
 486.981445312 631.697265625 488.181640625 622.064453125 487.448242188 613.09765625 c 0
 486.489257812 609.731445312 484.594726562 606.76171875 482.047851562 604.497070312 c 2
 481.6484375 597.463867188 l 1
 427.125976562 593.0859375 378.140625 568.3046875 342.78125 530.697265625 c 0
 340.75390625 532.098632812 338.76953125 533.510742188 336.78125 534.963867188 c 0
 333.78125 534.564453125 330.78125 533.630859375 326.881835938 535.930664062 c 0
 319.448242188 540.930664062 312.6484375 547.864257812 304.448242188 556.197265625 c 0
 300.681640625 560.197265625 297.948242188 563.997070312 293.481445312 567.831054688 c 0
 292.481445312 568.697265625 290.915039062 569.897460938 289.78125 570.763671875 c 0
 286.591796875 573.349609375 282.556640625 574.971679688 278.181640625 575.1640625 c 0
 277.896484375 575.178710938 277.608398438 575.186523438 277.319335938 575.186523438 c 0
 272.3125 575.186523438 267.856445312 572.897460938 264.915039062 569.296875 c 0
 259.181640625 562.09765625 261.014648438 551.09765625 269.014648438 544.73046875 c 2
 269.248046875 544.564453125 l 1
 272.71484375 541.796875 l 2
 277.448242188 538.296875 281.78125 536.497070312 286.514648438 533.73046875 c 0
 296.481445312 527.564453125 304.71484375 522.463867188 311.28125 516.331054688 c 0
 313.815429688 513.59765625 314.28125 508.796875 314.615234375 506.73046875 c 2
 319.948242188 501.963867188 l 1
 297.165039062 467.801757812 283.879882812 426.774414062 283.879882812 382.66796875 c 0
 283.879882812 372.17578125 284.49609375 361.857421875 285.948242188 351.763671875 c 1
 279.014648438 349.763671875 l 2
 277.181640625 347.364257812 274.58203125 343.630859375 271.848632812 342.530273438 c 0
 263.28125 339.831054688 253.6484375 338.864257812 242.014648438 337.630859375 c 0
 236.547851562 337.1640625 231.848632812 337.430664062 226.014648438 336.331054688 c 0
 224.78125 336.09765625 223.014648438 335.6640625 221.58203125 335.331054688 c 2
 221.448242188 335.263671875 l 1
 221.21484375 335.197265625 l 2
 211.381835938 332.831054688 205.08203125 323.796875 207.115234375 314.930664062 c 0
 209.1484375 306.030273438 218.748046875 300.630859375 228.615234375 302.763671875 c 2
 228.848632812 302.796875 l 1
 229.181640625 302.897460938 l 1
 233.481445312 303.864257812 l 2
 239.1484375 305.397460938 243.28125 307.630859375 248.415039062 309.59765625 c 0
 259.415039062 313.530273438 268.547851562 316.831054688 277.415039062 318.130859375 c 0
 281.1484375 318.430664062 285.08203125 315.831054688 287.014648438 314.763671875 c 2
 294.248046875 315.997070312 l 1
 310.6796875 265.228515625 345.073242188 222.796875 390.248046875 196.130859375 c 1
 387.248046875 188.864257812 l 2
 388.348632812 186.064453125 389.547851562 182.23046875 388.71484375 179.463867188 c 0
 385.481445312 171.064453125 379.948242188 162.23046875 373.6484375 152.364257812 c 0
 370.615234375 147.831054688 367.481445312 144.296875 364.71484375 139.064453125 c 0
 364.047851562 137.831054688 363.21484375 135.897460938 362.58203125 134.59765625 c 0
 358.315429688 125.430664062 361.448242188 114.897460938 369.681640625 110.930664062 c 0
 377.948242188 106.930664062 388.21484375 111.1640625 392.681640625 120.331054688 c 1
 392.681640625 120.397460938 l 2
 393.348632812 121.697265625 394.21484375 123.397460938 394.748046875 124.630859375 c 0
 397.08203125 130.030273438 397.881835938 134.6640625 399.547851562 139.897460938 c 0
 403.948242188 150.963867188 406.381835938 162.564453125 412.448242188 169.796875 c 0
 414.115234375 171.796875 416.78125 172.530273438 419.615234375 173.296875 c 2
 423.381835938 180.130859375 l 1
 447.357421875 170.892578125 473.3984375 165.827148438 500.614257812 165.827148438 c 0
 527.436523438 165.827148438 553.326171875 170.744140625 577.014648438 179.73046875 c 1
 580.547851562 173.331054688 l 2
 583.415039062 172.397460938 586.547851562 171.930664062 589.08203125 168.1640625 c 0
 593.615234375 160.430664062 596.71484375 151.263671875 600.481445312 140.1640625 c 0
 602.1484375 134.963867188 602.948242188 130.331054688 605.315429688 124.930664062 c 0
 605.848632812 123.697265625 606.748046875 121.930664062 607.381835938 120.630859375 c 0
 611.815429688 111.430664062 622.115234375 107.23046875 630.381835938 111.23046875 c 0
 638.615234375 115.1640625 641.748046875 125.73046875 637.481445312 134.897460938 c 0
 636.815429688 136.197265625 635.981445312 138.09765625 635.315429688 139.364257812 c 0
 632.547851562 144.564453125 629.415039062 148.064453125 626.381835938 152.630859375 c 0
 620.047851562 162.497070312 614.848632812 170.6640625 611.615234375 179.064453125 c 0
 610.28125 183.397460938 611.848632812 186.064453125 612.881835938 188.864257812 c 0
 612.28125 189.59765625 610.915039062 193.6640625 610.115234375 195.59765625 c 0
 655.438476562 222.459960938 689.869140625 265.221679688 706.115234375 316.331054688 c 0
 708.248046875 315.997070312 711.981445312 315.331054688 713.21484375 315.064453125 c 0
 715.71484375 316.73046875 718.014648438 318.864257812 722.547851562 318.530273438 c 0
 731.415039062 317.23046875 740.547851562 313.930664062 751.547851562 309.997070312 c 0
 756.681640625 307.997070312 760.78125 305.73046875 766.481445312 304.23046875 c 0
 767.681640625 303.897460938 769.415039062 303.59765625 770.815429688 303.296875 c 2
 771.115234375 303.197265625 l 1
 771.348632812 303.1640625 l 2
 781.248046875 301.030273438 790.815429688 306.430664062 792.848632812 315.331054688 c 0
 794.848632812 324.197265625 788.58203125 333.23046875 778.748046875 335.59765625 c 0
646.6484375 472.530273438 m 1
 656.434570312 456.657226562 663.838867188 438.841796875 668.115234375 420.130859375 c 0
 671.004882812 407.590820312 672.545898438 394.806640625 672.545898438 381.39453125 c 0
 672.545898438 375.63671875 672.264648438 369.944335938 671.71484375 364.331054688 c 1
 587.514648438 388.59765625 l 1
 587.415039062 388.930664062 l 1
 581.184570312 390.623046875 576.584960938 396.318359375 576.584960938 403.08203125 c 0
 576.584960938 407.504882812 578.546875 411.473632812 581.6484375 414.1640625 c 2
 581.6484375 414.331054688 l 1
 646.6484375 472.530273438 l 1
512.881835938 295.030273438 m 1
 513.21484375 295.030273438 l 1
 555.547851562 218.497070312 l 1
 538.203125 212.614257812 519.546875 209.424804688 500.223632812 209.424804688 c 0
 480.79296875 209.424804688 462.110351562 212.651367188 444.681640625 218.59765625 c 1
 486.948242188 294.997070312 l 1
 487.014648438 294.997070312 l 1
 489.399414062 299.477539062 494.0390625 302.563476562 499.415039062 302.763671875 c 0
 499.615234375 302.772460938 499.798828125 302.791015625 500.001953125 302.791015625 c 0
 505.583984375 302.791015625 510.436523438 299.64453125 512.881835938 295.030273438 c 1
575.815429688 338.130859375 m 2
 575.948242188 338.296875 l 1
 662.615234375 323.630859375 l 1
 649.71484375 287.362304688 625.189453125 256.85546875 593.248046875 236.463867188 c 1
 559.58203125 317.73046875 l 1
 559.681640625 317.864257812 l 2
 558.908203125 319.649414062 558.458007812 321.62109375 558.458007812 323.689453125 c 0
 558.458007812 329.525390625 561.875 334.5703125 566.815429688 336.930664062 c 0
 568.731445312 337.849609375 570.879882812 338.373046875 573.145507812 338.373046875 c 0
 574.056640625 338.373046875 574.94921875 338.290039062 575.815429688 338.130859375 c 2
EndSplineSet
Validated: 33
EndChar

StartChar: openshift
Encoding: 59656 59656 12
Width: 1000
Flags: W
LayerCount: 2
Fore
SplineSet
822.166992188 381 m 1
 882.400390625 402.80078125 l 1
 887.5 339.900390625 876.099609375 276.733398438 849.366210938 219.567382812 c 0
 822.599609375 161.833984375 781.233398438 112.067382812 729.400390625 75.1669921875 c 0
 564.366210938 -42.3662109375 335.299804688 -3.8330078125 217.766601562 161.166992188 c 1
 157.366210938 139.200195312 l 1
 130.733398438 176.766601562 111.266601562 218.93359375 100 263.567382812 c 1
 214 305.30078125 l 1
 208.93359375 325.233398438 205.533203125 345.534179688 203.833007812 366.034179688 c 1
 150.366210938 346.567382812 l 1
 140.333007812 474.93359375 198.299804688 599.200195312 303.099609375 674 c 0
 468.133789062 791.766601562 697.400390625 753.5 815.200195312 588.5 c 1
 868.56640625 607.93359375 l 1
 880.5 591.166992188 891.06640625 573.30078125 900 554.766601562 c 1
 786.166992188 513.200195312 l 1
 806.299804688 471.80078125 818.5 426.900390625 822.166992188 381 c 1
664.166992188 468.833984375 m 1
 777.900390625 510.333984375 l 1
 767.633789062 528.766601562 755 545.80078125 740.299804688 560.93359375 c 0
 740.233398438 561 740.166992188 561.034179688 740.099609375 561.100585938 c 2
 686.799804688 541.700195312 l 1
 666.833007812 562.233398438 643.333007812 579 617.400390625 591.133789062 c 1
 617.400390625 590.93359375 l 1
 591.133789062 603.266601562 562.866210938 610.700195312 533.93359375 612.8671875 c 0
 402.866210938 622.666992188 288.666992188 524.3671875 278.866210938 393.30078125 c 1
 332.333007812 412.733398438 l 1
 332.533203125 412.733398438 l 1
 330.93359375 391.600585938 332.200195312 370.333984375 336.233398438 349.534179688 c 1
 222.033203125 308.133789062 l 1
 230.799804688 262.067382812 252.833007812 219.567382812 285.466796875 185.900390625 c 1
 345.900390625 207.900390625 l 1
 365.93359375 187.233398438 389.56640625 170.400390625 415.633789062 158.233398438 c 0
 535.166992188 102.700195312 677.099609375 154.5 732.766601562 273.966796875 c 0
 744.900390625 299.8671875 752.200195312 327.80078125 754.299804688 356.333984375 c 1
 694 334.43359375 l 1
 697.43359375 381.200195312 687.06640625 427.93359375 664.166992188 468.833984375 c 1
EndSplineSet
Validated: 33
EndChar

StartChar: helm
Encoding: 59657 59657 13
Width: 868
Flags: MW
HStem: 103.366 46.8525 305.1 39.2422<323.96 389.588 323.96 389.588> 305.1 48.2383<442.287 556.259 490.384 556.259 490.384 556.259> 374.8 48.0254<114.612 172.625 114.542 172.696 114.612 114.612> 448.184 39.7373<323.96 389.588 323.96 323.96> 644.545 48.0137
VStem: 66.5166 48.0957<305.1 374.8 305.1 487.921> 172.696 48.0596<305.1 374.8 374.8 374.8> 275.9 48.0596<344.342 377.987 418.434 448.184> 275.9 113.688<305.1 344.342 448.184 487.921> 415.441 61.0234<732.667 764.188> 442.287 48.0967<353.338 487.921 353.338 487.921 353.338 487.921> 442.287 113.972<305.1 353.338 305.1 487.921> 608.958 48.3086<305.1 398.706 305.1 487.921> 753.14 48.3438<305.1 398.954 398.954 398.954>
LayerCount: 2
Fore
SplineSet
445.935546875 822.360351562 m 0x9f26
 462.793945312 822.360351562 476.46484375 786.376953125 476.46484375 742 c 0
 476.46484375 722.803710938 473.87890625 705.202148438 469.62890625 691.389648438 c 1
 520.19921875 686.1484375 567.685546875 668.208007812 607.71875 641.09765625 c 1
 613.3046875 657.9921875 621.466796875 673.873046875 631.66015625 688.025390625 c 0
 653.123046875 718.731445312 679.119140625 738.918945312 695.056640625 738.670898438 c 0
 695.102539062 738.670898438 695.159179688 738.663085938 695.205078125 738.663085938 c 0
 697.994140625 738.663085938 700.586914062 737.817382812 702.741210938 736.369140625 c 0
 716.553710938 726.700195312 707.09765625 689.40625 681.633789062 653.033203125 c 0
 669.485351562 635.678710938 655.849609375 621.724609375 643.454101562 612.90625 c 1
 661.16796875 596.654296875 676.681640625 578.686523438 690.204101562 558.71875 c 1
 628.827148438 558.71875 l 1
 582.223632812 611.346679688 514.208007812 644.426757812 438.453125 644.426757812 c 2
 438.21484375 644.426757812 l 2
 438.15234375 644.426757812 438.135742188 644.544921875 438.073242188 644.544921875 c 0
 362.306640625 644.544921875 294.235351562 611.33203125 247.637695312 558.68359375 c 1
 186.224609375 558.68359375 l 1
 201.604492188 581.415039062 219.598632812 601.607421875 240.341796875 619.458007812 c 1
 230.389648438 628.064453125 220.047851562 639.5390625 210.591796875 653.033203125 c 0
 185.126953125 689.40625 175.670898438 726.700195312 189.483398438 736.369140625 c 0
 191.64453125 737.838867188 194.264648438 738.706054688 197.073242188 738.706054688 c 2
 197.168945312 738.706054688 l 2
 213.106445312 738.918945312 239.102539062 718.731445312 260.564453125 688.060546875 c 0
 269.03125 676.14453125 276.149414062 663.120117188 281.637695312 649.349609375 c 1
 322.814453125 674.293945312 370.974609375 689.860351562 421.922851562 692.55859375 c 1
 417.885742188 706.193359375 415.44140625 723.334960938 415.44140625 742 c 0
 415.44140625 786.376953125 429.112304688 822.360351562 445.935546875 822.360351562 c 0x9f26
66.5166015625 487.920898438 m 1
 114.541992188 487.920898438 l 1
 114.541992188 422.825195312 l 1
 172.625 422.825195312 l 1
 172.625 487.920898438 l 1
 220.755859375 487.920898438 l 1
 220.755859375 305.099609375 l 1
 172.696289062 305.099609375 l 1
 172.696289062 374.799804688 l 1
 114.612304688 374.799804688 l 1
 114.612304688 305.099609375 l 1
 66.5166015625 305.099609375 l 1xdf06
 66.5166015625 487.920898438 l 1
275.900390625 487.920898438 m 1xdf46
 389.587890625 487.920898438 l 1
 389.587890625 448.18359375 l 1xdf46
 323.959960938 448.18359375 l 1
 323.959960938 418.43359375 l 1
 382.043945312 418.43359375 l 1
 382.043945312 377.987304688 l 1
 323.959960938 377.987304688 l 1
 323.959960938 344.341796875 l 1xdf86
 389.587890625 344.341796875 l 1
 389.587890625 305.099609375 l 1
 275.900390625 305.099609375 l 1
 275.900390625 487.920898438 l 1xdf46
442.287109375 487.920898438 m 1xdf16
 490.383789062 487.920898438 l 1
 490.383789062 353.337890625 l 1xbf16
 556.258789062 353.337890625 l 1
 556.258789062 305.099609375 l 1xbf0e
 442.287109375 305.099609375 l 1xdf0e
 442.287109375 487.920898438 l 1xdf16
608.958007812 487.920898438 m 1
 630.668945312 487.920898438 l 1
 705.362304688 420.1328125 l 1
 779.737304688 487.920898438 l 1
 801.483398438 487.920898438 l 1
 801.483398438 305.099609375 l 1
 753.139648438 305.099609375 l 1
 753.139648438 398.954101562 l 1
 705.327148438 355.3203125 l 1
 657.266601562 398.706054688 l 1
 657.266601562 305.099609375 l 1
 608.958007812 305.099609375 l 1xdf06
 608.958007812 487.920898438 l 1
190.333007812 230.087890625 m 1
 253.091796875 230.051757812 l 1
 299.434570312 180.911132812 365.124023438 150.293945312 437.934570312 150.293945312 c 2
 438.178710938 150.293945312 l 2
 438.272460938 150.293945312 438.357421875 150.21875 438.451171875 150.21875 c 0
 511.26171875 150.21875 576.958984375 180.911132812 623.301757812 230.051757812 c 1
 686.025390625 230.051757812 l 1
 673.461914062 212.423828125 659.3671875 196.484375 643.454101562 181.885742188 c 1
 655.849609375 173.03125 669.450195312 159.041992188 681.59765625 141.6875 c 0
 707.0625 105.314453125 716.518554688 68.0205078125 702.706054688 58.3515625 c 0
 688.893554688 48.68359375 657.08984375 70.3232421875 631.625 106.66015625 c 0
 620.185546875 123.022460938 612.00390625 139.491210938 607.71875 153.658203125 c 1
 567.67578125 126.54296875 520.176757812 108.602539062 469.59375 103.366210938 c 1
 473.87890625 89.5537109375 476.428710938 71.9169921875 476.428710938 52.720703125 c 0
 476.428710938 8.34375 462.758789062 -27.6396484375 445.900390625 -27.6396484375 c 0
 429.077148438 -27.6396484375 415.40625 8.34375 415.40625 52.720703125 c 0
 415.399414062 53.3603515625 415.419921875 53.9248046875 415.419921875 54.56640625 c 0
 415.419921875 71.05078125 417.672851562 87.013671875 421.887695312 102.162109375 c 1
 370.94140625 104.849609375 322.782226562 120.404296875 281.602539062 145.334960938 c 1
 276.111328125 131.578125 268.994140625 118.565429688 260.529296875 106.66015625 c 0
 235.099609375 70.3232421875 203.260742188 48.68359375 189.448242188 58.3515625 c 0
 175.670898438 68.0205078125 185.091796875 105.314453125 210.556640625 141.6875 c 0
 219.143554688 154.141601562 229.030273438 165.279296875 240.341796875 175.262695312 c 1
 221.423828125 191.537109375 204.834960938 209.71484375 190.333007812 230.087890625 c 1
EndSplineSet
Validated: 33
EndChar

StartChar: hashicorpterraform
Encoding: 59658 59658 14
Width: 1000
Flags: MW
VStem: 383.833 232.334<108.042 242.2 -26.1875 376.323 -26.1875 376.323 -26.1875 674>
LayerCount: 2
Fore
SplineSet
126 823.8125 m 1
 358.369140625 689.689453125 l 1
 358.369140625 421.301757812 l 1
 126 555.53125 l 1
 126 823.8125 l 1
874 674.106445312 m 1
 873.96484375 405.71875 l 1
 641.630859375 271.595703125 l 1
 641.630859375 539.841796875 l 1
 874 674.106445312 l 1
383.833007812 674 m 1
 616.202148438 539.841796875 l 1
 616.202148438 271.595703125 l 1
 383.833007812 405.71875 l 1
 383.833007812 674 l 1
383.833007812 376.323242188 m 1
 616.166992188 242.200195312 l 1
 616.166992188 -26.1875 l 1
 383.833007812 108.041992188 l 1
 383.833007812 376.323242188 l 1
EndSplineSet
Validated: 1
EndChar

StartChar: hshicorpconsul
Encoding: 59659 59659 15
Width: 1000
Flags: MW
HStem: -17.1768 82.6484<442.564 522.929 442.564 532.091> 157.123 81.9111<815.975 838.603> 286.407 81.958<757.706 768.979> 304.495 177.505<484.75 509.241 484.75 509.245> 352.311 81.8516<646.354 657.65> 421.865 81.7061<756.6 767.898 756.6 779.194> 548.633 82.1738<815.105 837.73 815.105 837.73> 723.042 82.6445
VStem: 75 82.6484<350.25 438.147 350.25 449.142> 396.003 177.501<368.754 417.736> 616.712 81.873<393.235 404.529 393.235 404.529> 728.129 81.6963<316.081 338.696 316.081 338.696> 786.291 82<186.776 209.38> 843.216 81.7559<313.919 336.472>
LayerCount: 2
Fore
SplineSet
573.50390625 393.245117188 m 0xd3e0
 573.50390625 344.262695312 533.736328125 304.495117188 484.752929688 304.495117188 c 0
 435.770507812 304.495117188 396.002929688 344.262695312 396.002929688 393.245117188 c 0
 396.002929688 442.227539062 435.768554688 481.998046875 484.75 482 c 0
 533.732421875 482 573.50390625 442.228515625 573.50390625 393.245117188 c 0xd3e0
698.584960938 393.235351562 m 0
 698.583007812 370.649414062 680.2421875 352.3125 657.650390625 352.310546875 c 0
 635.056640625 352.310546875 616.713867188 370.6484375 616.711914062 393.235351562 c 0
 616.711914062 415.823242188 635.055664062 434.162109375 657.650390625 434.162109375 c 0xcbe0
 680.243164062 434.16015625 698.584960938 415.822265625 698.584960938 393.235351562 c 0
868.291015625 198.078125 m 0xc3e8
 868.291015625 175.474609375 849.916992188 157.123046875 827.2890625 157.123046875 c 0
 804.661132812 157.123046875 786.291015625 175.474609375 786.291015625 198.078125 c 0
 786.291015625 220.682617188 804.661132812 239.034179688 827.2890625 239.034179688 c 0
 849.916992188 239.034179688 868.291015625 220.682617188 868.291015625 198.078125 c 0xc3e8
809.825195312 327.388671875 m 0xe3f0
 809.825195312 304.7734375 791.522460938 286.409179688 768.978515625 286.407226562 c 0
 746.43359375 286.407226562 728.12890625 304.772460938 728.12890625 327.388671875 c 0
 728.12890625 350.00390625 746.43359375 368.365234375 768.978515625 368.365234375 c 0
 791.522460938 368.36328125 809.825195312 350.002929688 809.825195312 327.388671875 c 0xe3f0
924.971679688 325.1953125 m 0xc3e4
 924.971679688 302.642578125 906.655273438 284.33203125 884.09375 284.33203125 c 0
 861.532226562 284.33203125 843.215820312 302.642578125 843.215820312 325.1953125 c 0
 843.215820312 347.749023438 861.532226562 366.059570312 884.09375 366.059570312 c 0
 906.655273438 366.059570312 924.971679688 347.749023438 924.971679688 325.1953125 c 0xc3e4
808.840820312 462.71875 m 0
 808.840820312 440.170898438 790.493164062 421.865234375 767.895507812 421.865234375 c 0
 745.296875 421.865234375 726.950195312 440.170898438 726.950195312 462.71875 c 0
 726.950195312 485.265625 745.30078125 503.571289062 767.8984375 503.571289062 c 0xc7e0
 790.495117188 503.569335938 808.840820312 485.264648438 808.840820312 462.71875 c 0
925 461.125 m 0
 925 438.508789062 906.569335938 420.140625 883.8671875 420.140625 c 0
 861.166992188 420.142578125 842.737304688 438.502929688 842.737304688 461.118164062 c 2
 842.737304688 461.125 l 2
 842.737304688 483.740234375 861.166992188 502.100585938 883.8671875 502.102539062 c 0
 906.569335938 502.102539062 925 483.741210938 925 461.125 c 0
867.412109375 589.72265625 m 0
 867.412109375 567.045898438 849.04296875 548.6328125 826.41796875 548.6328125 c 0
 803.791992188 548.6328125 785.422851562 567.046875 785.422851562 589.72265625 c 0
 785.424804688 612.397460938 803.79296875 630.806640625 826.41796875 630.806640625 c 0
 849.041992188 630.806640625 867.41015625 612.397460938 867.412109375 589.72265625 c 0
486.438476562 805.68359375 m 0
 577.643554688 805.68359375 664.028320312 776.4609375 736.282226562 721.2109375 c 1
 686.065429688 655.548828125 l 1
 628.349609375 699.702148438 559.326171875 723.041992188 486.438476562 723.041992188 c 0
 398.393554688 723.041992188 315.755859375 688.893554688 253.833007812 626.95703125 c 0
 191.807617188 564.68359375 157.6484375 482.03515625 157.6484375 394.258789062 c 0
 157.6484375 306.241210938 191.783203125 223.578125 253.69140625 161.641601562 c 0
 316.041992188 99.6162109375 398.690429688 65.4716796875 486.438476562 65.4716796875 c 0
 559.418945312 65.4716796875 628.427734375 88.8037109375 686.026367188 132.932617188 c 1
 736.303710938 67.3271484375 l 1
 664.145507812 12.048828125 577.743164062 -17.1767578125 486.438476562 -17.1767578125 c 0
 376.704101562 -17.1767578125 273.340820312 25.521484375 195.32421875 103.162109375 c 0
 117.737304688 180.7734375 75 284.151367188 75 394.26171875 c 0
 75 504.021484375 117.712890625 607.385742188 195.32421875 685.358398438 c 0
 272.912109375 762.959960938 376.299804688 805.68359375 486.438476562 805.68359375 c 0
EndSplineSet
Validated: 1
EndChar

StartChar: hashicorpnomad
Encoding: 59660 59660 16
Width: 894
Flags: HMW
HStem: -24.917 35.417<359.167 383.569 334.765 393.344 677.917 702.319> 81.333 35.417<196.144 236.625 235.208 236.625 318.863 328.637 389.696 399.47> 187.583 35.417<334.765 383.569 677.917 702.319> 258.416 35.417<677.917 702.319> 335.058 61.9473 364.666 35.417<199.65 236.625 216.862 236.625 481.708 555.375> 470.916 35.417<334.765 359.167 677.917 702.319> 789.666 35.417<89.8936 168.023>
VStem: -48.125 35.417<648 687.064 608.935 696.822> 58.125 35.417<591.262 704.454> 93.542 35.416<223 401.57> 236.625 34<81.333 81.333 116.75 116.75 364.666 364.666 400.083 400.083> 270.625 35.417<94.1543 103.928 94.1543 123.443 648 687.064> 306.042 35.416<94.1543 103.928> 376.875 35.417<94.1543 103.928> 447.708 35.417<74.6392 123.443> 518.863 70.5117<93.5181 103.04> 555.375 34<364.666 364.666 400.083 400.083> 766.458 35.417<74.6392 123.443 357.973 406.777>
LayerCount: 2
Fore
SplineSet
780.337890625 575.743164062 m 1xf38320
 596.512695312 473.818359375 l 1
 596.512695312 601.112304688 l 1
 491.4375 538 l 1
 491.4375 410.987304688 l 1
 381.806640625 472.130859375 l 1
 336.693359375 444.680664062 l 1
 113.662109375 575.630859375 l 1
 444.244140625 766.65625 l 1
 780.337890625 576.193359375 l 1
 780.337890625 575.743164062 l 1xf38320
774.150390625 575.743164062 m 1
 780.337890625 575.743164062 l 1
 780.337890625 195.211914062 l 1
 448.744140625 4.693359375 l 1
 447 4.75 l 1
 447 334.65625 l 1
 508.537109375 296.630859375 l 1
 596.512695312 347.424804688 l 1
 596.512695312 473.818359375 l 1
 774.150390625 575.743164062 l 1
447 4.75 m 1
 113.662109375 195.211914062 l 1
 113.662109375 575.630859375 l 1
 115.575195312 575.6875 l 1
 340.462890625 446.987304688 l 1
 302.549804688 423.586914062 l 1
 302.549804688 169.731445312 l 1
 402.5625 233.125 l 1
 402.5625 360.081054688 l 1
 447 334.65625 l 1
 447 4.75 l 1
EndSplineSet
Validated: 5
EndChar

StartChar: hashicorpvault
Encoding: 59661 59661 17
Width: 957
Flags: HMW
HStem: -1.66699 21.0674<98.1394 374.472 90.9726 729.338 98.1394 98.1394> -1.66699 30.5332<554.222 559.722 554.222 729.338> 96.2998 3.06641 240 17.167 283.833 30.4336 422.566 22.667
VStem: 118.039 26.2334 224.972 42 354.939 19.5664
LayerCount: 2
Fore
SplineSet
78.5 705.633789062 m 5x3f80
 878.5 705.633789062 l 5
 477 -94.3662109375 l 5
 78.5 705.633789062 l 5x3f80
524.033203125 544.733398438 m 5
 524.033203125 498.733398438 l 5
 570.466796875 498.733398438 l 5
 570.466796875 544.733398438 l 5
 524.033203125 544.733398438 l 5
431.700195312 359.100585938 m 5
 432.133789062 405.8671875 l 5
 385.833007812 405.8671875 l 5
 385.833007812 359.100585938 l 5
 431.700195312 359.100585938 l 5
431.700195312 428.666992188 m 5
 432.133789062 475.43359375 l 5
 385.833007812 475.43359375 l 5
 385.833007812 428.666992188 l 5
 431.700195312 428.666992188 l 5
431.700195312 498.200195312 m 5
 432.133789062 545 l 5
 385.833007812 545 l 5
 385.833007812 498.200195312 l 5
 431.700195312 498.200195312 l 5
501.266601562 289.43359375 m 5
 501.633789062 336.30078125 l 5
 455.366210938 336.30078125 l 5
 455.366210938 289.43359375 l 5
 501.266601562 289.43359375 l 5
501.266601562 359.100585938 m 5
 501.633789062 405.8671875 l 5
 455.366210938 405.8671875 l 5
 455.366210938 359.100585938 l 5
 501.266601562 359.100585938 l 5
501.266601562 428.666992188 m 5
 501.633789062 475.43359375 l 5
 455.366210938 475.43359375 l 5
 455.366210938 428.666992188 l 5
 501.266601562 428.666992188 l 5
501.266601562 498.200195312 m 5
 501.633789062 545 l 5
 455.366210938 545 l 5
 455.366210938 498.200195312 l 5
 501.266601562 498.200195312 l 5
524.033203125 475.43359375 m 5
 524.033203125 429.133789062 l 5
 570.466796875 429.133789062 l 5
 570.466796875 475.43359375 l 5
 524.033203125 475.43359375 l 5
524.033203125 359.600585938 m 5
 570.333007812 359.600585938 l 5
 570.333007812 405.8671875 l 5
 524.033203125 405.8671875 l 5
 524.033203125 359.600585938 l 5
EndSplineSet
Validated: 1
EndChar

StartChar: buildkit
Encoding: 59662 59662 18
Width: 962
Flags: W
LayerCount: 2
Fore
SplineSet
880.051757812 295.666992188 m 2
 880.708984375 291.038085938 881.049804688 286.307617188 881.049804688 281.498046875 c 0
 881.049804688 244.473632812 860.98828125 212.287109375 831.051757812 195 c 2
 531.051757812 21.6669921875 l 2
 516.36328125 13.1865234375 499.323242188 8.3330078125 481.159179688 8.3330078125 c 0
 462.994140625 8.3330078125 445.740234375 13.1865234375 431.051757812 21.6669921875 c 2
 131.051757812 195 l 2
 101.115234375 212.287109375 80.9501953125 244.638671875 80.9501953125 281.663085938 c 0
 80.9501953125 286.47265625 81.39453125 291.038085938 82.0517578125 295.666992188 c 2
 126.051757812 535.666992188 l 2
 129.486328125 559.653320312 141.404296875 580.990234375 158.71875 596.333007812 c 0
 163.75390625 600.768554688 169.185546875 604.654296875 175.051757812 608 c 2
 426.71875 753.666992188 l 2
 442.322265625 763.670898438 460.872070312 769.473632812 480.767578125 769.473632812 c 0
 501.1015625 769.473632812 520.237304688 763.4140625 536.051757812 753 c 2
 787.051757812 608 l 2
 790.384765625 606.333007812 793.384765625 604.666992188 796.384765625 602.333007812 c 0
 817.543945312 586.719726562 832.255859375 562.916992188 836.051757812 535.666992188 c 2
 880.051757812 295.666992188 l 2
562.051757812 654.666992188 m 1
 304.71875 601.666992188 l 2
 290.384765625 599 287.71875 580.333007812 300.051757812 573 c 2
 486.71875 465.333007812 l 2
 494.384765625 461 503.384765625 463 507.71875 471.666992188 c 2
 560.384765625 591.666992188 l 1
 578.051757812 632.333007812 l 2
 583.384765625 644 574.384765625 657.333007812 561.384765625 654.666992188 c 1
 562.051757812 654.666992188 l 1
EndSplineSet
Validated: 1
EndChar

StartChar: awesome
Encoding: 59663 59663 19
Width: 1086
Flags: MW
HStem: 41.208 282.25<151.958 193.417 193.417 351.542 693 734.458 734.458 892.542> 270.25 53.208<501.958 584.042 501.958 501.958>
LayerCount: 2
Fore
SplineSet
1043 323.416992188 m 1x40
 1042.95800781 168.333007812 l 2
 1042.95800781 98.2919921875 975.458007812 41.2080078125 892.541992188 41.2080078125 c 2
 734.458007812 41.2080078125 l 2x80
 651.541992188 41.2080078125 584.041992188 98.3330078125 584.041992188 168.333007812 c 2
 584.041992188 270.25 l 1
 501.958007812 270.25 l 1x40
 501.958007812 168.333007812 l 2
 501.958007812 98.2919921875 434.458007812 41.2080078125 351.541992188 41.2080078125 c 2
 193.416992188 41.2080078125 l 2x80
 110.5 41.2080078125 43 98.2919921875 43 168.416992188 c 2
 43 323.416992188 l 1
 43.1669921875 323.416992188 l 1
 299.583007812 558.791992188 l 1
 335.625 519.5 l 1
 121.958007812 323.458007812 l 1
 964.208007812 323.458007812 l 1
 750.541992188 519.291992188 l 1
 786.583007812 558.625 l 1
 1043 323.416992188 l 1x40
EndSplineSet
Validated: 1
EndChar

StartChar: awsamplify
Encoding: 59664 59664 20
Width: 902
Flags: MW
HStem: 1.59961 101.567<225.1 450.434 225.1 508.134>
LayerCount: 2
Fore
SplineSet
225.099609375 103.166992188 m 1
 450.43359375 103.166992188 l 1
 508.133789062 1.599609375 l 1
 51 1.599609375 l 1
 211.5 279.733398438 l 1
 278.766601562 396.200195312 l 1
 336.533203125 296.133789062 l 1
 225.099609375 103.166992188 l 1
309.099609375 448.866210938 m 1
 364.599609375 545 l 1
 678.43359375 1.6337890625 l 1
 567.299804688 1.6337890625 l 1
 309.099609375 448.866210938 l 1
395.43359375 598.400390625 m 1
 506.43359375 598.400390625 l 1
 851 1.599609375 l 1
 739.866210938 1.599609375 l 1
 395.43359375 598.400390625 l 1
EndSplineSet
Validated: 1
EndChar

StartChar: googlefirebase
Encoding: 59665 59665 21
Width: 726
Flags: W
LayerCount: 2
Fore
SplineSet
92.6669921875 284.190429688 m 1
 171.5 791.223632812 l 2
 172.806640625 799.915039062 180.3125 806.586914062 189.365234375 806.586914062 c 0
 196.291015625 806.586914062 202.301757812 802.717773438 205.333007812 796.990234375 c 2
 290.099609375 637.95703125 l 1
 92.6669921875 284.190429688 l 1
652.466796875 161.124023438 m 1
 388.333007812 13.5244140625 l 2
 380.522460938 9.1357421875 371.3984375 6.6318359375 361.809570312 6.6318359375 c 0
 352.219726562 6.6318359375 343.2109375 9.1357421875 335.400390625 13.5244140625 c 2
 73.533203125 161.090820312 l 1
 546.833007812 637.624023438 l 2
 550.100585938 640.954101562 554.653320312 643 559.681640625 643 c 0
 568.66796875 643 576.124023438 636.401367188 577.466796875 627.791015625 c 2
 652.466796875 161.124023438 l 1
439.666992188 568.357421875 m 1
 80.6669921875 207.124023438 l 1
 347 684.423828125 l 2
 350.021484375 690.184570312 356.038085938 694.118164062 362.989257812 694.118164062 c 0
 369.939453125 694.118164062 375.978515625 690.184570312 379 684.423828125 c 2
 439.666992188 568.357421875 l 1
EndSplineSet
Validated: 1
EndChar

StartChar: netlify
Encoding: 59666 59666 22
Width: 927
Flags: W
LayerCount: 2
Fore
SplineSet
643.08984375 521.893554688 m 2
 642.797851562 522.016601562 l 2
 642.631835938 522.083984375 642.46484375 522.143554688 642.318359375 522.290039062 c 0
 641.935546875 522.701171875 641.701171875 523.250976562 641.701171875 523.856445312 c 0
 641.701171875 523.984375 641.711914062 524.108398438 641.731445312 524.23046875 c 2
 657.861328125 622.833984375 l 1
 733.495117188 547.180664062 l 1
 654.834960938 513.713867188 l 2
 654.63671875 513.634765625 654.419921875 513.590820312 654.192382812 513.590820312 c 0
 654.177734375 513.590820312 654.163085938 513.58984375 654.1484375 513.590820312 c 2
 653.833007812 513.590820312 l 2
 653.677734375 513.690429688 653.538085938 513.807617188 653.413085938 513.943359375 c 0
 650.490234375 517.19921875 647.020507812 519.880859375 643.08984375 521.893554688 c 2
752.790039062 527.900390625 m 1
 833.663085938 447.034179688 l 2
 850.459960938 430.216796875 858.866210938 421.827148438 861.93359375 412.103515625 c 0
 862.393554688 410.666992188 862.766601562 409.227539062 863.059570312 407.744140625 c 1
 669.79296875 489.59375 l 2
 669.69140625 489.63671875 669.587890625 489.6796875 669.485351562 489.720703125 c 0
 668.711914062 490.034179688 667.815429688 490.38671875 667.815429688 491.18359375 c 0
 667.815429688 491.973632812 668.731445312 492.350585938 669.504882812 492.6640625 c 2
 669.754882812 492.766601562 l 1
 752.790039062 527.900390625 l 1
859.763671875 381.790039062 m 1
 855.58984375 373.943359375 847.453125 365.806640625 833.68359375 352.016601562 c 2
 742.506835938 260.860351562 l 1
 624.583007812 285.416992188 l 1
 623.95703125 285.541992188 l 2
 622.913085938 285.708984375 621.806640625 285.900390625 621.806640625 286.834960938 c 0
 620.875976562 296.939453125 615.7421875 305.845703125 608.139648438 311.725585938 c 0
 607.66015625 312.205078125 607.786132812 312.958984375 607.931640625 313.645507812 c 0
 607.931640625 313.745117188 607.931640625 313.853515625 607.973632812 313.9375 c 2
 630.153320312 450.096679688 l 1
 630.236328125 450.556640625 l 2
 630.361328125 451.600585938 630.548828125 452.810546875 631.490234375 452.810546875 c 0
 641.3203125 454.034179688 649.951171875 459.189453125 655.690429688 466.68359375 c 0
 655.877929688 466.891601562 656.002929688 467.120117188 656.256835938 467.247070312 c 0
 656.922851562 467.559570312 657.712890625 467.247070312 658.403320312 466.955078125 c 2
 859.743164062 381.7890625 l 1
 859.763671875 381.790039062 l 1
721.540039062 239.890625 m 1
 571.606445312 89.9599609375 l 1
 597.2734375 247.693359375 l 1
 597.313476562 247.90234375 l 2
 597.33203125 248.110351562 597.375 248.31640625 597.438476562 248.508789062 c 0
 597.646484375 249.008789062 598.19140625 249.21875 598.711914062 249.42578125 c 2
 598.961914062 249.529296875 l 2
 604.631835938 251.94921875 609.568359375 255.645507812 613.461914062 260.31640625 c 0
 613.961914062 260.903320312 614.568359375 261.465820312 615.341796875 261.569335938 c 0
 615.440429688 261.5859375 615.541992188 261.59375 615.645507812 261.59375 c 0
 615.748046875 261.59375 615.846679688 261.5859375 615.9453125 261.569335938 c 2
 721.518554688 239.869140625 l 1
 721.540039062 239.890625 l 1
539.873046875 58.2275390625 m 1
 522.973632812 41.3271484375 l 1
 336.133789062 311.350585938 l 2
 336.06640625 311.44921875 335.998046875 311.545898438 335.926757812 311.641601562 c 0
 335.633789062 312.041992188 335.3203125 312.435546875 335.383789062 312.895507812 c 0
 335.403320312 313.228515625 335.61328125 313.522460938 335.84375 313.772460938 c 2
 336.049804688 314.04296875 l 2
 336.616210938 314.875976562 337.09375 315.709960938 337.616210938 316.609375 c 2
 338.033203125 317.33984375 l 1
 338.096679688 317.40234375 l 2
 338.38671875 317.90234375 338.66015625 318.381835938 339.16015625 318.655273438 c 0
 339.596679688 318.86328125 340.203125 318.780273438 340.68359375 318.67578125 c 2
 547.676757812 275.985351562 l 2
 548.266601562 275.89453125 548.813476562 275.650390625 549.263671875 275.298828125 c 0
 549.530273438 275.028320312 549.596679688 274.732421875 549.659179688 274.3984375 c 0
 552.600585938 263.2734375 560.618164062 254.217773438 571.10546875 249.885742188 c 0
 571.689453125 249.59375 571.439453125 248.9453125 571.172851562 248.258789062 c 0
 571.038085938 247.961914062 570.9296875 247.642578125 570.85546875 247.318359375 c 0
 568.249023438 231.461914062 545.8828125 95.0517578125 539.872070312 58.2255859375 c 1
 539.873046875 58.2275390625 l 1
504.573242188 22.947265625 m 1
 492.116210938 10.61328125 484.7734375 4.083984375 476.466796875 1.45703125 c 0
 472.49609375 0.201171875 468.270507812 -0.4755859375 463.88671875 -0.4755859375 c 0
 459.50390625 -0.4755859375 455.2734375 0.201171875 451.303710938 1.45703125 c 0
 441.583007812 4.5439453125 433.172851562 12.9306640625 416.376953125 29.7470703125 c 2
 228.743164062 217.380859375 l 1
 277.756835938 293.38671875 l 2
 277.96484375 293.770507812 278.247070312 294.1015625 278.58984375 294.3671875 c 0
 279.11328125 294.7421875 279.86328125 294.575195312 280.490234375 294.3671875 c 0
 285.134765625 292.965820312 290.059570312 292.212890625 295.159179688 292.212890625 c 0
 302.057617188 292.212890625 308.66796875 293.604492188 314.666992188 296.100585938 c 0
 315.23046875 296.30859375 315.79296875 296.454101562 316.23046875 296.05859375 c 0
 316.450195312 295.858398438 316.643554688 295.637695312 316.813476562 295.391601562 c 2
 504.5703125 22.92578125 l 1
 504.573242188 22.947265625 l 1
210.65625 235.466796875 m 1
 167.61328125 278.513671875 l 1
 252.61328125 314.77734375 l 2
 252.82421875 314.869140625 253.05859375 314.921875 253.303710938 314.922851562 c 0
 254.013671875 314.922851562 254.4296875 314.212890625 254.803710938 313.56640625 c 0
 255.662109375 312.245117188 256.560546875 310.973632812 257.516601562 309.7265625 c 2
 257.790039062 309.392578125 l 2
 258.040039062 309.0390625 257.873046875 308.682617188 257.623046875 308.349609375 c 2
 210.676757812 235.469726562 l 1
 210.65625 235.466796875 l 1
148.563476562 297.560546875 m 1
 94.1103515625 352.016601562 l 2
 84.84375 361.280273438 78.126953125 367.997070312 73.453125 373.77734375 c 1
 239.033203125 339.43359375 l 2
 239.239257812 339.396484375 239.448242188 339.36328125 239.65625 339.333984375 c 0
 240.6796875 339.166992188 241.806640625 338.975585938 241.806640625 338.016601562 c 0
 241.806640625 336.973632812 240.573242188 336.494140625 239.533203125 336.096679688 c 2
 239.053710938 335.888671875 l 1
 148.563476562 297.560546875 l 1
63.9404296875 401.780273438 m 1
 64.1318359375 405.348632812 64.7822265625 408.83203125 65.81640625 412.107421875 c 0
 68.90625 421.830078125 77.29296875 430.220703125 94.1103515625 447.034179688 c 2
 163.796875 516.720703125 l 1
 195.9921875 469.995117188 227.948242188 423.801757812 260.313476562 377.204101562 c 0
 260.879882812 376.450195312 261.502929688 375.6171875 260.856445312 374.990234375 c 0
 257.809570312 371.630859375 254.763671875 367.95703125 252.61328125 363.973632812 c 0
 252.377929688 363.45703125 252.020507812 363.015625 251.5703125 362.680664062 c 0
 251.303710938 362.513671875 251.006835938 362.580078125 250.696289062 362.638671875 c 2
 250.653320312 362.638671875 l 1
 63.9404296875 401.805664062 l 1
 63.9404296875 401.780273438 l 1
182.450195312 535.374023438 m 1
 276.150390625 629.07421875 l 1
 284.953125 625.216796875 317.002929688 611.673828125 345.669921875 599.57421875 c 0
 367.370117188 590.393554688 387.146484375 582.046875 393.36328125 579.336914062 c 0
 393.990234375 579.083984375 394.553710938 578.836914062 394.827148438 578.209960938 c 0
 394.993164062 577.833984375 394.91015625 577.353515625 394.827148438 576.95703125 c 0
 394.192382812 574.063476562 393.857421875 571.05859375 393.857421875 567.975585938 c 0
 393.857421875 556.62890625 398.385742188 546.350585938 405.736328125 538.817382812 c 0
 406.36328125 538.190429688 405.736328125 537.293945312 405.193359375 536.520507812 c 2
 404.901367188 536.083984375 l 1
 309.76171875 388.716796875 l 2
 309.51171875 388.3046875 309.28125 387.950195312 308.865234375 387.676757812 c 0
 308.365234375 387.364257812 307.655273438 387.510742188 307.071289062 387.657226562 c 0
 303.443359375 388.607421875 299.649414062 389.143554688 295.73828125 389.200195312 c 0
 292.318359375 389.200195312 288.60546875 388.57421875 284.8515625 387.883789062 c 2
 284.828125 387.883789062 l 2
 284.412109375 387.821289062 284.03515625 387.73828125 283.702148438 387.98828125 c 0
 283.33203125 388.291015625 283.018554688 388.647460938 282.764648438 389.0546875 c 2
 182.450195312 535.374023438 l 1
295.073242188 648 m 1
 416.376953125 769.30078125 l 2
 433.176757812 786.096679688 441.583007812 794.50390625 451.303710938 797.5703125 c 0
 455.274414062 798.826171875 459.500976562 799.50390625 463.884765625 799.50390625 c 0
 468.268554688 799.50390625 472.499023438 798.826171875 476.469726562 797.5703125 c 0
 486.190429688 794.50390625 494.596679688 786.096679688 511.393554688 769.303710938 c 2
 537.68359375 743.010742188 l 1
 451.41015625 609.397460938 l 2
 451.194335938 609.005859375 450.905273438 608.66796875 450.553710938 608.397460938 c 0
 450.033203125 608.040039062 449.303710938 608.1875 448.676757812 608.397460938 c 0
 444.654296875 609.6171875 440.387695312 610.274414062 435.96875 610.274414062 c 0
 425.635742188 610.274414062 416.106445312 606.676757812 408.616210938 600.676757812 c 0
 408.053710938 600.090820312 407.216796875 600.426757812 406.509765625 600.740234375 c 0
 395.243164062 605.640625 307.610351562 642.673828125 295.077148438 647.997070312 c 2
 295.073242188 648 l 1
556 724.697265625 m 1
 635.66015625 645.037109375 l 1
 616.466796875 526.153320312 l 1
 616.466796875 525.840820312 l 2
 616.44921875 525.564453125 616.391601562 525.295898438 616.299804688 525.046875 c 0
 616.091796875 524.630859375 615.672851562 524.546875 615.256835938 524.419921875 c 0
 611.1171875 523.166015625 607.23828125 521.21484375 603.823242188 518.723632812 c 0
 603.673828125 518.6171875 603.536132812 518.5 603.40625 518.370117188 c 0
 603.172851562 518.120117188 602.946289062 517.890625 602.573242188 517.846679688 c 0
 602.547851562 517.846679688 602.5234375 517.845703125 602.498046875 517.845703125 c 0
 602.208007812 517.845703125 601.930664062 517.8984375 601.672851562 517.994140625 c 2
 480.287109375 569.5703125 l 1
 480.053710938 569.673828125 l 2
 479.283203125 569.987304688 478.366210938 570.36328125 478.366210938 571.157226562 c 0
 477.638671875 578.05859375 475.346679688 584.6015625 471.900390625 590.247070312 c 0
 471.313476562 591.20703125 470.666992188 592.20703125 471.166992188 593.190429688 c 2
 556 724.697265625 l 1
473.966796875 545.13671875 m 1
 587.759765625 496.9375 l 2
 588.38671875 496.647460938 589.073242188 496.376953125 589.346679688 495.73046875 c 0
 589.399414062 495.541015625 589.427734375 495.340820312 589.427734375 495.134765625 c 0
 589.427734375 494.928710938 589.399414062 494.729492188 589.346679688 494.540039062 c 0
 588.96484375 492.763671875 588.75 490.936523438 588.719726562 489.053710938 c 2
 588.719726562 485.860351562 l 2
 588.719726562 485.067382812 587.90625 484.733398438 587.153320312 484.419921875 c 2
 586.923828125 484.336914062 l 2
 568.897460938 476.63671875 333.84375 376.403320312 333.491210938 376.403320312 c 0
 333.133789062 376.403320312 332.7578125 376.403320312 332.404296875 376.76171875 c 0
 331.77734375 377.388671875 332.404296875 378.265625 332.967773438 379.05859375 c 0
 333.06640625 379.196289062 333.163085938 379.333984375 333.2578125 379.475585938 c 2
 426.770507812 524.275390625 l 1
 426.9375 524.522460938 l 2
 427.48046875 525.3984375 428.104492188 526.37890625 429.107421875 526.37890625 c 2
 430.047851562 526.235351562 l 2
 432.173828125 525.942382812 434.053710938 525.668945312 435.951171875 525.668945312 c 0
 450.140625 525.668945312 463.284179688 532.575195312 471.213867188 544.385742188 c 0
 471.403320312 544.702148438 471.640625 544.981445312 471.920898438 545.21875 c 0
 472.487304688 545.638671875 473.321289062 545.428710938 473.967773438 545.138671875 c 1
 473.966796875 545.13671875 l 1
343.650390625 353.497070312 m 1
 599.860351562 462.763671875 l 1
 599.860351562 462.763671875 600.235351562 462.763671875 600.59375 462.409179688 c 0
 601.990234375 461.009765625 603.1796875 460.073242188 604.327148438 459.196289062 c 2
 604.889648438 458.837890625 l 2
 605.41015625 458.545898438 605.93359375 458.2109375 605.973632812 457.670898438 c 0
 605.973632812 457.462890625 605.973632812 457.337890625 605.931640625 457.147460938 c 2
 583.985351562 322.32421875 l 1
 583.901367188 321.78125 l 2
 583.755859375 320.73828125 583.610351562 319.547851562 582.627929688 319.547851562 c 0
 570.422851562 318.724609375 559.865234375 311.856445312 553.981445312 301.877929688 c 2
 553.877929688 301.7109375 l 2
 553.5859375 301.231445312 553.310546875 300.771484375 552.833984375 300.521484375 c 0
 552.397460938 300.3125 551.833984375 300.396484375 551.374023438 300.500976562 c 2
 347.047851562 342.64453125 l 2
 346.837890625 342.686523438 343.874023438 353.474609375 343.647460938 353.494140625 c 1
 343.650390625 353.497070312 l 1
EndSplineSet
Validated: 5
EndChar

StartChar: azurepipelines
Encoding: 59667 59667 23
Width: 988
Flags: MW
HStem: -1.66699 60<153.965 293.965 153.965 293.965> 698.333 100<666.369 721.561>
VStem: 93.9648 60<58.333 198.333 58.333 198.333 58.333 198.333> 793.965 100<570.737 625.929>
LayerCount: 2
Fore
SplineSet
153.96484375 198.333007812 m 1
 153.96484375 58.3330078125 l 1
 293.96484375 58.3330078125 l 1
 293.96484375 -1.6669921875 l 1
 93.96484375 -1.6669921875 l 1
 93.96484375 198.333007812 l 1
 153.96484375 198.333007812 l 1
860.6328125 798.333007812 m 2
 879.029296875 798.333007812 893.96484375 783.396484375 893.96484375 765 c 2
 893.96484375 467.666015625 l 2
 893.966796875 467.482421875 894.03515625 467.348632812 894.03515625 467.1640625 c 0
 894.03515625 444.024414062 882.220703125 423.622070312 864.298828125 411.666015625 c 2
 693.96484375 298.333007812 l 1
 693.96484375 31.666015625 l 2
 693.96484375 13.26953125 679.029296875 -1.6669921875 660.6328125 -1.6669921875 c 2
 477.298828125 -1.6669921875 l 1
 360.6328125 115 l 1
 400.6328125 155 l 1
 350.6328125 205.333007812 l 1
 309.96484375 164.666015625 l 1
 260.6328125 214 l 1
 300.6328125 254.666015625 l 1
 250.6328125 304.666015625 l 1
 210.6328125 261.666015625 l 1
 93.96484375 382 l 1
 93.96484375 565.333007812 l 2
 93.96484375 583.73046875 108.90234375 598.666015625 127.298828125 598.666015625 c 2
 393.96484375 598.666015625 l 1
 507.298828125 768.666015625 l 2
 519.255859375 786.586914062 539.61328125 798.333007812 562.751953125 798.333007812 c 2
 562.96484375 798.333007812 l 1
 860.6328125 798.333007812 l 2
693.96484375 498.333007812 m 0
 749.15625 498.333007812 793.96484375 543.141601562 793.96484375 598.333007812 c 0
 793.96484375 653.524414062 749.15625 698.333007812 693.96484375 698.333007812 c 0
 638.7734375 698.333007812 593.96484375 653.524414062 593.96484375 598.333007812 c 0
 593.96484375 543.141601562 638.7734375 498.333007812 693.96484375 498.333007812 c 0
EndSplineSet
Validated: 1
EndChar

StartChar: azuredevops
Encoding: 59668 59668 24
Width: 1000
Flags: MW
VStem: 100 98.8662<280 507.666 507.666 507.666> 700.767 199.233<191.6 623.066 623.066 623.066>
LayerCount: 2
Fore
SplineSet
100 507.666015625 m 1
 174.900390625 606.56640625 l 1
 455.06640625 720.432617188 l 1
 455.06640625 802.833007812 l 1
 700.733398438 623.06640625 l 1
 198.866210938 525.6328125 l 1
 198.866210938 251.466796875 l 1
 100 280 l 1
 100 507.666015625 l 1
900 656 m 1
 900 167.6328125 l 1
 708.233398438 4.2998046875 l 1
 398.133789062 106.200195312 l 1
 398.133789062 4.3330078125 l 1
 198.866210938 251.533203125 l 1
 700.766601562 191.599609375 l 1
 700.766601562 623.06640625 l 1
 900 656 l 1
EndSplineSet
Validated: 5
EndChar

StartChar: buildkite
Encoding: 59669 59669 25
Width: 1000
Flags: MW
VStem: 100 12.9004<300.005 557.104 300.005 557.146 300.005 559.457>
LayerCount: 2
Fore
SplineSet
887.099609375 428.571289062 m 1
 631.5 557.104492188 l 1
 631.5 300.038085938 l 1
 887.099609375 428.538085938 l 1
 887.099609375 428.571289062 l 1
372.200195312 171.4375 m 1
 372.200195312 428.571289062 l 1
 112.900390625 557.104492188 l 1
 112.900390625 300.004882812 l 1
 372.233398438 171.4375 l 1
 372.200195312 171.4375 l 1
106.099609375 568.071289062 m 0
 108.061523438 569.305664062 110.381835938 570.01953125 112.868164062 570.01953125 c 0
 114.946289062 570.01953125 116.93359375 569.521484375 118.666992188 568.637695312 c 2
 372.200195312 442.9375 l 1
 625.766601562 568.637695312 l 2
 627.499023438 569.505859375 629.453125 569.995117188 631.520507812 569.995117188 c 0
 633.588867188 569.995117188 635.568359375 569.505859375 637.299804688 568.637695312 c 2
 892.900390625 440.071289062 l 2
 897.115234375 437.958007812 899.999023438 433.603515625 900 428.571289062 c 2
 900 171.571289062 l 2
 899.99609375 166.530273438 897.115234375 162.16796875 892.900390625 160.038085938 c 2
 637.299804688 31.37109375 l 2
 635.565429688 30.509765625 633.611328125 30.025390625 631.544921875 30.025390625 c 0
 624.427734375 30.025390625 618.62890625 35.767578125 618.56640625 42.87109375 c 2
 618.56640625 279.204101562 l 1
 377.93359375 159.87109375 l 2
 376.205078125 159.02734375 374.263671875 158.553710938 372.211914062 158.553710938 c 0
 370.161132812 158.553710938 368.1953125 159.02734375 366.466796875 159.87109375 c 2
 107.166992188 288.471679688 l 2
 102.919921875 290.578125 100.008789062 294.948242188 100 300.004882812 c 2
 100 557.104492188 l 1
 100 557.146484375 l 2
 100 561.766601562 102.432617188 565.811523438 106.099609375 568.071289062 c 0
EndSplineSet
Validated: 5
EndChar

StartChar: gitpod
Encoding: 59670 59670 26
Width: 906
Flags: MW
VStem: 104.5 69.167<232.1 545.1 232.1 585.033 232.1 585.033> 243.9 200.733<272.767 388.667> 461.4 60.4658<272.767 353.533 272.767 388.667 272.767 388.667> 732.533 68.9668<232.1 473.434 473.434 473.434>
LayerCount: 2
Fore
SplineSet
252.400390625 519.033203125 m 1
 453.033203125 634.766601562 l 1
 653.766601562 519.099609375 l 1
 453 403.233398438 l 1
 252.400390625 519.033203125 l 1
444.633789062 388.666992188 m 1
 444.633789062 157.766601562 l 1
 243.900390625 272.766601562 l 1
 243.900390625 504.56640625 l 1
 444.633789062 388.666992188 l 1
182.166992188 559.599609375 m 1
 112.866210938 599.599609375 l 1
 453 796 l 1
 793.166992188 599.533203125 l 1
 724.033203125 559.666992188 l 1
 453 715.833007812 l 1
 182.166992188 559.599609375 l 1
444.633789062 76.900390625 m 1
 444.666992188 -4 l 1
 104.5 192.366210938 l 1
 104.5 585.033203125 l 1
 173.666992188 545.099609375 l 1
 173.666992188 232.099609375 l 1
 444.633789062 76.900390625 l 1
461.400390625 388.666992188 m 1
 801.5 585 l 1
 801.5 192.333007812 l 1
 461.400390625 -4 l 1
 461.400390625 76.900390625 l 1
 732.533203125 232.099609375 l 1
 732.533203125 473.43359375 l 1
 521.866210938 353.533203125 l 1
 521.866210938 272.766601562 l 1
 662.333007812 352.700195312 l 1
 662.333007812 272.799804688 l 1
 461.400390625 157.799804688 l 1
 461.400390625 388.666992188 l 1
EndSplineSet
Validated: 1
EndChar

StartChar: codecov
Encoding: 59671 59671 27
Width: 956
Flags: MW
HStem: 365.166 87.7334<686.732 698.833> 680.635 87.4512<479.542 522.243>
VStem: 418.539 88.3271<176.45 192.229>
LayerCount: 2
Fore
SplineSet
478.19921875 768 m 0
 478.709960938 768.001953125 479.286132812 768.0859375 479.797851562 768.0859375 c 0
 589.48046875 768.0859375 688.879882812 723.703125 760.999023438 651.932617188 c 0
 833.251953125 580.756835938 878.000976562 481.794921875 878.000976562 372.461914062 c 0
 878.000976562 372.029296875 878.000976562 371.59765625 877.999023438 371.166015625 c 2
 877.999023438 370.166015625 l 1
 809.965820312 330.599609375 l 1
 809.06640625 331.233398438 l 2
 777.421875 352.75390625 739.1015625 365.452148438 697.983398438 365.452148438 c 0
 696.451171875 365.452148438 694.922851562 365.434570312 693.399414062 365.399414062 c 2
 686.732421875 365.166015625 l 2
 585.866210938 359.1328125 506.866210938 275.6328125 506.866210938 175.099609375 c 0
 506.866210938 175.041015625 506.978515625 174.795898438 506.978515625 174.737304688 c 0
 506.978515625 143.650390625 514.649414062 114.340820312 528.19921875 88.599609375 c 2
 528.399414062 88.166015625 l 1
 528.399414062 87.666015625 l 2
 525.866210938 60.7666015625 496.19921875 15.8994140625 484.232421875 1.7666015625 c 2
 482.833007812 0.099609375 l 1
 481.465820312 1.7998046875 l 2
 451.465820312 39.3994140625 431.333007812 81.599609375 423.298828125 123.799804688 c 0
 422.499023438 128 421.833007812 132.166015625 421.232421875 136.399414062 c 2
 420.798828125 139.833007812 l 1
 420.6328125 141.233398438 l 2
 420.084960938 145.796875 419.620117188 150.35546875 419.232421875 154.966796875 c 1
 419.298828125 153.733398438 l 1
 418.956054688 158.54296875 418.704101562 163.244140625 418.532226562 168.099609375 c 2
 418.532226562 171.833007812 l 1
 418.532226562 171.599609375 l 1
 418.490234375 173.55859375 418.5390625 175.465820312 418.5390625 177.434570312 c 0
 418.5390625 207.024414062 423.337890625 235.502929688 432.19921875 262.1328125 c 2
 432.765625 263.899414062 l 2
 436.866210938 276.06640625 441.765625 288 447.432617188 299.333007812 c 2
 447.965820312 300.299804688 l 2
 450.43359375 305.168945312 453.043945312 309.987304688 455.765625 314.700195312 c 2
 457.765625 318.166015625 l 2
 461.465820312 324.266601562 464.432617188 328.899414062 467.366210938 333.233398438 c 0
 471.376953125 339.01171875 475.540039062 344.55078125 479.965820312 350 c 2
 482.465820312 353.06640625 l 1
 482.833007812 353.533203125 l 2
 502.734375 377.424804688 526.249023438 397.5390625 553.099609375 413.533203125 c 2
 554.265625 414.266601562 l 2
 559.765625 417.466796875 564.866210938 420.266601562 569.932617188 422.799804688 c 2
 570.833007812 423.233398438 l 2
 582.232421875 428.966796875 594.032226562 433.899414062 605.833007812 437.899414062 c 2
 606.833007812 438.233398438 l 2
 612.09375 439.959960938 617.55078125 441.587890625 622.932617188 443.033203125 c 2
 627.532226562 444.166015625 l 2
 631.81640625 445.262695312 636.236328125 446.278320312 640.599609375 447.166015625 c 0
 642.465820312 447.533203125 644.366210938 447.93359375 646.265625 448.266601562 c 0
 650.551757812 449.033203125 654.913085938 449.705078125 659.265625 450.266601562 c 2
 660.666015625 450.466796875 l 1
 659.166015625 450.299804688 l 1
 670.366210938 451.799804688 681.833007812 452.700195312 693.69921875 452.899414062 c 2
 698.833007812 452.899414062 l 2
 698.895507812 452.899414062 698.958007812 452.841796875 699.021484375 452.841796875 c 0
 727.9453125 452.841796875 755.849609375 448.438476562 782.099609375 440.266601562 c 1
 768.872070312 498.1015625 739.334960938 549.936523438 698.499023438 590.200195312 c 0
 642.362304688 646.1015625 564.944335938 680.634765625 479.541015625 680.634765625 c 0
 479.193359375 680.634765625 478.846679688 680.633789062 478.499023438 680.6328125 c 0
 331.19921875 680.533203125 206.465820312 581.6328125 174.06640625 439.766601562 c 1
 172.06640625 439.233398438 l 1
 198.924804688 447.612304688 227.23828125 452.19140625 256.841796875 452.19140625 c 0
 274.326171875 452.19140625 291.4453125 450.616210938 308.06640625 447.599609375 c 2
 309.798828125 447.333007812 l 2
 357.725585938 438.469726562 401.755859375 417.198242188 437.666015625 387.099609375 c 2
 446.06640625 380.06640625 l 1
 439.232421875 371.5 l 2
 435.099609375 366.299804688 431.499023438 361.43359375 428.166015625 356.6328125 c 0
 419.965820312 344.666015625 412.56640625 331.533203125 406.166015625 317.533203125 c 2
 399.56640625 303.06640625 l 1
 387.899414062 313.93359375 l 1
 388.032226562 313.866210938 l 1
 361.922851562 338.076171875 328.76171875 355.046875 292.232421875 361.533203125 c 1
 293.432617188 361.333007812 l 1
 281.69921875 363.533203125 269.599609375 364.666015625 257.265625 364.666015625 c 0
 257.077148438 364.666992188 256.708984375 364.555664062 256.51953125 364.555664062 c 0
 215.897460938 364.555664062 178.17578125 352.043945312 146.999023438 330.666015625 c 2
 146.06640625 330.06640625 l 1
 77.9990234375 369.733398438 l 1
 77.9990234375 370.733398438 l 2
 78.166015625 589.666015625 257.69921875 767.833007812 478.19921875 768 c 0
EndSplineSet
Validated: 5
EndChar

StartChar: dependabot
Encoding: 59672 59672 28
Width: 962
Flags: MW
HStem: -1.36133 224.958<474.647 487.549> 323.615 62.4521<367.127 390.759> 523.606 25<464.365 506.033 464.365 506.033> 623.606 174.954<462.066 487.418 474.516 487.418 474.516 522.699>
VStem: 106.02 150.006<304.631 306.933 306.933 390.267 304.631 530.739> 106.02 175.006<266.46 298.597 398.6 498.603> 681.039 175.008<255.68 266.463 266.463 298.597 298.597 298.597 398.6 498.603 498.603 505.501> 706.039 150.008<306.93 390.263 390.263 390.267 390.267 392.566>
LayerCount: 2
Fore
SplineSet
446 788.146484375 m 2xf8
 456.05078125 794.73046875 468.064453125 798.560546875 480.966796875 798.560546875 c 0xf8
 493.869140625 798.560546875 506.015625 794.73046875 516.06640625 788.146484375 c 2
 827.1796875 584.206054688 l 2
 845.212890625 572.40625 856.046875 552.306640625 856.046875 530.739257812 c 2xf9
 856.046875 266.462890625 l 2
 856.046875 244.896484375 845.1796875 224.795898438 827.1796875 212.99609375 c 2
 516.06640625 9.052734375 l 2
 506.015625 2.46875 494 -1.361328125 481.09765625 -1.361328125 c 0
 468.197265625 -1.361328125 456.05078125 2.46875 446 9.052734375 c 2
 134.88671875 212.993164062 l 2
 117.46875 224.404296875 105.953125 244.094726562 105.953125 266.454101562 c 1
 106.01953125 266.459960938 l 1xf6
 106.01953125 530.739257812 l 2
 106.01953125 552.306640625 116.88671875 572.40625 134.88671875 584.206054688 c 2
 446 788.146484375 l 2xf8
506.033203125 548.606445312 m 1
 506.033203125 523.606445312 l 1
 306.025390625 523.606445312 l 2
 292.228515625 523.606445312 281.025390625 512.400390625 281.025390625 498.602539062 c 2
 281.025390625 398.599609375 l 1xf6
 264.359375 398.599609375 l 2
 259.759765625 398.599609375 256.025390625 394.865234375 256.025390625 390.266601562 c 2
 256.025390625 306.932617188 l 2xf8
 256.025390625 302.330078125 259.759765625 298.596679688 264.359375 298.596679688 c 2
 281.025390625 298.596679688 l 1
 281.025390625 248.596679688 l 2
 281.025390625 234.762695312 292.2265625 223.596679688 306.025390625 223.596679688 c 2
 656.0390625 223.596679688 l 2
 669.837890625 223.596679688 681.0390625 234.798828125 681.0390625 248.596679688 c 2
 681.0390625 298.596679688 l 1xf6
 697.705078125 298.596679688 l 2
 702.3046875 298.596679688 706.0390625 302.330078125 706.0390625 306.9296875 c 2
 706.0390625 390.262695312 l 1
 706.0390625 390.266601562 l 2xf1
 706.0390625 394.865234375 702.3046875 398.599609375 697.705078125 398.599609375 c 2
 681.0390625 398.599609375 l 1
 681.0390625 498.602539062 l 2xf2
 681.0390625 512.400390625 669.837890625 523.602539062 656.0390625 523.602539062 c 2
 531.033203125 523.602539062 l 1
 531.033203125 615.272460938 l 2
 531.033203125 619.872070312 527.298828125 623.606445312 522.69921875 623.606445312 c 2
 464.365234375 623.606445312 l 2
 459.767578125 623.606445312 456.033203125 619.872070312 456.033203125 615.272460938 c 2
 456.033203125 556.939453125 l 2
 456.033203125 552.33984375 459.765625 548.606445312 464.365234375 548.606445312 c 2
 506.033203125 548.606445312 l 1
615.5703125 378.965820312 m 2
 563.169921875 326.56640625 l 2
 561.341796875 324.743164062 558.8203125 323.615234375 556.037109375 323.615234375 c 0
 553.25390625 323.615234375 550.73046875 324.743164062 548.90234375 326.56640625 c 2
 517.3359375 358.1328125 l 2
 515.513671875 359.9609375 514.384765625 362.482421875 514.384765625 365.264648438 c 0
 514.384765625 368.047851562 515.513671875 370.572265625 517.3359375 372.399414062 c 2
 528.0703125 383.1328125 l 2
 529.896484375 384.956054688 532.41796875 386.083984375 535.201171875 386.083984375 c 0
 537.984375 386.083984375 540.5078125 384.956054688 542.3359375 383.1328125 c 2
 556.001953125 369.432617188 l 1
 590.5703125 403.965820312 l 2
 592.396484375 405.7890625 594.91796875 406.916992188 597.701171875 406.916992188 c 0
 600.484375 406.916992188 603.0078125 405.7890625 604.8359375 403.965820312 c 2
 615.5703125 393.233398438 l 2
 617.392578125 391.405273438 618.51953125 388.883789062 618.51953125 386.100585938 c 0
 618.51953125 383.318359375 617.392578125 380.793945312 615.5703125 378.965820312 c 2
396.5 326.599609375 m 2
 394.671875 324.776367188 392.150390625 323.615234375 389.3671875 323.615234375 c 0
 386.583984375 323.615234375 384.060546875 324.743164062 382.232421875 326.56640625 c 2
 350.6328125 358.1328125 l 2
 348.80078125 359.956054688 347.66796875 362.479492188 347.66796875 365.264648438 c 0
 347.66796875 368.05078125 348.80078125 370.576171875 350.6328125 372.399414062 c 2
 361.3984375 383.1328125 l 2
 363.224609375 384.946289062 365.740234375 386.067382812 368.513671875 386.067382812 c 0
 371.2890625 386.067382812 373.806640625 384.946289062 375.6328125 383.1328125 c 2
 389.365234375 369.432617188 l 1
 423.8984375 404 l 2
 425.724609375 405.813476562 428.240234375 406.93359375 431.013671875 406.93359375 c 0
 433.7890625 406.93359375 436.306640625 405.813476562 438.1328125 404 c 2
 448.8984375 393.266601562 l 2
 450.72265625 391.438476562 451.849609375 388.916992188 451.849609375 386.134765625 c 0
 451.849609375 383.3515625 450.72265625 380.827148438 448.8984375 379 c 2
 396.5 326.599609375 l 2
EndSplineSet
Validated: 1
EndChar

StartChar: vercel
Encoding: 59673 59673 29
Width: 902
Flags: W
HStem: 0 21G<51 851>
LayerCount: 2
Fore
SplineSet
851 0 m 1
 51 0 l 1
 451 701.666015625 l 1
 851 0 l 1
EndSplineSet
Validated: 1
EndChar

StartChar: launchpad
Encoding: 59674 59674 30
Width: 896
Flags: MW
VStem: 88.667 147.733<307.966 492.133 307.966 577.366 307.966 577.366> 659.7 147.666<308.066 492.133 492.133 492.133>
LayerCount: 2
Fore
SplineSet
781.299804688 177.56640625 m 1
 474.133789062 0.099609375 l 1
 474.133789062 170.6328125 l 1
 633.56640625 262.766601562 l 1
 781.299804688 177.56640625 l 1
421.866210938 0.099609375 m 1
 114.700195312 177.56640625 l 1
 262.366210938 262.799804688 l 1
 421.866210938 170.733398438 l 1
 421.866210938 0.099609375 l 1
447.833007812 215.932617188 m 1
 447.900390625 215.965820312 l 1
 288.533203125 308 l 1
 288.533203125 492.233398438 l 1
 447.966796875 584.233398438 l 1
 607.466796875 492.233398438 l 1
 607.466796875 308.099609375 l 1
 447.833007812 215.932617188 l 1
88.6669921875 577.366210938 m 1
 88.6337890625 577.432617188 l 1
 236.400390625 492.1328125 l 1
 236.400390625 307.965820312 l 1
 88.6669921875 222.666015625 l 1
 88.6669921875 577.366210938 l 1
742.5 540 m 1
 807.366210938 577.5 l 1
 807.366210938 222.766601562 l 1
 659.700195312 308.06640625 l 1
 659.700195312 492.1328125 l 1
 742.5 540 l 1
114.700195312 622.6328125 m 1
 421.900390625 800 l 1
 421.900390625 629.399414062 l 1
 262.533203125 537.333007812 l 1
 114.700195312 622.6328125 l 1
633.56640625 537.333007812 m 1
 474.06640625 629.399414062 l 1
 474.06640625 800.099609375 l 1
 781.366210938 622.6328125 l 1
 633.56640625 537.333007812 l 1
EndSplineSet
Validated: 5
EndChar

StartChar: gitea
Encoding: 59675 59675 31
Width: 906
Flags: HMW
HStem: 54.4668 68.2715 164.508 45.3662<537.136 542.356 537.136 548.275> 200.496 45.5039<461.669 461.669 461.669 465.438> 486.566 61.0664<189.186 205.103 189.186 208.803>
VStem: 439.071 45.3242<220.695 224.113> 519.311 45.4004<180.943 188.384> 549.235 303.767<412.333 484.866 412.333 533.1 412.333 533.1> 568.702 17.9336
LayerCount: 2
Fore
SplineSet
197 493.06640625 m 4x9a
 205.233398438 493.06640625 212.366210938 492.400390625 218.599609375 492.033203125 c 4
 238.200195312 490.233398438 418.166015625 481.233398438 418.166015625 481.233398438 c 5
 418.166015625 481.233398438 494.766601562 477.900390625 531.666015625 478.43359375 c 5
 531.666015625 478.43359375 531.799804688 385.766601562 531.799804688 339.43359375 c 5
 552.932617188 329.400390625 l 5
 552.932617188 478.533203125 l 5
 569.599609375 478.666992188 586.399414062 479.06640625 603.333007812 479.43359375 c 4
 680.56640625 481.233398438 829.733398438 489.633789062 829.733398438 489.633789062 c 5
 829.733398438 489.633789062 836.733398438 489.733398438 841.932617188 484.533203125 c 4
 844.466796875 481.966796875 855.299804688 474.233398438 856.69921875 430.299804688 c 4
 856.69921875 285.233398438 786.466796875 136.200195312 786.466796875 136.200195312 c 6
 781.366210938 124.900390625 775.533203125 112.93359375 768.533203125 100.599609375 c 4
 745.599609375 60.5 729.19921875 42.93359375 729.19921875 42.93359375 c 5
 729.19921875 42.93359375 713.266601562 23.966796875 695.432617188 13.1669921875 c 4
 674.69921875 -0.099609375 659.432617188 0.033203125 659.432617188 0.033203125 c 5
 659.432617188 0.033203125 499.233398438 -0.099609375 419.033203125 -0.099609375 c 4
 387.233398438 3.8662109375 354.533203125 36.7001953125 322.700195312 78.7998046875 c 4
 299.166015625 112.666992188 283.766601562 149.43359375 283.766601562 149.43359375 c 5
 283.766601562 149.43359375 158.299804688 147.799804688 100 219.166992188 c 4
 68.4326171875 255.200195312 61.8330078125 296.56640625 59.666015625 311.43359375 c 4
 57.8662109375 323.666992188 43.2666015625 404.833007812 100.533203125 455.900390625 c 4
 126.333007812 480.700195312 157.899414062 487.799804688 169 490.133789062 c 4
 179.5 492.400390625 188.766601562 493.06640625 197 493.06640625 c 4x9a
208.799804688 432 m 6
 201.833007812 432 186.233398438 431.533203125 173.06640625 428 c 4
 134.733398438 418.466796875 124.06640625 389.833007812 124.06640625 389.833007812 c 5
 124.06640625 389.833007812 104.833007812 355.5 125.833007812 299.233398438 c 4
 138.033203125 265.599609375 162.366210938 248.56640625 162.366210938 248.56640625 c 5
 162.366210938 248.56640625 176.333007812 235.56640625 209.333007812 224.766601562 c 4
 230.833007812 217.133789062 264.033203125 213.166992188 264.033203125 213.166992188 c 5
 264.033203125 213.166992188 241.666015625 274.93359375 232.5 312.099609375 c 4
 221.533203125 356.366210938 212.5 432 212.5 432 c 5
 208.799804688 432 l 6
486.466796875 346.866210938 m 4
 482.317382812 346.84375 478.350585938 345.918945312 474.799804688 344.299804688 c 4
 465.366210938 340.06640625 459.266601562 327.733398438 459.266601562 327.733398438 c 5
 390.166015625 185.333007812 l 5
 390.166015625 185.333007812 383.932617188 172.633789062 386.69921875 162.299804688 c 4
 389.1328125 149.700195312 403.033203125 142.43359375 403.033203125 142.43359375 c 5
 546.69921875 72.43359375 l 5
 553.432617188 69.7666015625 l 6
 556.756835938 68.7353515625 560.2578125 68.171875 563.918945312 68.171875 c 4
 564.797851562 68.171875 565.669921875 68.2041015625 566.533203125 68.2666015625 c 4
 583.733398438 69.400390625 591.466796875 87.8662109375 591.466796875 87.8662109375 c 5
 591.466796875 87.8662109375 653.466796875 212.200195312 661.466796875 231.766601562 c 4
 663.1328125 235.866210938 666.19921875 244.266601562 663.766601562 253.666992188 c 4
 660.333007812 267.033203125 644.333007812 274.299804688 644.333007812 274.299804688 c 5
 548 321 l 5
 530.799804688 285.599609375 l 6
 532.961914062 283.315429688 534.651367188 280.587890625 535.733398438 277.56640625 c 4
 537.1328125 273.766601562 537.1328125 268.56640625 537.1328125 268.56640625 c 5
 537.1328125 268.56640625 558.766601562 259.266601562 574.333007812 249.233398438 c 5
 574.333007812 249.233398438 587.166015625 242.466796875 590.333007812 227.966796875 c 4
 594.166015625 213.966796875 588.06640625 203.033203125 586.899414062 200.833007812 c 6
 586.899414062 200.833007812 576.06640625 175.400390625 569.733398438 162.166992188 c 4
 567.299804688 157.200195312 565.033203125 152.5 562.599609375 147.799804688 c 5
 566.206054688 143.78125 568.408203125 138.4609375 568.408203125 132.640625 c 4
 568.408203125 120.112304688 558.236328125 109.94140625 545.708007812 109.94140625 c 4
 533.1796875 109.94140625 523.0078125 120.112304688 523.0078125 132.640625 c 4
 523.0078125 134.994140625 523.3671875 137.264648438 524.033203125 139.400390625 c 4
 527.046875 148.6328125 535.716796875 155.307617188 545.950195312 155.307617188 c 4xdd
 546.15625 155.307617188 546.361328125 155.305664062 546.56640625 155.299804688 c 6
 546.56640625 155.299804688 567.06640625 197.299804688 569.966796875 206.966796875 c 6
 569.966796875 206.966796875 574.833007812 218.93359375 572.399414062 225.93359375 c 4
 570.115234375 229.875 566.842773438 233.102539062 562.866210938 235.333007812 c 4
 552.036132812 241.697265625 540.657226562 247.439453125 529 252.400390625 c 4
 526.43359375 250.233398438 523.338867188 248.640625 519.966796875 247.833007812 c 4
 518.118164062 247.334960938 516.204101562 247.065429688 514.19921875 247.065429688 c 4
 513.479492188 247.065429688 512.768554688 247.099609375 512.06640625 247.166992188 c 6
 481.533203125 184.700195312 l 5
 485.598632812 180.560546875 488.092773438 174.86328125 488.092773438 168.609375 c 4
 488.092773438 163.6484375 486.514648438 159.053710938 483.833007812 155.299804688 c 4
 479.672851562 149.600585938 472.930664062 145.9296875 465.340820312 145.9296875 c 4
 461.59375 145.9296875 458.055664062 146.833007812 454.932617188 148.43359375 c 4
 447.684570312 152.279296875 442.768554688 159.877929688 442.768554688 168.649414062 c 4
 442.768554688 170.443359375 442.975585938 172.190429688 443.366210938 173.866210938 c 4
 445.787109375 183.827148438 454.704101562 191.271484375 465.366210938 191.43359375 c 5xbd
 496.666015625 255.56640625 l 5
 493.473632812 259.494140625 491.565429688 264.541015625 491.565429688 269.9921875 c 4
 491.565429688 273.887695312 492.54296875 277.556640625 494.266601562 280.766601562 c 4
 498.13671875 287.907226562 505.676757812 292.736328125 514.36328125 292.736328125 c 4
 514.486328125 292.736328125 514.610351562 292.735351562 514.733398438 292.733398438 c 6
 532.366210938 328.56640625 l 5
 503.432617188 342.633789062 l 5
 503.432617188 342.633789062 495.1328125 346.766601562 486.466796875 346.866210938 c 4
EndSplineSet
Validated: 33
EndChar

StartChar: phabricator
Encoding: 59676 59676 32
Width: 950
Flags: HMW
HStem: 38 64.5254 596.09 64.1094<456.925 462.349 456.925 463.472>
VStem: 61.5811 153.432<339.392 354.287 313.17 358.892> 305.447 102.564<342.836 392.559> 339.648 68.3643<337.358 357.045> 509.815 73.1328 707.285 153.496
LayerCount: 2
Fore
SplineSet
410.860351562 455.93359375 m 0xf6
 419.626953125 459.466796875 427.09375 462.400390625 427.426757812 462.400390625 c 0
 428.959960938 462.466796875 435.793945312 456.233398438 452.02734375 440.133789062 c 2
 463.02734375 429.166992188 l 1
 473.52734375 429 l 1
 484.02734375 428.833984375 l 1
 489.860351562 435.033203125 l 2
 495.693359375 441.266601562 503.260742188 449.033203125 509.393554688 455.100585938 c 0
 513.52734375 459.166992188 516.793945312 461.900390625 517.52734375 461.900390625 c 0
 523.158203125 459.724609375 528.841796875 457.39453125 534.360351562 455 c 2
 550.59375 448.100585938 l 1
 550.926757812 446.8671875 l 2
 551.727539062 443.633789062 552.360351562 428.56640625 552.360351562 411.033203125 c 2
 552.360351562 400.06640625 l 1
 560.02734375 392.533203125 l 1
 567.693359375 385.033203125 l 1
 573.693359375 385.233398438 l 2
 579.5234375 385.391601562 584.748046875 385.47265625 590.615234375 385.47265625 c 0
 597.624023438 385.47265625 604.606445312 385.359375 611.560546875 385.133789062 c 0
 612.744140625 385.045898438 613.909179688 384.852539062 615.02734375 384.56640625 c 0
 617.677734375 379.143554688 620.184570312 373.52734375 622.459960938 367.900390625 c 2
 629.494140625 351.466796875 l 1
 628.293945312 349.799804688 l 2
 626.09375 346.766601562 620.959960938 341.299804688 608.693359375 329.100585938 c 2
 596.560546875 317.033203125 l 1
 596.693359375 306.56640625 l 1
 596.827148438 296.100585938 l 1
 598.393554688 294.600585938 l 1
 606.09375 287.43359375 l 2
 614.126953125 279.966796875 627.193359375 267.033203125 629.193359375 264.56640625 c 0
 629.853515625 263.840820312 630.39453125 263.010742188 630.793945312 262.100585938 c 0
 630.793945312 261.466796875 618.060546875 230.100585938 617.59375 229.633789062 c 0
 616.931640625 229.306640625 616.192382812 229.084960938 615.426757812 229 c 0
 612.827148438 228.600585938 589.494140625 228.400390625 578.494140625 228.700195312 c 2
 569.560546875 228.93359375 l 1
 562.126953125 221.533203125 l 1
 554.693359375 214.166992188 l 1
 555.16015625 204.43359375 l 2
 555.994140625 186.56640625 556.09375 168.93359375 555.360351562 167.166992188 c 0
 555.16015625 166.633789062 552.626953125 165.533203125 538.860351562 160.033203125 c 0
 529.926757812 156.466796875 522.459960938 153.5 522.327148438 153.5 c 0
 521.193359375 153.5 514.52734375 159.666992188 500.193359375 173.833984375 c 2
 487.126953125 186.833984375 l 1
 476.459960938 187 l 1
 465.760742188 187.166992188 l 1
 463.426757812 184.533203125 l 2
 451.09375 171 433.926757812 154.06640625 432.560546875 154.06640625 c 0
 432.393554688 154.06640625 424.827148438 157.200195312 415.760742188 161 c 2
 399.260742188 168 l 1
 398.994140625 169.233398438 l 2
 398.227539062 172.8671875 397.626953125 188.100585938 397.626953125 204.8671875 c 2
 397.626953125 215.799804688 l 1
 390.09375 223.333984375 l 1
 382.626953125 230.8671875 l 1
 363.360351562 230.700195312 l 2
 344.926757812 230.56640625 337.693359375 230.700195312 335.360351562 231.3671875 c 0
 334.626953125 231.56640625 334.193359375 232.43359375 327.52734375 248.100585938 c 2
 320.52734375 264.600585938 l 1
 321.459960938 266 l 2
 323.327148438 268.700195312 327.959960938 273.56640625 340.626953125 286.200195312 c 2
 353.393554688 299 l 1xee
 353.293945312 309.43359375 l 1
 353.227539062 319.8671875 l 1
 351.327148438 321.600585938 l 1
 343.327148438 329.06640625 l 2
 335.626953125 336.266601562 321.760742188 350.033203125 320.327148438 352 c 0
 319.727539062 352.833984375 319.193359375 353.733398438 319.193359375 354 c 0
 319.193359375 354.400390625 327.52734375 375.200195312 331.52734375 384.733398438 c 0
 332.459960938 386.900390625 332.293945312 386.833984375 336.52734375 387.233398438 c 0
 343.65234375 387.405273438 350.149414062 387.490234375 357.315429688 387.490234375 c 0
 362.8984375 387.490234375 368.46875 387.438476562 374.02734375 387.333984375 c 2
 380.426757812 387.166992188 l 1
 387.860351562 394.466796875 l 1
 395.293945312 401.799804688 l 1
 394.793945312 411.633789062 l 2
 394.260742188 423.166992188 394.126953125 447.700195312 394.59375 448.833984375 c 0
 394.860351562 449.400390625 397.260742188 450.43359375 410.860351562 455.93359375 c 0xf6
479.626953125 358 m 0
 475.893554688 358.5 469.126953125 358.466796875 465.727539062 357.966796875 c 0
 462.069335938 357.426757812 458.452148438 356.512695312 455.060546875 355.299804688 c 0
 435.623046875 348.259765625 421.7578125 329.614257812 421.7578125 307.759765625 c 0xf6
 421.7578125 301.196289062 423.012695312 294.922851562 425.293945312 289.166992188 c 0
 432.116210938 272.508789062 447.493164062 260.260742188 465.926757812 257.799804688 c 0
 468.860351562 257.3671875 476.626953125 257.3671875 479.52734375 257.799804688 c 0
 501.038085938 260.698242188 518.396484375 276.96875 522.893554688 297.93359375 c 0
 523.727539062 301.900390625 524.060546875 309.833984375 523.560546875 314.033203125 c 0
 520.860351562 336.700195312 502.626953125 355 479.626953125 358 c 0
461.260742188 621.666992188 m 0
 465.221679688 621.758789062 468.6796875 621.840820312 472.662109375 621.840820312 c 0
 479.52734375 621.840820312 486.361328125 621.704101562 493.16015625 621.43359375 c 0
 512.296875 620.251953125 531.088867188 617.337890625 549.16015625 612.900390625 c 0
 601.748046875 599.950195312 649.262695312 573.482421875 687.327148438 537.3671875 c 0
 743.021484375 482.015625 797.233398438 427.650390625 852.426757812 371.799804688 c 0
 864.310546875 358.077148438 872.272460938 340.701171875 874.494140625 321.733398438 c 0
 875.16015625 316.5 875.16015625 305.06640625 874.52734375 299.833984375 c 0
 872.09375 280.766601562 864.459960938 263.5 852.426757812 249.766601562 c 0
 849.360351562 246.266601562 692.494140625 88.7998046875 686.66015625 83.400390625 c 0
 636.634765625 36.240234375 570.452148438 5.638671875 497.66015625 0.43359375 c 0
 490.08984375 -0.123046875 482.592773438 -0.3583984375 474.880859375 -0.3583984375 c 0
 395.62890625 -0.3583984375 323.3125 29.5712890625 268.626953125 78.7333984375 c 0
 259.293945312 87.1669921875 251.760742188 94.6337890625 200.494140625 146.100585938 c 0
 100.060546875 246.93359375 98.3935546875 248.600585938 95.3935546875 252.3671875 c 0
 84.4697265625 265.930664062 77.2353515625 282.780273438 75.3271484375 301.033203125 c 0
 74.8935546875 304.733398438 74.8935546875 316.8671875 75.3271484375 320.533203125 c 0
 77.400390625 340.122070312 85.5380859375 358.0625 97.7939453125 372.166992188 c 0
 100.09375 374.700195312 258.193359375 533.43359375 262.494140625 537.5 c 0
 290.58984375 564.1171875 323.609375 585.369140625 360.16015625 599.93359375 c 0
 391.5390625 612.448242188 425.822265625 620.106445312 461.260742188 621.666992188 c 0
488.59375 557.400390625 m 1
 488.66015625 557.400390625 l 1
 484.038085938 557.659179688 479.560546875 557.731445312 474.875 557.731445312 c 0
 448.96484375 557.731445312 423.985351562 553.713867188 400.52734375 546.266601562 c 0
 353.552734375 531.29296875 312.80078125 502.80078125 282.793945312 465.06640625 c 0
 255.122070312 430.453125 236.49609375 387.786132812 230.793945312 341.600585938 c 0
 229.500976562 331.370117188 228.758789062 321.217773438 228.758789062 310.639648438 c 0
 228.758789062 238.984375 259.329101562 174.413085938 308.126953125 129.266601562 c 0
 350.459960938 90.2001953125 402.327148438 68.033203125 460.459960938 64.1669921875 c 0
 470.66015625 63.43359375 487.260742188 63.7666015625 498.59375 64.833984375 c 0
 602.688476562 75.046875 688.096679688 150.231445312 713.360351562 249.166992188 c 0
 718.413085938 268.8984375 721.03125 289.596679688 721.03125 310.89453125 c 0
 721.03125 342.140625 715.247070312 372.046875 704.693359375 399.600585938 c 0
 684.094726562 452.98046875 645.922851562 497.192382812 596.860351562 525.400390625 c 0
 587.560546875 530.733398438 572.760742188 537.833984375 563.693359375 541.266601562 c 0
 538.827148438 550.733398438 513.727539062 556.06640625 488.59375 557.400390625 c 1
EndSplineSet
Validated: 33
EndChar

StartChar: uniE91D
Encoding: 59677 59677 33
Width: 942
Flags: HMW
HStem: 51.8672 1.5<71 871 71 71> 176.034 34.666<105.5 106.433 104.283 106.5 132.5 133.2 104.283 133.55> 226.4 47.9336 383.667 77.4668
VStem: 71 26.5996<167.351 169.101 167.351 274.367> 113.167 10.7666<167.351 169.101 167.351 169.217 217.484 219.617>
LayerCount: 2
Fore
SplineSet
871 51.8671875 m 1
 71 51.8671875 l 1
 71 53.3671875 l 1
 181.400390625 70.2001953125 312.200195312 97.7001953125 463.333007812 135.8671875 c 0
 625.599609375 176.8671875 761.5 218.8671875 871 262.067382812 c 1
 871 51.8671875 l 1
71 274.3671875 m 1
 93.7001953125 275.633789062 120 277.5 149.866210938 280 c 0
 212.666992188 285.233398438 291.533203125 293 386.533203125 303.133789062 c 0
 447.733398438 309.534179688 499 314.333984375 540.200195312 317.333984375 c 0
 581.333007812 320.333984375 613.56640625 322 637 322.333984375 c 0
 682.700195312 322 707.333007812 314.833984375 710.900390625 300.833984375 c 0
 714.900390625 284.733398438 690.299804688 264.93359375 636.900390625 241.5 c 0
 583.5 218 507.400390625 193.767578125 408.666992188 168.833984375 c 0
 308.200195312 143.466796875 195.599609375 121.600585938 71 103.267578125 c 1
 71 274.3671875 l 1
105.5 176.034179688 m 1
 106.099609375 175.600585938 l 1
 103.599609375 175.600585938 101.599609375 175.100585938 100.099609375 173.600585938 c 0
 98.599609375 172.100585938 97.599609375 170.100585938 97.599609375 168.100585938 c 0
 97.599609375 166.600585938 98.1337890625 165.600585938 98.1337890625 165.100585938 c 0
 98.466796875 164.100585938 99.033203125 163.100585938 99.7998046875 162.633789062 c 0
 100.5 161.966796875 101.299804688 161.3671875 102.299804688 160.966796875 c 0
 103.233398438 160.567382812 104.299804688 160.3671875 105.366210938 160.3671875 c 0
 107.366210938 160.3671875 109.266601562 161.067382812 110.833007812 162.567382812 c 0
 112.366210938 164.166992188 113.166992188 165.966796875 113.166992188 168.166992188 c 0
 113.166992188 170.267578125 112.366210938 172.166992188 110.833007812 173.700195312 c 0
 109.299804688 175.200195312 107.5 176.034179688 105.5 176.034179688 c 1
132.5 176.034179688 m 2
 131.400390625 175.600585938 l 2
 129.400390625 175.600585938 127.466796875 175.100585938 125.93359375 173.600585938 c 0
 124.400390625 172.100585938 123.93359375 170.100585938 123.93359375 168.100585938 c 0
 123.93359375 166.600585938 123.93359375 165.600585938 124.43359375 165.100585938 c 0
 124.93359375 164.100585938 125.43359375 163.100585938 126.43359375 162.633789062 c 0
 126.966796875 161.966796875 127.966796875 161.3671875 128.966796875 160.966796875 c 0
 129.966796875 160.567382812 130.966796875 160.3671875 131.966796875 160.3671875 c 0
 134.43359375 160.3671875 135.966796875 161.067382812 137.966796875 162.567382812 c 0
 139.466796875 164.166992188 140.200195312 165.966796875 140.200195312 168.166992188 c 0
 140.200195312 170.267578125 139.5 172.166992188 138 173.700195312 c 0
 136.400390625 175.200195312 134.599609375 176.034179688 132.5 176.034179688 c 2
105.5 226.3671875 m 2
 105 226.400390625 l 2
 103 226.400390625 100.93359375 225.633789062 99.466796875 224.133789062 c 0
 98 222.633789062 97.466796875 220.767578125 97.466796875 218.534179688 c 0
 97.466796875 216.43359375 98.2998046875 214.534179688 99.7998046875 213.034179688 c 0
 101.299804688 211.5 103.200195312 210.700195312 105.366210938 210.700195312 c 0
 107.5 210.700195312 109.299804688 211.534179688 110.833007812 213.034179688 c 0
 112.366210938 214.534179688 113.166992188 216.400390625 113.166992188 218.534179688 c 0
 113.166992188 220.700195312 112.366210938 222.534179688 110.833007812 224.034179688 c 0
 109.299804688 225.633789062 107.5 226.3671875 105.5 226.3671875 c 2
132.5 226.3671875 m 2
 131.400390625 226.400390625 l 2
 129.400390625 226.400390625 127.466796875 225.633789062 125.93359375 224.133789062 c 0
 124.400390625 222.633789062 123.93359375 220.767578125 123.93359375 218.534179688 c 0
 123.93359375 216.43359375 124.93359375 214.534179688 126.43359375 213.034179688 c 0
 127.966796875 211.5 129.5 210.700195312 131.966796875 210.700195312 c 0
 134.43359375 210.700195312 135.966796875 211.534179688 137.966796875 213.034179688 c 0
 139.466796875 214.534179688 140.200195312 216.400390625 140.200195312 218.534179688 c 0
 140.200195312 220.700195312 139.5 222.534179688 138 224.034179688 c 0
 136.400390625 225.633789062 134.599609375 226.3671875 132.5 226.3671875 c 2
871 590.400390625 m 1
 871 429.966796875 l 1
 816.5 426.633789062 748.333007812 420.733398438 666.400390625 412.166992188 c 0
 583.400390625 403.166992188 515.733398438 396.166992188 463.299804688 391.666992188 c 0
 410.766601562 386.666992188 372.866210938 384.133789062 349.633789062 383.666992188 c 0
 304.200195312 382.666992188 279.966796875 388.666992188 276.466796875 402.133789062 c 0
 272.966796875 417.133789062 299.966796875 437.133789062 357.966796875 461.133789062 c 0
 415.966796875 485.633789062 492.966796875 510.133789062 587.966796875 534.133789062 c 0
 671.466796875 555.133789062 765.966796875 573.633789062 870.966796875 589.133789062 c 1
 871 590.400390625 l 1
842.5 635.400390625 m 1
 734 615.233398438 621.599609375 590.400390625 505.366210938 561.067382812 c 0
 323.900390625 515.233398438 179.133789062 469.633789062 71 424.534179688 c 1
 71 635.3671875 l 1
 842.533203125 635.3671875 l 1
 842.5 635.400390625 l 1
EndSplineSet
Validated: 37
EndChar

StartChar: gmail
Encoding: 59678 59678 34
Width: 1000
Flags: MW
VStem: 100 181.833<54.4316 54.4648 54.4648 308.998 -0.101562 518.098> 718.167 181.833<39.3979 54.4648 54.4648 308.998 308.998 308.998>
LayerCount: 2
Fore
SplineSet
900 518.09765625 m 2
 900 54.46484375 l 2
 900 24.3310546875 875.599609375 -0.068359375 845.466796875 -0.068359375 c 2
 718.166992188 -0.068359375 l 1
 718.166992188 308.998046875 l 1
 500 145.331054688 l 1
 281.833007812 308.998046875 l 1
 281.833007812 -0.1015625 l 1
 154.533203125 -0.1015625 l 2
 124.435546875 -0.1015625 100 24.333984375 100 54.431640625 c 2
 100 54.46484375 l 1
 100 518.09765625 l 2
 100 585.53125 176.966796875 624.03125 230.900390625 583.564453125 c 2
 281.833007812 545.331054688 l 1
 500 381.731445312 l 1
 718.166992188 545.3984375 l 1
 769.099609375 583.564453125 l 2
 823 623.998046875 900 585.53125 900 518.09765625 c 2
EndSplineSet
Validated: 33
EndChar

StartChar: microsoftoutlook
Encoding: 59679 59679 35
Width: 942
Flags: MW
HStem: 2.66699 50<303.556 734 321 734 321 833.333> 152.667 67.333<270.333 271.333 270.333 321 270.333 437.667> 273.667 157.667<266.667 276.222> 327.667 50<496 621 496 621 671 771> 477.667 50<496 621 496 621 671 771> 485.667 67<263.778 283.667> 627.667 75<371 371 371 446 496 496 496 621 671 671 671 771>
VStem: 71 75<340.223 359.556 340.223 519.334> 209 124.667<347.445 356.334 346.334 357.223> 271.333 49.667<52.667 52.667 52.667 152.667> 321 50<552.667 627.667 552.667 667.667 552.667 672.556> 396 100<260 364.222> 446 50<551 627.667> 621 50<266.667 327.667 266.667 327.667 266.667 327.667 377.667 477.667 527.667 627.667> 771 50<391 477.667 477.667 477.667 527.667 627.667 627.667 627.667> 821 50<57 298.334 298.334 298.334>
LayerCount: 2
Fore
SplineSet
333.666992188 351.333984375 m 0xe384
 333.666992188 341.333984375 332.444335938 331.666992188 330 322.333984375 c 0
 327.778320312 313.22265625 324.111328125 305 319 297.666992188 c 0
 314.111328125 290.333984375 307.666992188 284.555664062 299.666992188 280.333984375 c 0
 291.444335938 275.889648438 281.77734375 273.666992188 270.666992188 273.666992188 c 0
 259.555664062 273.666992188 250.111328125 275.889648438 242.333007812 280.333984375 c 0
 234.555664062 285.000976562 228.22265625 291.111328125 223.333007812 298.666992188 c 0
 218.444335938 306 214.77734375 314.333984375 212.333007812 323.666992188 c 0
 210.111328125 333 209 342.555664062 209 352.333984375 c 0
 209 362.111328125 210.111328125 371.778320312 212.333007812 381.333984375 c 0
 214.555664062 390.889648438 218.333984375 399.333984375 223.666992188 406.666992188 c 0
 228.555664062 414.22265625 235.111328125 420.22265625 243.333007812 424.666992188 c 0
 251.333007812 429.111328125 261 431.333984375 272.333007812 431.333984375 c 0
 283.666015625 431.333984375 293.221679688 429.111328125 301 424.666992188 c 0
 308.778320312 420 315.111328125 413.889648438 320 406.333984375 c 0
 324.888671875 398.778320312 328.333007812 390.22265625 330.333007812 380.666992188 c 0
 332.555664062 371.111328125 333.666992188 361.333984375 333.666992188 351.333984375 c 0xe384
871 352.666992188 m 2xc705
 871 40 l 2
 871 29.7783203125 867.333007812 20.8896484375 860 13.333984375 c 0
 852.666992188 6.22265625 843.77734375 2.6669921875 833.333007812 2.6669921875 c 2
 308.666992188 2.6669921875 l 2
 298.444335938 2.6669921875 289.555664062 6.333984375 282 13.6669921875 c 0
 274.888671875 21 271.333007812 29.8896484375 271.333007812 40.333984375 c 2
 271.333007812 152.666992188 l 1xc745
 104.333007812 152.666992188 l 2
 95.22265625 152.666992188 87.4443359375 156 81 162.666992188 c 0
 74.3330078125 169.111328125 71 176.889648438 71 186 c 2
 71 519.333984375 l 2
 71 528.444335938 74.3330078125 536.22265625 81 542.666992188 c 0
 87.2216796875 549.333984375 95 552.666992188 104.333007812 552.666992188 c 2
 321 552.666992188 l 1
 321 667.666992188 l 2
 321 677.4453125 324.333007812 685.778320312 331 692.666992188 c 0
 337.666992188 699.333984375 346 702.666992188 356 702.666992188 c 2
 786 702.666992188 l 2
 795.778320312 702.666992188 804.111328125 699.333984375 811 692.666992188 c 0
 817.666992188 686 821 677.666992188 821 667.666992188 c 2xc725
 821 391 l 1xc706
 862.333007812 367 l 1
 862.666992188 367 l 2
 864.888671875 365.444335938 866.888671875 363.444335938 868.666992188 361 c 0
 870.22265625 358.333007812 871 355.555664062 871 352.666992188 c 2xc705
671 627.666992188 m 1
 671 527.666992188 l 1
 771 527.666992188 l 1
 771 627.666992188 l 1xcb06
 671 627.666992188 l 1
671 477.666992188 m 1
 671 377.666992188 l 1
 771 377.666992188 l 1xdb06
 771 477.666992188 l 1
 671 477.666992188 l 1
671 327.666992188 m 1
 671 266.666992188 l 1
 772.666992188 327.666992188 l 1
 671 327.666992188 l 1
496 627.666992188 m 1xcb0c
 496 527.666992188 l 1
 621 527.666992188 l 1
 621 627.666992188 l 1
 496 627.666992188 l 1xcb0c
496 477.666992188 m 1
 496 377.666992188 l 1
 621 377.666992188 l 1xdb14
 621 477.666992188 l 1
 496 477.666992188 l 1
496 327.666992188 m 1
 496 260 l 1xd30c
 576.333007812 210 l 1
 621 236.666992188 l 1
 621 327.666992188 l 1
 496 327.666992188 l 1
371 627.666992188 m 1xc72c
 371 552.666992188 l 1
 437.666992188 552.666992188 l 1
 442 552.333984375 l 1
 446 551 l 1
 446 627.666992188 l 1
 371 627.666992188 l 1xc72c
270.333007812 220 m 1
 290.333007812 220 308.111328125 223.333007812 323.666992188 230 c 0
 339.22265625 237.111328125 352.444335938 246.666992188 363.333007812 258.666992188 c 0
 374 270.888671875 382.111328125 285.111328125 387.666992188 301.333984375 c 0
 393.22265625 317.778320312 396 335.666992188 396 355 c 0xc714
 396 373.444335938 393.22265625 390.666992188 387.666992188 406.666992188 c 0
 382.333984375 422.4453125 374.444335938 436.22265625 364 448 c 0
 353.555664062 459.778320312 340.77734375 469 325.666992188 475.666992188 c 0
 310.555664062 482.333984375 293.333007812 485.666992188 274 485.666992188 c 0
 253.555664062 485.666992188 235.333007812 482.333984375 219.333007812 475.666992188 c 0
 203.555664062 469 190.22265625 459.555664062 179.333007812 447.333984375 c 0
 168.22265625 435.333984375 159.888671875 420.889648438 154.333007812 404 c 0
 148.77734375 387.555664062 146 369.4453125 146 349.666992188 c 0
 146 330.778320312 148.888671875 313.4453125 154.666992188 297.666992188 c 0
 160.444335938 281.666992188 168.666015625 268 179.333007812 256.666992188 c 0
 190 245.111328125 203 236.111328125 218.333007812 229.666992188 c 0
 233.666015625 223 251 219.666992188 270.333007812 219.666992188 c 1
 270.333007812 220 l 1
321 52.6669921875 m 1xc344
 734 52.6669921875 l 1
 471 216.666992188 l 1
 471 186 l 2
 471 176.889648438 467.666992188 169.111328125 461 162.666992188 c 0
 454.555664062 156 446.77734375 152.666992188 437.666992188 152.666992188 c 2
 321 152.666992188 l 1
 321 52.6669921875 l 1xc344
821 57 m 1xc305
 821 298.333984375 l 1
 624.333007812 180.333984375 l 1
 821 57 l 1xc305
EndSplineSet
Validated: 1
EndChar

StartChar: roundcube
Encoding: 59680 59680 36
Width: 964
Flags: MW
HStem: 772 23.333<407 553.667>
LayerCount: 2
Fore
SplineSet
745.333007812 508.666015625 m 0
 745.333007812 655.333007812 628.666992188 772 478.666992188 772 c 0
 335.333007812 772 215.333007812 655.333007812 215.333007812 508.666015625 c 0
 215.333007812 468.666015625 222 432 238.666992188 398.666015625 c 1
 208.666992188 415.333007812 l 1
 105.333007812 475.333007812 l 1
 195.333007812 528.666015625 l 1
 205.333007812 678.666015625 328.666992188 795.333007812 482 795.333007812 c 0
 635.333007812 795.333007812 758.666992188 678.666015625 768.666992188 528.666015625 c 1
 858.666992188 478.666015625 l 1
 745.333007812 412 l 1
 722 398.666015625 l 1
 735.333007812 432 745.333007812 468.666015625 745.333007812 508.666015625 c 0
85.3330078125 218.666015625 m 1
 85.3330078125 465.333007812 l 1
 472 242 l 1
 472 -4.6669921875 l 1
 85.3330078125 218.666015625 l 1
492 242 m 1
 878.666992188 465.333007812 l 1
 878.666992188 218.666015625 l 1
 492 -4.6669921875 l 1
 492 242 l 1
EndSplineSet
Validated: 1
EndChar

StartChar: protonmail
Encoding: 59681 59681 37
Width: 860
Flags: MW
HStem: 158.998 286.9<411.833 448.2>
VStem: 145.5 123.033<445.898 543.031 445.898 543.031 445.898 543.031> 591.533 122.967<445.898 542.998 542.998 542.998>
LayerCount: 2
Fore
SplineSet
430 118.764648438 m 1
 430 118.764648438 466.5 122.365234375 495.166992188 142.198242188 c 0
 523.733398438 162.131835938 714.5 298.53125 714.5 298.53125 c 1
 714.5 28.53125 l 1
 714.5 28.53125 712.866210938 -2.8681640625 678.333007812 -2.8681640625 c 2
 181.666992188 -2.8681640625 l 2
 147.099609375 -2.8681640625 145.5 28.5986328125 145.5 28.5986328125 c 1
 145.5 298.53125 l 1
 145.5 298.53125 336.166992188 162.131835938 364.833007812 142.264648438 c 0
 393.466796875 122.365234375 430 118.764648438 430 118.764648438 c 1
430 797.098632812 m 1
 430 797.03125 l 1
 430 797.03125 665.833007812 804.764648438 714.5 543.131835938 c 1
 714.5 364.797851562 l 1
 714.5 364.797851562 712.466796875 345.698242188 658.900390625 306.8984375 c 0
 605.200195312 268.098632812 466.333007812 158.998046875 430.06640625 158.998046875 c 0
 393.599609375 158.998046875 254.733398438 268.131835938 201.166992188 306.865234375 c 0
 147.5 345.631835938 145.5 364.698242188 145.5 364.698242188 c 1
 145.5 543.03125 l 1
 194.166992188 804.797851562 430 797.098632812 430 797.098632812 c 1
591.533203125 445.8984375 m 1
 591.533203125 542.998046875 l 1
 558.766601562 672.998046875 430 674.797851562 430 674.797851562 c 1
 430 674.797851562 301.333007812 673.03125 268.533203125 543.03125 c 1
 268.533203125 445.8984375 l 1
 591.533203125 445.8984375 l 1
EndSplineSet
Validated: 33
EndChar

StartChar: googlechrome
Encoding: 59682 59682 38
Width: 954
Flags: MW
HStem: -2 218.22<473.533 489.753 443.442 587.45> 252.533 290.934<436.857 517.143> 579.833 218.564<477 554.58 476.847 833.366 477 477>
VStem: 331.533 290.934<357.857 438.143> 659.032 217.968<381.497 423.667 287.55 427.77>
LayerCount: 2
Fore
SplineSet
477 798 m 1
 476.846679688 798.397460938 l 1
 632.313476562 798.397460938 767.182617188 709.513671875 833.366210938 579.833007812 c 1
 477 579.833007812 l 2
 384.059570312 579.831054688 307.30859375 509.748046875 296.5 419.700195312 c 1
 164.733398438 647.966796875 l 1
 238.033203125 739.43359375 350.666992188 798 477 798 c 1
141.366210938 615.666992188 m 1
 319.56640625 307.099609375 l 2
 350.950195312 252.63671875 409.782226562 216.219726562 477.1015625 216.219726562 c 0
 502.404296875 216.219726562 526.504882812 221.403320312 548.400390625 230.766601562 c 1
 416.6328125 2.533203125 l 1
 224.333007812 31.6337890625 77 197.599609375 77 398 c 0
 77 398.212890625 77.2431640625 398.825195312 77.2431640625 399.0390625 c 0
 77.2431640625 478.903320312 100.811523438 553.306640625 141.366210938 615.666992188 c 1
586.099609375 543.466796875 m 1
 849.733398438 543.466796875 l 1
 867.333007812 498.366210938 877 449.333007812 877 398 c 0
 877 177.099609375 697.900390625 -2 477 -2 c 0
 470.06640625 -2 463.166992188 -1.7998046875 456.299804688 -1.466796875 c 1
 634.43359375 307.099609375 l 1
 634.43359375 307.099609375 634.5 307.099609375 634.5 307.099609375 c 1
 634.5 307.099609375 634.43359375 307.133789062 634.43359375 307.133789062 c 1
 649.904296875 333.845703125 659.032226562 364.96484375 659.032226562 398.029296875 c 0
 659.032226562 457.510742188 630.362304688 510.348632812 586.099609375 543.466796875 c 1
477 252.533203125 m 0
 396.71484375 252.533203125 331.533203125 317.71484375 331.533203125 398 c 0
 331.533203125 478.28515625 396.71484375 543.466796875 477 543.466796875 c 0
 557.28515625 543.466796875 622.466796875 478.28515625 622.466796875 398 c 0
 622.466796875 317.71484375 557.28515625 252.533203125 477 252.533203125 c 0
EndSplineSet
Validated: 1
EndChar

StartChar: moozillafirefox
Encoding: 59683 59683 39
Width: 916
Flags: MW
HStem: 0 208.134
LayerCount: 2
Fore
SplineSet
352.13671875 557.099609375 m 1
 352.403320312 557.099609375 352.26953125 557.099609375 352.13671875 557.099609375 c 1
258.802734375 603.766601562 m 1
 259.002929688 603.766601562 258.903320312 603.766601562 258.802734375 603.766601562 c 1
817.26953125 531.733398438 m 0
 841.536132812 473.266601562 850.103515625 403.43359375 842.370117188 336.966796875 c 0
 841.802734375 331.966796875 841.302734375 327 840.63671875 322.033203125 c 0
 809.436523438 139.200195312 650.26953125 0 458.536132812 0 c 0
 244.436523438 0 70.8701171875 173.5 70.8701171875 387.599609375 c 2
 70.9033203125 389.599609375 l 1
 71.669921875 402.5 l 1
 71.736328125 403.633789062 l 2
 72.1884765625 411.150390625 72.9580078125 418.534179688 74.0361328125 425.866210938 c 0
 74.4033203125 428.900390625 74.8359375 431.93359375 75.26953125 434.93359375 c 0
 77.9365234375 454.466796875 81.5029296875 470.266601562 81.603515625 470.700195312 c 0
 91.15625 513.380859375 109.225585938 553.434570312 133.669921875 588.033203125 c 0
 144.502929688 603.5 156.603515625 618.033203125 169.8359375 631.466796875 c 0
 181.469726562 643.400390625 194.169921875 654.266601562 207.703125 663.93359375 c 0
 209.236328125 664.93359375 220.469726562 671.633789062 220.669921875 670.799804688 c 0
 219.802734375 657.366210938 218.736328125 593.166992188 234.069335938 573.700195312 c 1
 234.26953125 573.700195312 l 1
 256.802734375 599.033203125 287.76953125 627.666992188 327.603515625 645.799804688 c 1
 323.805664062 631.272460938 321.79296875 616.126953125 321.79296875 600.416015625 c 0
 321.79296875 583.3046875 324.19140625 566.749023438 328.669921875 551.06640625 c 0
 332.169921875 548.713867188 335.487304688 546.2109375 338.703125 543.5 c 0
 344.63671875 538.466796875 351.302734375 531.799804688 365.370117188 517.93359375 c 0
 391.63671875 492.033203125 459.103515625 465.200195312 459.26953125 462.033203125 c 0
 458.669921875 452.400390625 424.569335938 419.133789062 412.669921875 419.133789062 c 0
 302.403320312 419.133789062 284.502929688 352.466796875 284.502929688 352.466796875 c 1
 289.403320312 296.299804688 328.502929688 250.099609375 375.8359375 225.599609375 c 0
 381.573242188 222.661132812 387.62890625 220.044921875 393.76953125 217.866210938 c 0
 409.594726562 212.26171875 426.642578125 208.8515625 444.203125 208.133789062 c 0
 637.436523438 199.06640625 674.870117188 439.133789062 535.436523438 508.799804688 c 1
 571.103515625 515.033203125 608.203125 500.666992188 628.870117188 486.099609375 c 1
 612.383789062 514.8828125 589.232421875 538.8125 561.069335938 556.233398438 c 0
 557.077148438 558.719726562 552.981445312 561.068359375 548.802734375 563.266601562 c 2
 545.236328125 565.099609375 l 2
 542.63671875 566.400390625 539.969726562 567.633789062 537.302734375 568.833007812 c 0
 530.692382812 571.71484375 523.739257812 574.29296875 516.76953125 576.43359375 c 2
 513.603515625 577.43359375 l 2
 496.364257812 582.431640625 478.325195312 585.145507812 459.484375 585.145507812 c 0
 455.75390625 585.145507812 452.048828125 585.041015625 448.370117188 584.833007812 c 2
 446.13671875 584.666992188 l 2
 422.458984375 583.025390625 399.655273438 576.872070312 379.203125 567.233398438 c 0
 374.002929688 564.900390625 367.903320312 567.5 366.002929688 572.900390625 c 0
 365.603515625 573.974609375 365.37109375 575.134765625 365.37109375 576.348632812 c 0
 365.37109375 580.244140625 367.626953125 583.618164062 370.903320312 585.233398438 c 0
 394.321289062 596.329101562 420.500976562 603.266601562 447.736328125 604.799804688 c 1
 456.903320312 661.06640625 492.63671875 749.5 578.802734375 800 c 1
 578.63671875 799.733398438 l 1
 578.737304688 799.8046875 578.849609375 799.861328125 578.969726562 799.900390625 c 2
 579.169921875 799.93359375 l 2
 579.28125 799.96484375 579.3984375 799.982421875 579.51953125 799.982421875 c 0
 579.640625 799.982421875 579.758789062 799.96484375 579.870117188 799.93359375 c 0
 580.374023438 799.8828125 580.76953125 799.456054688 580.76953125 798.938476562 c 2
 580.76953125 798.93359375 l 2
 582.0859375 793.592773438 584.047851562 788.38671875 586.502929688 783.599609375 c 0
 587.844726562 780.876953125 589.295898438 778.19921875 590.8359375 775.599609375 c 0
 593.802734375 770.466796875 596.903320312 765.633789062 599.936523438 760.733398438 c 0
 660.669921875 664.833007812 735.002929688 620.766601562 778.802734375 511.5 c 1
 778.736328125 512.166992188 l 2
 773.936523438 544.166992188 761.302734375 587.06640625 739.502929688 629.833007812 c 1
 766.26953125 616 800.436523438 572.233398438 817.26953125 531.733398438 c 0
EndSplineSet
Validated: 37
EndChar

StartChar: microsoftedge
Encoding: 59684 59684 40
Width: 938
Flags: MW
HStem: 17 152<524.333 655.444> 611 188.333<276.778 467.667>
VStem: 69 212<236.111 408.333> 569 300<393.222 471>
LayerCount: 2
Fore
SplineSet
797.666992188 206 m 2
 800.77734375 206 803.555664062 204.666992188 806 202 c 0
 808.221679688 199.110351562 809.333007812 196.333007812 809.333007812 193.666015625 c 0
 809.333007812 190.999023438 808.111328125 187.333007812 805.666992188 182.666015625 c 2
 795 167.333007812 l 1
 780.666992188 149.666015625 l 1
 766 133 l 2
 761.333007812 127.444335938 757.111328125 122.77734375 753.333007812 119 c 2
 746 111.333007812 l 2
 733.111328125 99.5546875 718.22265625 87.9990234375 701.333007812 76.666015625 c 0
 684.444335938 65.3330078125 666.666992188 55.2216796875 648 46.3330078125 c 0
 628.888671875 37.4443359375 609.555664062 30.3330078125 590 25 c 0
 570.444335938 19.6669921875 551.888671875 17 534.333007812 17 c 0
 514.333007812 17 495.555664062 20.111328125 478 26.3330078125 c 0
 460.221679688 32.5546875 443.77734375 41.2216796875 428.666992188 52.3330078125 c 0
 413.555664062 63.4443359375 400 76.4443359375 388 91.3330078125 c 0
 376.221679688 106 366 122 357.333007812 139.333007812 c 0
 348.888671875 156.444335938 342.444335938 174.221679688 338 192.666015625 c 0
 333.555664062 211.110351562 331.333007812 229.666015625 331.333007812 248.333007812 c 0
 331.333007812 270.5546875 334.888671875 292.333007812 342 313.666015625 c 0
 349.333007812 335.221679688 359 355.221679688 371 373.666015625 c 1
 374.111328125 352.555664062 380.22265625 332.888671875 389.333007812 314.666015625 c 0
 398.444335938 296.444335938 409.77734375 279.77734375 423.333007812 264.666015625 c 0
 436.666015625 249.555664062 452 236.111328125 469.333007812 224.333007812 c 0
 486.666015625 212.333007812 504.888671875 202.333007812 524 194.333007812 c 0
 543.111328125 186.333007812 562.778320312 180.110351562 583 175.666015625 c 0
 603.444335938 171.221679688 623.444335938 169 643 169 c 0
 667.888671875 169 692.111328125 171.666992188 715.666992188 177 c 0
 739.22265625 182.110351562 762.111328125 190.110351562 784.333007812 201 c 2
 791 204.333007812 l 1
 797.666992188 206 l 2
281 248.333007812 m 0
 281 223.888671875 284 199.999023438 290 176.666015625 c 0
 296 153.110351562 304.666992188 130.555664062 316 109 c 0
 327.333007812 87.6669921875 341.111328125 68 357.333007812 50 c 0
 373.77734375 31.77734375 392.22265625 16.2216796875 412.666992188 3.3330078125 c 1
 380 7.77734375 348.888671875 16 319.333007812 28 c 0
 289.77734375 40.2216796875 262.22265625 55.4443359375 236.666992188 73.666015625 c 0
 211.111328125 92.1103515625 188 113.221679688 167.333007812 137 c 0
 146.888671875 160.77734375 129.333984375 186.666015625 114.666992188 214.666015625 c 0
 100 242.666015625 88.7783203125 272.221679688 81 303.333007812 c 0
 73 334.444335938 69 366.444335938 69 399.333007812 c 0
 69 417.333007812 72.5556640625 433.888671875 79.6669921875 449 c 0
 86.5556640625 464.110351562 95.77734375 477.77734375 107.333007812 490 c 0
 119.111328125 502.221679688 132.444335938 512.888671875 147.333007812 522 c 0
 162 530.888671875 177 538.221679688 192.333007812 544 c 0
 208.77734375 550 225.444335938 554.333007812 242.333007812 557 c 0
 259.666015625 559.666992188 276.888671875 561 294 561 c 0
 309.555664062 561 325.333007812 559.888671875 341.333007812 557.666015625 c 0
 357.333007812 554.999023438 372.888671875 551.110351562 388 546 c 0
 403.111328125 540.888671875 417.778320312 534.555664062 432 527 c 0
 446 519.221679688 458.888671875 510 470.666992188 499.333007812 c 1
 462.888671875 499.333007812 455.111328125 498.555664062 447.333007812 497 c 0
 440 495.444335938 432.77734375 492.888671875 425.666992188 489.333007812 c 1
 425.666992188 490 l 1
 411.666992188 483.77734375 398.333984375 475.5546875 385.666992188 465.333007812 c 0
 373 455.111328125 361.333984375 443.555664062 350.666992188 430.666015625 c 0
 340 417.77734375 330.333984375 403.77734375 321.666992188 388.666015625 c 0
 313.22265625 373.77734375 306 358.333007812 300 342.333007812 c 0
 294 326.5546875 289.333007812 310.5546875 286 294.333007812 c 0
 282.666992188 278.333007812 281 263 281 248.333007812 c 0
467.666992188 799.333007812 m 2
 505.444335938 799.333007812 542.444335938 795 578.666992188 786.333007812 c 0
 614.888671875 777.888671875 649 765.110351562 681 748 c 0
 712.778320312 730.888671875 741.888671875 709.444335938 768.333007812 683.666015625 c 0
 794.555664062 657.888671875 816.555664062 627.888671875 834.333007812 593.666015625 c 0
 845.22265625 572.77734375 853.666992188 551 859.666992188 528.333007812 c 0
 865.888671875 506.111328125 869 483 869 459 c 0
 869 439.221679688 866.444335938 420.333007812 861.333007812 402.333007812 c 0
 856 384.5546875 848.333007812 368.110351562 838.333007812 353 c 0
 828.333007812 337.888671875 816.111328125 324.333007812 801.666992188 312.333007812 c 0
 787.444335938 300.5546875 771.333007812 290.77734375 753.333007812 283 c 0
 741.333007812 277.666992188 729 273.666992188 716.333007812 271 c 0
 703.444335938 268.110351562 690.555664062 266.666015625 677.666992188 266.666015625 c 0
 668.333984375 266.666015625 657.555664062 266.999023438 645.333007812 267.666015625 c 0
 633.333007812 268.333007812 621.111328125 269.666015625 608.666992188 271.666015625 c 0
 596.444335938 273.888671875 584.77734375 277 573.666992188 281 c 0
 562.555664062 285.221679688 553.22265625 290.77734375 545.666992188 297.666015625 c 0
 543 299.666015625 540.444335938 302.333007812 538 305.666015625 c 0
 535.778320312 309.221679688 534.666992188 312.888671875 534.666992188 316.666015625 c 0
 534.666992188 319.999023438 536.444335938 323.888671875 540 328.333007812 c 0
 543.555664062 332.77734375 547.444335938 338.333007812 551.666992188 345 c 0
 556.111328125 351.221679688 560.111328125 358.77734375 563.666992188 367.666015625 c 0
 567.22265625 376.555664062 569 387.111328125 569 399.333007812 c 0
 569 422.888671875 564.555664062 444.666015625 555.666992188 464.666015625 c 0
 546.77734375 484.888671875 535 503.111328125 520.333007812 519.333007812 c 0
 505.666015625 535.77734375 488.77734375 550 469.666992188 562 c 0
 450.555664062 574.221679688 430.666992188 584.110351562 410 591.666015625 c 0
 391.333007812 598.333007812 372.22265625 603.221679688 352.666992188 606.333007812 c 0
 333.333984375 609.444335938 313.778320312 611 294 611 c 0
 259.555664062 611 225.555664062 606 192 596 c 0
 158.444335938 586 127.888671875 570.555664062 100.333007812 549.666015625 c 1
 116.111328125 588.333007812 136.22265625 623.110351562 160.666992188 654 c 0
 185.111328125 684.666992188 213.111328125 710.77734375 244.666992188 732.333007812 c 0
 276 753.888671875 310.444335938 770.444335938 348 782 c 0
 385.778320312 793.555664062 425.555664062 799.333007812 467.333007812 799.333007812 c 2
 467.666992188 799.333007812 l 2
EndSplineSet
Validated: 1
EndChar

StartChar: opera
Encoding: 59685 59685 41
Width: 924
Flags: MW
HStem: 0 52.833<458.8 597.6> 747.2 52.7998
VStem: 62 193.5<390.6 409.4 390.6 510.483> 675.634 186.366<340.733 459.25 340.733 473.7>
LayerCount: 2
Fore
SplineSet
330.366210938 625.400390625 m 1
 286.099609375 573.200195312 257.5 495.966796875 255.5 409.400390625 c 2
 255.5 390.599609375 l 2
 257.533203125 304 286.099609375 226.866210938 330.366210938 174.633789062 c 0
 387.733398438 100.099609375 473 52.8330078125 568.333007812 52.8330078125 c 0
 626.866210938 52.8330078125 681.666992188 70.7333984375 728.56640625 101.866210938 c 1
 657.966796875 38.466796875 564.466796875 0 462 0 c 0
 455.599609375 0 449.233398438 0.1337890625 443 0.466796875 c 0
 230.799804688 10.3662109375 62 185.466796875 62 400 c 0
 62 620.966796875 241.099609375 800 462 800 c 2
 463.5 800 l 2
 565.333007812 799.599609375 658.166992188 761.133789062 728.599609375 698.166992188 c 1
 681.666992188 729.166992188 626.900390625 747.200195312 568.266601562 747.200195312 c 0
 473 747.200195312 387.700195312 699.866210938 330.266601562 625.400390625 c 1
 330.366210938 625.400390625 l 1
862 400 m 0
 862 281.466796875 810.5 175.06640625 728.599609375 101.833007812 c 1
 626 51.8330078125 530.400390625 86.7998046875 498.733398438 108.666992188 c 1
 599.5 130.799804688 675.633789062 252.666992188 675.633789062 400 c 0
 675.633789062 547.400390625 599.533203125 669.166992188 498.733398438 691.333007812 c 1
 530.366210938 713.133789062 626 748.099609375 728.599609375 698.166992188 c 1
 810.5 625 862 518.5 862 400 c 0
EndSplineSet
Validated: 37
EndChar

StartChar: torbrowset
Encoding: 59686 59686 42
Width: 924
Flags: MW
HStem: -2 72.667<462 462 462 572.383> 119.333 72.6602<462.277 519.089 462.277 538.9> 240.333 73<462 462.333> 482.667 73<462 462 462 462.34> 604 72.667<462 462.34 462 538.9> 725.333 72.667<462 462>
VStem: 62 400<70.667 313.333 313.333 482.667> 547 72.667<398 398> 668.007 72.6602<398.277 455.089> 789.333 72.667<398 398>
LayerCount: 2
Fore
SplineSet
462 70.6669921875 m 1
 642.575195312 70.8505859375 789.149414062 217.424804688 789.333007812 398 c 0
 789.149414062 578.575195312 642.575195312 725.149414062 462 725.333007812 c 1
 462 676.666992188 l 1
 615.80078125 676.666992188 740.666992188 551.80078125 740.666992188 398 c 0
 740.666992188 244.19921875 615.80078125 119.333007812 462 119.333007812 c 1
 462 70.6669921875 l 1
462 240.333007812 m 1
 462 192 l 1
 462.11328125 192 462.220703125 191.993164062 462.333984375 191.993164062 c 0
 575.84375 191.993164062 668 284.149414062 668 397.66015625 c 2
 668 398 l 2
 668 398.11328125 668.006835938 398.220703125 668.006835938 398.333984375 c 0
 668.006835938 511.84375 575.850585938 604 462.33984375 604 c 2
 462 604 l 1
 462 555.666992188 l 1
 548.93359375 555.483398438 619.483398438 484.93359375 619.666992188 398 c 0
 619.483398438 311.06640625 548.93359375 240.516601562 462 240.333007812 c 1
462 482.666992188 m 1
 462 313.333007812 l 1
 462.333007812 313.333007812 l 2
 509.0625 313.333007812 547 351.271484375 547 398 c 0
 547 444.728515625 509.068359375 482.666992188 462.33984375 482.666992188 c 2
 462 482.666992188 l 1
62 398 m 0
 62 618.765625 241.234375 798 462 798 c 0
 682.765625 798 862 618.765625 862 398 c 0
 862 177.234375 682.765625 -2 462 -2 c 0
 241.234375 -2 62 177.234375 62 398 c 0
EndSplineSet
Validated: 1
EndChar

StartChar: googledrive
Encoding: 59687 59687 43
Width: 942
Flags: MW
HStem: 1.03418 230.966<71 204.366 71 218.767 352.1 737.667>
LayerCount: 2
Fore
SplineSet
218.766601562 1.0341796875 m 1
 352.099609375 232 l 1
 871 232 l 1
 737.666992188 1.0341796875 l 1
 218.766601562 1.0341796875 l 1
337.633789062 232 m 1
 204.366210938 1.0341796875 l 1
 71 232 l 1
 330.5 681.567382812 l 1
 463.799804688 450.534179688 l 1
 337.633789062 232 l 1
863.766601562 244.5 m 1
 597.133789062 244.5 l 1
 337.633789062 694.067382812 l 1
 604.366210938 694.067382812 l 1
 863.866210938 244.534179688 l 1
 863.766601562 244.534179688 l 1
 863.766601562 244.5 l 1
EndSplineSet
Validated: 1
EndChar

StartChar: googlephotos
Encoding: 59688 59688 44
Width: 1000
Flags: MW
HStem: 2.43359 46.2334 379.733 45.0332
VStem: 100.032 46.6328<425 425> 477.332 45.2334 853.832 46.1328
LayerCount: 2
Fore
SplineSet
522.598632812 246.666992188 m 1
 522.598632812 174.166992188 522.665039062 94.5 522.565429688 30.2001953125 c 0
 522.532226562 11 514.431640625 3.06640625 495.33203125 2.43359375 c 0
 260.498046875 -0.1669921875 197.764648438 264.799804688 346.3984375 380.233398438 c 1
 281.3984375 379.700195312 212.431640625 380 146.865234375 380 c 0
 101.83203125 380 99.7314453125 380.333007812 100.032226562 425.033203125 c 0
 108.631835938 644.466796875 364.8984375 700.8671875 477.46484375 556.233398438 c 1
 476.931640625 771.466796875 l 2
 476.8984375 794.633789062 483.998046875 801.666992188 507.131835938 802.299804688 c 0
 720.764648438 808.533203125 812.46484375 558.700195312 654.665039062 424.766601562 c 1
 859.032226562 424.700195312 l 2
 895.598632812 424.700195312 900.3984375 421.200195312 899.96484375 384.133789062 c 0
 892.532226562 160.033203125 639.8984375 104.93359375 522.598632812 246.666992188 c 1
522.665039062 756.133789062 m 1
 522.565429688 423.733398438 l 1
 741.231445312 439.233398438 742.498046875 741.466796875 522.665039062 756.133789062 c 1
477.33203125 48.6669921875 m 1
 477.298828125 381 l 1
 246.3984375 361.06640625 267.631835938 56.7998046875 477.365234375 48.6669921875 c 1
 477.33203125 48.6669921875 l 1
146.665039062 425.233398438 m 1
 478.33203125 424.966796875 l 1
 460.764648438 652.599609375 152.931640625 637.200195312 146.665039062 425.233398438 c 1
521.264648438 379.733398438 m 1
 543.998046875 150.56640625 843.598632812 170.266601562 853.83203125 379.400390625 c 1
 521.264648438 379.733398438 l 1
EndSplineSet
Validated: 33
EndChar

StartChar: onedrive
Encoding: 59689 59689 45
Width: 1118
Flags: MW
HStem: 0.208984 62.541<300.208 309 300.208 309 300.208 855.875> 344.959 61<838.306 869.542> 437.75 62.459<305.583 306.083 305.583 315.986> 578.334 62.541<553.611 580.5>
VStem: 59 62.5<240.445 262.75 240.445 263.889> 996.5 62.5<192.278 214.084>
LayerCount: 2
Fore
SplineSet
869.541992188 405.958984375 m 1
 896.236328125 404.34765625 921.055664062 397.84765625 944 386.458984375 c 0
 966.944335938 375.069335938 986.97265625 360.263671875 1004.08300781 342.041992188 c 0
 1021.16601562 323.791992188 1034.58300781 302.791992188 1044.33300781 279.041992188 c 0
 1054.11132812 255.263671875 1059 230.041992188 1059 203.375 c 0
 1059 175.375 1053.625 149.083007812 1042.875 124.5 c 0
 1032.15332031 99.9169921875 1017.58398438 78.4306640625 999.166992188 60.0419921875 c 0
 980.77734375 41.6533203125 959.305664062 27.083984375 934.75 16.333984375 c 0
 910.166992188 5.583984375 883.875 0.208984375 855.875 0.208984375 c 2
 309 0.208984375 l 2
 274.5 0.208984375 242.111328125 6.8056640625 211.833007812 20 c 0
 181.555664062 33.1943359375 155.111328125 51.111328125 132.5 73.75 c 0
 109.861328125 96.361328125 91.9443359375 122.791992188 78.75 153.041992188 c 0
 65.5830078125 183.3203125 59 215.708984375 59 250.208984375 c 0
 59 277.569335938 63.3056640625 303.778320312 71.9169921875 328.833984375 c 0
 80.5556640625 353.916992188 92.52734375 376.9453125 107.833007812 397.916992188 c 0
 123.111328125 418.916992188 141.5 437.319335938 163 453.125 c 0
 184.5 468.903320312 208.263671875 480.861328125 234.291992188 489 c 0
 246.34765625 492.583007812 258.15234375 495.180664062 269.708007812 496.791992188 c 0
 281.263671875 498.458984375 293.22265625 499.59765625 305.583007812 500.208984375 c 2
 306.083007812 500.208984375 l 1
 320.388671875 522.041992188 337.153320312 541.666992188 356.375 559.083984375 c 0
 375.569335938 576.500976562 396.403320312 591.305664062 418.875 603.5 c 0
 441.319335938 615.72265625 465 625.000976562 489.916992188 631.333984375 c 0
 514.805664062 637.694335938 540.430664062 640.875 566.791992188 640.875 c 0
 602.291992188 640.875 636.403320312 635.083007812 669.125 623.5 c 0
 701.819335938 611.944335938 731.59765625 595.833984375 758.458007812 575.166992188 c 0
 785.319335938 554.5 808.34765625 529.778320312 827.541992188 501 c 0
 846.763671875 472.166992188 860.763671875 440.5 869.541992188 406 c 1
 869.541992188 405.958984375 l 1
566.833007812 578.333984375 m 0
 530.02734375 578.333984375 495.02734375 570.778320312 461.833007812 555.666992188 c 0
 428.638671875 540.528320312 400.305664062 518.791992188 376.833007812 490.458984375 c 1
 389.22265625 487.208984375 401.028320312 483.055664062 412.25 478 c 0
 423.5 472.97265625 434.5 467.1953125 445.25 460.666992188 c 2
 644.416992188 341.5 l 1
 758.208007812 389.416992188 l 2
 765.708007812 392.666992188 773.27734375 395.5 780.916992188 397.916992188 c 0
 788.583984375 400.361328125 796.638671875 402.403320312 805.083007812 404.041992188 c 1
 796.944335938 430.0703125 785.069335938 453.750976562 769.458007812 475.083984375 c 0
 753.819335938 496.416992188 735.5 514.72265625 714.5 530 c 0
 693.528320312 545.305664062 670.5 557.1953125 645.416992188 565.666992188 c 0
 620.361328125 574.111328125 594.166015625 578.333984375 566.833007812 578.333984375 c 0
159.583007812 137.416992188 m 1
 572.666992188 311.75 l 1
 413 407.458984375 l 2
 396.721679688 417.208984375 379.638671875 424.6953125 361.75 429.916992188 c 0
 343.833007812 435.138671875 325.430664062 437.75 306.541992188 437.75 c 0
 281.15234375 437.75 257.236328125 432.694335938 234.791992188 422.583984375 c 0
 212.319335938 412.500976562 192.708007812 398.916992188 175.958007812 381.833984375 c 0
 159.180664062 364.72265625 145.916992188 344.778320312 136.166992188 322 c 0
 126.388671875 299.22265625 121.5 275.291992188 121.5 250.208984375 c 0
 121.5 230.680664062 124.75 210.916992188 131.25 190.916992188 c 0
 137.778320312 170.888671875 147.22265625 153.055664062 159.583007812 137.416992188 c 1
855.875 62.708984375 m 2
 871.513671875 62.708984375 886.486328125 65.1533203125 900.791992188 70.0419921875 c 0
 915.125 74.9306640625 928.47265625 82.09765625 940.833007812 91.5419921875 c 1
 639.583007812 271.708984375 l 1
 210.375 91.0419921875 l 1
 225.013671875 81.9306640625 240.708007812 74.9306640625 257.458007812 70.0419921875 c 0
 274.236328125 65.1806640625 291.416992188 62.75 309 62.75 c 2
 855.875 62.708984375 l 2
981.375 139.875 m 1
 991.458007812 160.069335938 996.5 181.22265625 996.5 203.333984375 c 0
 996.5 224.833984375 992.430664062 244.375976562 984.291992188 261.958984375 c 0
 976.15234375 279.541992188 965.166015625 294.430664062 951.333007812 306.625 c 0
 937.5 318.84765625 921.305664062 328.291992188 902.75 334.958984375 c 0
 884.194335938 341.625976562 864.666992188 344.958984375 844.166992188 344.958984375 c 0
 832.444335938 344.958984375 820.805664062 343.5703125 809.25 340.791992188 c 0
 797.694335938 338.013671875 786.375 334.513671875 775.291992188 330.291992188 c 0
 764.236328125 326.0703125 753.333007812 321.430664062 742.583007812 316.375 c 0
 731.861328125 311.34765625 721.291992188 306.555664062 710.875 302 c 1
 981.375 139.875 l 1
EndSplineSet
Validated: 1
EndChar

StartChar: dropbox
Encoding: 59690 59690 46
Width: 930
Flags: W
LayerCount: 2
Fore
SplineSet
265 680.233398438 m 1
 465.033203125 552.833007812 l 1
 265 425.43359375 l 1
 65 552.833007812 l 1
 265 680.233398438 l 1
665 680.233398438 m 1
 865 552.833007812 l 1
 665 425.43359375 l 1
 465 552.833007812 l 1
 665 680.233398438 l 1
65 298 m 1
 265 425.400390625 l 1
 465.033203125 298 l 1
 265 170.600585938 l 1
 65 298 l 1
665 425.400390625 m 1
 865 298 l 1
 665 170.600585938 l 1
 465 298 l 1
 665 425.400390625 l 1
265 128.100585938 m 1
 465.033203125 255.5 l 1
 665.033203125 128.100585938 l 1
 465.033203125 0.7001953125 l 1
 265 128.100585938 l 1
EndSplineSet
Validated: 5
EndChar

StartChar: box
Encoding: 59691 59691 47
Width: 1000
Flags: MW
HStem: 84.4971 59.9004<503.467 554.4> 328.197 59.9004<237.817 279.734 503.467 555.4>
VStem: 100 61.9004<358.131 485.931 358.131 485.931 358.131 493.914> 347.667 87.8672<210.297 261.23> 623.301 59.8994<236.264 238.264 195.331 261.23>
LayerCount: 2
Fore
SplineSet
131.966796875 515.897460938 m 0
 148.318359375 515.510742188 161.53125 502.286132812 161.900390625 485.930664062 c 2
 161.900390625 358.130859375 l 1
 187.8671875 376.09765625 219.833984375 388.09765625 255.80078125 388.09765625 c 0
 315.700195312 388.09765625 367.633789062 356.130859375 393.633789062 308.197265625 c 1
 419.600585938 356.130859375 471.5 388.09765625 529.43359375 388.09765625 c 0
 615.30078125 388.09765625 685.200195312 320.1640625 683.200195312 238.263671875 c 0
 683.200195312 152.397460938 613.30078125 84.4970703125 527.400390625 84.4970703125 c 0
 469.5 84.4970703125 417.567382812 118.463867188 391.600585938 166.397460938 c 1
 364.948242188 117.5703125 313.250976562 84.564453125 253.767578125 84.4970703125 c 0
 253.495117188 84.49609375 253.23828125 84.55078125 252.966796875 84.55078125 c 0
 169.610351562 84.55078125 101.734375 151.353515625 100 234.296875 c 2
 100 485.930664062 l 2
 100 501.897460938 113.966796875 515.897460938 131.966796875 515.897460938 c 0
686.733398438 391.330078125 m 0
 694.700195312 390.063476562 702.166992188 386.063476562 707.133789062 380.063476562 c 2
 775.133789062 290.23046875 l 1
 845 376.09765625 l 2
 854.966796875 390.09765625 872.93359375 392.09765625 888.93359375 382.09765625 c 0
 902.900390625 372.09765625 902.966796875 352.130859375 892.966796875 338.1640625 c 2
 815.034179688 236.263671875 l 1
 892.966796875 132.430664062 l 2
 902.93359375 118.463867188 900.93359375 100.463867188 888.93359375 90.4638671875 c 0
 874.966796875 80.4970703125 855 82.4638671875 845 94.4638671875 c 2
 775.133789062 184.364257812 l 1
 707.166992188 96.4970703125 l 2
 697.166992188 82.4970703125 677.267578125 82.4306640625 663.30078125 92.4306640625 c 0
 649.30078125 102.430664062 647.30078125 120.430664062 657.30078125 134.430664062 c 2
 737.166992188 238.263671875 l 1
 657.267578125 342.130859375 l 2
 647.30078125 356.09765625 651.267578125 376.063476562 663.267578125 386.063476562 c 0
 668.40234375 389.655273438 674.650390625 391.78125 681.38671875 391.78125 c 0
 683.208984375 391.78125 684.995117188 391.626953125 686.733398438 391.330078125 c 0
253.767578125 328.197265625 m 0
 201.833984375 328.197265625 159.900390625 286.197265625 159.900390625 236.263671875 c 0
 159.900390625 184.330078125 201.833984375 144.397460938 253.767578125 144.397460938 c 0
 305.700195312 144.397460938 347.666992188 184.330078125 347.666992188 236.263671875 c 0
 347.666992188 286.197265625 305.700195312 328.197265625 253.767578125 328.197265625 c 0
529.43359375 328.197265625 m 0
 477.5 328.197265625 435.534179688 286.197265625 435.534179688 236.263671875 c 0
 435.534179688 184.330078125 477.5 144.397460938 529.43359375 144.397460938 c 0
 579.3671875 144.397460938 621.30078125 184.330078125 623.30078125 236.263671875 c 0
 623.30078125 286.197265625 581.3671875 328.197265625 529.43359375 328.197265625 c 0
EndSplineSet
Validated: 33
EndChar

StartChar: s3
Encoding: 59692 59692 48
Width: 896
Flags: MW
HStem: 3 33.334<377.176 453.559 356.534 454.784> 296.101 33.8828 403 66.667<422.159 434.343> 513.101 33.333<422.893 431.426> 704.667 33.333<348.667 505.667 348.667 514.076>
VStem: 166.826 33.3164<87.2168 87.2168> 398.01 66.6494<436 436> 654.226 33.3174<87.2168 88.875>
LayerCount: 2
Fore
SplineSet
720.958984375 335.3671875 m 1
 748.875976562 328.567382812 761.225585938 329.033203125 766.109375 329.983398438 c 1
 763.159179688 334.55078125 753.625976562 345.133789062 724.659179688 362.783203125 c 1
 720.958984375 335.3671875 l 1
654.375976562 90.7333984375 m 2
 684.04296875 311.05078125 l 1
 605.326171875 335.033203125 500.458984375 382.666992188 447.79296875 407.516601562 c 1
 442.909179688 404.716796875 437.342773438 403 431.342773438 403 c 0
 412.975585938 403 398.009765625 417.950195312 398.009765625 436.333984375 c 0
 398.009765625 454.700195312 412.975585938 469.666992188 431.342773438 469.666992188 c 0
 449.692382812 469.666992188 464.609375 454.75 464.659179688 436.416992188 c 1
 510.776367188 414.75 612.375976562 368.466796875 688.559570312 344.55078125 c 1
 718.442382812 566.450195312 l 1
 714.276367188 564.033203125 709.79296875 561.700195312 705.109375 559.450195312 c 0
 703.958984375 558.900390625 702.708984375 558.383789062 701.559570312 557.850585938 c 0
 697.342773438 555.883789062 692.942382812 554.016601562 688.392578125 552.200195312 c 0
 686.659179688 551.516601562 684.942382812 550.833984375 683.17578125 550.18359375 c 0
 678.326171875 548.333984375 673.29296875 546.583984375 668.076171875 544.883789062 c 0
 666.892578125 544.5 665.759765625 544.083984375 664.54296875 543.700195312 c 0
 658.109375 541.666992188 651.409179688 539.75 644.509765625 537.916992188 c 0
 642.842773438 537.483398438 641.125976562 537.083984375 639.442382812 536.633789062 c 0
 633.993164062 535.25 628.42578125 533.916992188 622.725585938 532.650390625 c 0
 620.576171875 532.18359375 618.409179688 531.68359375 616.225585938 531.233398438 c 0
 609.875976562 529.900390625 603.392578125 528.6171875 596.809570312 527.416992188 c 0
 595.642578125 527.216796875 594.54296875 526.983398438 593.392578125 526.766601562 c 0
 585.659179688 525.416992188 577.759765625 524.166992188 569.776367188 523.016601562 c 0
 567.625976562 522.700195312 565.458984375 522.43359375 563.29296875 522.133789062 c 0
 557.142578125 521.283203125 550.942382812 520.5 544.659179688 519.766601562 c 0
 542.225585938 519.5 539.826171875 519.216796875 537.375976562 518.966796875 c 0
 529.859375 518.150390625 522.276367188 517.400390625 514.625976562 516.766601562 c 0
 513.809570312 516.700195312 513.009765625 516.600585938 512.208984375 516.533203125 c 0
 503.776367188 515.850585938 495.276367188 515.30078125 486.759765625 514.817382812 c 0
 484.392578125 514.68359375 482.026367188 514.583984375 479.642578125 514.450195312 c 0
 473.192382812 514.150390625 466.743164062 513.883789062 460.259765625 513.666992188 c 0
 457.776367188 513.583984375 455.29296875 513.5 452.809570312 513.450195312 c 0
 444.243164062 513.233398438 435.692382812 513.100585938 427.159179688 513.100585938 c 0
 418.625976562 513.100585938 410.092773438 513.233398438 401.526367188 513.450195312 c 0
 399.04296875 513.5 396.559570312 513.583984375 394.059570312 513.666992188 c 0
 387.592773438 513.883789062 381.125976562 514.150390625 374.692382812 514.450195312 c 0
 372.309570312 514.583984375 369.92578125 514.68359375 367.559570312 514.817382812 c 0
 359.04296875 515.30078125 350.559570312 515.850585938 342.142578125 516.533203125 c 0
 341.29296875 516.6171875 340.475585938 516.700195312 339.625976562 516.766601562 c 0
 332.009765625 517.416992188 324.475585938 518.150390625 316.975585938 518.950195312 c 0
 314.509765625 519.216796875 312.092773438 519.5 309.625976562 519.766601562 c 0
 303.392578125 520.5 297.243164062 521.283203125 291.125976562 522.1171875 c 0
 288.92578125 522.43359375 286.708984375 522.700195312 284.526367188 523.033203125 c 0
 276.576171875 524.166992188 268.708984375 525.400390625 261.009765625 526.766601562 c 0
 259.759765625 526.983398438 258.54296875 527.25 257.309570312 527.466796875 c 0
 250.826171875 528.650390625 244.475585938 529.900390625 238.225585938 531.216796875 c 0
 235.958984375 531.68359375 233.743164062 532.18359375 231.493164062 532.68359375 c 0
 225.92578125 533.916992188 220.493164062 535.233398438 215.125976562 536.583984375 c 0
 213.342773438 537.05078125 211.509765625 537.483398438 209.743164062 537.93359375 c 0
 202.909179688 539.766601562 196.29296875 541.666992188 189.92578125 543.666992188 c 0
 188.559570312 544.083984375 187.29296875 544.567382812 185.975585938 544.983398438 c 0
 180.942382812 546.633789062 176.059570312 548.350585938 171.326171875 550.1171875 c 0
 169.475585938 550.833984375 167.659179688 551.533203125 165.842773438 552.25 c 0
 161.42578125 554.016601562 157.17578125 555.850585938 153.092773438 557.733398438 c 0
 151.809570312 558.317382812 150.442382812 558.883789062 149.17578125 559.483398438 c 0
 144.526367188 561.733398438 140.076171875 564.05078125 135.942382812 566.450195312 c 1
 199.993164062 90.7333984375 l 2
 200.092773438 89.9833984375 200.142578125 89.25 200.142578125 88.5 c 0
 200.142578125 72.5673828125 285.909179688 36.333984375 427.159179688 36.333984375 c 0
 479.958984375 36.333984375 532.743164062 41.8173828125 575.776367188 51.75 c 0
 592.475585938 55.6171875 607.29296875 60.05078125 619.79296875 64.9833984375 c 0
 647.892578125 76.1005859375 654.225585938 85.93359375 654.225585938 88.5 c 0
 654.225585938 89.25 654.276367188 89.9833984375 654.375976562 90.7333984375 c 2
427.159179688 704.666992188 m 0
 253.375976562 704.666992188 130.942382812 650.817382812 128.625976562 620.900390625 c 1
 129.076171875 617.416992188 l 2
 129.375976562 616.400390625 130.026367188 615.3671875 130.576171875 614.317382812 c 0
 131.026367188 613.450195312 131.342773438 612.583984375 131.975585938 611.68359375 c 0
 132.725585938 610.633789062 133.809570312 609.55078125 134.809570312 608.483398438 c 0
 135.625976562 607.583984375 136.309570312 606.700195312 137.29296875 605.817382812 c 0
 138.526367188 604.700195312 140.076171875 603.583984375 141.526367188 602.450195312 c 0
 142.692382812 601.583984375 143.692382812 600.700195312 144.993164062 599.817382812 c 0
 146.692382812 598.666992188 148.743164062 597.516601562 150.67578125 596.350585938 c 0
 152.125976562 595.483398438 153.42578125 594.650390625 155.009765625 593.783203125 c 0
 157.192382812 592.600585938 159.708984375 591.416992188 162.159179688 590.25 c 0
 163.842773438 589.43359375 165.409179688 588.600585938 167.225585938 587.783203125 c 0
 169.909179688 586.583984375 172.92578125 585.416992188 175.859375 584.25 c 0
 177.79296875 583.466796875 179.576171875 582.666992188 181.625976562 581.900390625 c 0
 184.743164062 580.733398438 188.208984375 579.583984375 191.576171875 578.43359375 c 0
 193.776367188 577.700195312 195.809570312 576.93359375 198.109375 576.200195312 c 0
 201.67578125 575.083984375 205.54296875 573.983398438 209.359375 572.900390625 c 0
 211.759765625 572.200195312 214.04296875 571.466796875 216.576171875 570.783203125 c 0
 220.559570312 569.716796875 224.809570312 568.700195312 229.009765625 567.666992188 c 0
 231.708984375 567.016601562 234.225585938 566.333984375 236.993164062 565.700195312 c 0
 241.42578125 564.700195312 246.142578125 563.766601562 250.776367188 562.80078125 c 0
 253.609375 562.233398438 256.29296875 561.6171875 259.225585938 561.067382812 c 0
 264.092773438 560.133789062 269.243164062 559.30078125 274.359375 558.450195312 c 0
 277.342773438 557.93359375 280.192382812 557.383789062 283.243164062 556.916992188 c 0
 288.442382812 556.100585938 293.92578125 555.400390625 299.326171875 554.666992188 c 0
 302.559570312 554.25 305.67578125 553.766601562 308.975585938 553.350585938 c 0
 314.609375 552.650390625 320.526367188 552.100585938 326.359375 551.5 c 0
 329.692382812 551.150390625 332.892578125 550.75 336.29296875 550.43359375 c 0
 342.109375 549.916992188 348.192382812 549.533203125 354.192382812 549.083984375 c 0
 357.892578125 548.833984375 361.442382812 548.483398438 365.192382812 548.25 c 0
 371.54296875 547.883789062 378.159179688 547.650390625 384.692382812 547.383789062 c 0
 388.326171875 547.25 391.809570312 547.016601562 395.493164062 546.900390625 c 0
 405.826171875 546.600585938 416.392578125 546.43359375 427.159179688 546.43359375 c 0
 437.942382812 546.43359375 448.493164062 546.600585938 458.826171875 546.900390625 c 0
 462.526367188 547.016601562 466.026367188 547.25 469.67578125 547.400390625 c 0
 476.192382812 547.650390625 482.79296875 547.883789062 489.142578125 548.25 c 0
 492.942382812 548.483398438 496.526367188 548.833984375 500.276367188 549.100585938 c 0
 506.225585938 549.533203125 512.276367188 549.916992188 518.04296875 550.43359375 c 0
 521.526367188 550.766601562 524.809570312 551.166992188 528.225585938 551.516601562 c 0
 533.975585938 552.100585938 539.809570312 552.666992188 545.359375 553.350585938 c 0
 548.776367188 553.766601562 551.958984375 554.266601562 555.309570312 554.716796875 c 0
 560.609375 555.43359375 565.993164062 556.1171875 571.092773438 556.916992188 c 0
 574.276367188 557.400390625 577.243164062 557.966796875 580.342773438 558.516601562 c 0
 585.309570312 559.333984375 590.359375 560.150390625 595.092773438 561.067382812 c 0
 598.208984375 561.650390625 601.076171875 562.30078125 604.076171875 562.916992188 c 0
 608.54296875 563.833984375 613.076171875 564.733398438 617.326171875 565.700195312 c 0
 620.29296875 566.3671875 622.993164062 567.100585938 625.842773438 567.80078125 c 0
 629.859375 568.783203125 633.958984375 569.75 637.743164062 570.783203125 c 0
 640.442382812 571.5 642.892578125 572.283203125 645.493164062 573.033203125 c 0
 649.092773438 574.067382812 652.809570312 575.1171875 656.225585938 576.18359375 c 0
 658.67578125 576.983398438 660.892578125 577.80078125 663.225585938 578.600585938 c 0
 666.42578125 579.68359375 669.725585938 580.783203125 672.692382812 581.883789062 c 0
 674.909179688 582.716796875 676.842773438 583.567382812 678.92578125 584.383789062 c 0
 681.692382812 585.516601562 684.54296875 586.633789062 687.109375 587.783203125 c 0
 689.059570312 588.633789062 690.743164062 589.533203125 692.526367188 590.400390625 c 0
 694.842773438 591.516601562 697.243164062 592.650390625 699.326171875 593.766601562 c 0
 701.026367188 594.68359375 702.42578125 595.583984375 703.942382812 596.5 c 0
 705.79296875 597.600585938 707.725585938 598.700195312 709.359375 599.783203125 c 0
 710.725585938 600.733398438 711.79296875 601.650390625 712.993164062 602.567382812 c 0
 714.392578125 603.650390625 715.892578125 604.733398438 717.076171875 605.80078125 c 0
 718.076171875 606.716796875 718.79296875 607.633789062 719.642578125 608.55078125 c 0
 720.609375 609.583984375 721.659179688 610.650390625 722.409179688 611.68359375 c 0
 723.04296875 612.583984375 723.375976562 613.466796875 723.842773438 614.333984375 c 0
 724.359375 615.383789062 725.009765625 616.416992188 725.309570312 617.416992188 c 2
 725.759765625 620.900390625 l 1
 723.458984375 650.817382812 600.993164062 704.666992188 427.159179688 704.666992188 c 0
800.208984375 333.383789062 m 0
 801.875976562 324.450195312 799.592773438 315.700195312 793.743164062 308.75 c 0
 786.659179688 300.30078125 775.54296875 296.100585938 759.026367188 296.100585938 c 0
 747.592773438 296.100585938 733.559570312 298.133789062 716.475585938 302.150390625 c 1
 687.54296875 87.216796875 l 2
 686.809570312 66.2001953125 668.142578125 48.2666015625 632.026367188 33.9833984375 c 0
 617.975585938 28.4501953125 601.592773438 23.5 583.276367188 19.2666015625 c 0
 537.859375 8.7666015625 482.409179688 3 427.159179688 3 c 0
 327.192382812 3 169.009765625 25.900390625 166.826171875 87.216796875 c 1
 96.2763671875 611.333984375 l 1
 96.2763671875 611.350585938 l 1
 96.2763671875 611.3671875 l 1
 95.4091796875 617.850585938 l 2
 95.3095703125 618.583984375 95.259765625 619.317382812 95.259765625 620.05078125 c 0
 95.259765625 689.567382812 270.17578125 738 427.159179688 738 c 0
 584.17578125 738 759.125976562 689.567382812 759.125976562 620.05078125 c 0
 759.125976562 619.317382812 759.076171875 618.583984375 758.975585938 617.850585938 c 2
 758.109375 611.3671875 l 1
 758.109375 611.350585938 l 1
 758.109375 611.333984375 l 1
 729.475585938 398.55078125 l 1
 774.493164062 372.93359375 796.609375 352.6171875 800.208984375 333.383789062 c 0
EndSplineSet
Validated: 33
EndChar

StartChar: nextcloud
Encoding: 59693 59693 49
Width: 1060
Flags: MW
HStem: 72.375 86.874<491.454 530.218 491.454 582.562> 151.958 86.8721<160.664 207.833 864.623 881.425> 361.125 86.917 440.75 86.875<491.646 530.75 478.667 569.875>
VStem: 30 86.8594<300 300> 239.125 150.903<282.854 299.445 260.675 317.146> 671.5 149.318<282.635 299.444 282.635 339.125> 943.125 86.875<300 300>
LayerCount: 2
Fore
SplineSet
530.75 527.625 m 0x1f
 634.375 527.666992188 721.416992188 457.083007812 748.666992188 361.916992188 c 1
 772.375 412.291992188 822.958007812 448.041992188 881.958007812 448.041992188 c 0
 963.495117188 447.676757812 1029.63574219 381.537109375 1030 300 c 0
 1029.65820312 218.452148438 963.505859375 152.30078125 881.958007812 151.958007812 c 0x6f
 823 151.958007812 772.416992188 187.666992188 748.708007812 238.083007812 c 1
 721.416992188 142.916992188 634.375 72.375 530.75 72.375 c 0x8f
 426.583007812 72.375 339.041992188 143.708007812 312.333007812 239.708007812 c 1
 289 188.375 237.666992188 151.958007812 178 151.958007812 c 0
 96.482421875 152.345703125 30.3642578125 218.4765625 30 300 c 0
 30.3642578125 381.5234375 96.482421875 447.654296875 178 448.041992188 c 0x6f
 237.666992188 448.041992188 289.041992188 411.666992188 312.375 360.333007812 c 1
 339.083007812 456.291992188 426.583007812 527.625 530.75 527.625 c 0x1f
530.75 440.75 m 0x9f
 452.541992188 440.75 390.041992188 378.25 390.041992188 300 c 0
 390.041015625 299.7734375 390.028320312 299.55859375 390.028320312 299.33203125 c 0
 390.028320312 222.017578125 452.796875 159.249023438 530.111328125 159.249023438 c 0
 530.32421875 159.249023438 530.537109375 159.249023438 530.75 159.25 c 0
 609 159.25 671.5 221.75 671.5 300 c 0
 671.5 378.25 609 440.75 530.75 440.75 c 0x9f
178 361.166992188 m 0
 143.708007812 361.166992188 116.875 334.291992188 116.875 300 c 0
 116.872070312 299.772460938 116.859375 299.557617188 116.859375 299.330078125 c 0
 116.859375 265.939453125 143.96875 238.830078125 177.359375 238.830078125 c 0x6f
 177.573242188 238.830078125 177.787109375 238.831054688 178 238.833007812 c 0
 212.291992188 238.875 239.125 265.708007812 239.125 300 c 0
 239.125 334.291992188 212.25 361.166992188 178 361.166992188 c 0
881.958007812 361.166992188 m 0
 847.666992188 361.166992188 820.833007812 334.291992188 820.833007812 300 c 0
 820.831054688 299.772460938 820.818359375 299.557617188 820.818359375 299.330078125 c 0
 820.818359375 265.939453125 847.926757812 238.830078125 881.318359375 238.830078125 c 0
 881.53125 238.830078125 881.745117188 238.831054688 881.958007812 238.833007812 c 0
 916.25 238.833007812 943.125 265.708007812 943.125 300 c 0
 943.125 334.291992188 916.25 361.166992188 881.958007812 361.166992188 c 0
EndSplineSet
Validated: 33
EndChar

StartChar: gnupg
Encoding: 59694 59694 50
Width: 1000
Flags: MW
HStem: -15.3164 27.873 707.998 126.688<458.895 499.787 499.787 499.823>
VStem: 225.237 126.367<424.452 559.744> 648.077 127.004<425.763 559.744 425.763 559.744 425.763 559.816 425.763 600.708>
LayerCount: 2
Fore
SplineSet
180.116210938 424.452148438 m 1
 225.237304688 424.452148438 l 1
 225.237304688 559.744140625 l 1
 225.237304688 559.852539062 l 2
 225.237304688 711.537109375 348.385742188 834.685546875 500.071289062 834.685546875 c 2
 500.176757812 834.68359375 l 1
 500.249023438 834.68359375 l 2
 651.93359375 834.68359375 775.083007812 711.53515625 775.083007812 559.850585938 c 2
 775.081054688 559.744140625 l 1
 775.081054688 425.762695312 l 2
 774.443359375 425.408203125 773.770507812 424.771484375 773.09765625 424.452148438 c 2
 772.744140625 424.098632812 l 1
 772.459960938 423.78125 l 1
 772.106445312 423.78125 l 1
 771.751953125 423.427734375 l 1
 771.431640625 423.110351562 l 1
 770.439453125 423.110351562 l 1
 769.801757812 422.473632812 l 1
 769.09375 422.473632812 l 1
 768.456054688 422.119140625 l 1
 768.102539062 422.119140625 l 1
 767.78515625 421.764648438 l 1
 767.46484375 421.448242188 l 1
 767.110351562 421.448242188 l 1
 766.793945312 421.131835938 l 1
 766.47265625 420.77734375 l 1
 766.119140625 420.4609375 l 1
 765.797851562 420.143554688 l 1
 764.806640625 419.470703125 l 1
 764.133789062 419.1171875 l 1
 763.141601562 418.479492188 l 1
 762.50390625 418.125 l 1
 761.795898438 417.80859375 l 1
 760.83984375 417.170898438 l 1
 760.166992188 416.817382812 l 1
 759.8125 416.5 l 1
 758.856445312 415.827148438 l 1
 758.147460938 415.473632812 l 1
 756.518554688 414.516601562 l 1
 755.845703125 414.163085938 l 1
 755.208007812 413.841796875 l 1
 754.5 413.487304688 l 1
 754.220703125 413.487304688 l 1
 752.202148438 412.516601562 l 1
 751.529296875 412.516601562 l 2
 750.891601562 412.163085938 750.21875 411.80859375 749.227539062 411.170898438 c 2
 748.873046875 411.170898438 l 1
 748.551757812 410.817382812 l 1
 747.560546875 410.1796875 l 1
 746.922851562 409.825195312 l 1
 745.895507812 409.1875 l 1
 745.258789062 408.833984375 l 1
 744.904296875 408.833984375 l 1
 743.912109375 408.196289062 l 1
 743.275390625 407.841796875 l 1
 742.56640625 407.525390625 l 2
 741.928710938 407.170898438 740.9375 406.852539062 740.264648438 406.533203125 c 2
 739.626953125 406.1796875 l 1
 738.918945312 405.862304688 l 1
 737.608398438 405.225585938 l 1
 736.297851562 404.516601562 l 1
 734.633789062 403.879882812 l 1
 732.96875 403.206054688 l 1
 732.295898438 402.889648438 l 1
 730.985351562 402.216796875 l 1
 730.3125 401.862304688 l 2
 675.59375 375.689453125 588.043945312 348.170898438 421.904296875 336.235351562 c 0
 302.833007812 327.59375 230.547851562 275.212890625 183.762695312 212.206054688 c 1
 180.116210938 424.452148438 l 1
351.604492188 424.452148438 m 1
 648.077148438 424.452148438 l 1
 648.077148438 559.744140625 l 1
 648.077148438 559.81640625 l 2
 648.077148438 641.600585938 581.678710938 708 499.893554688 708 c 2
 499.823242188 707.998046875 l 1
 499.787109375 707.998046875 l 2
 418.001953125 707.998046875 351.603515625 641.599609375 351.603515625 559.814453125 c 2
 351.604492188 559.744140625 l 1
 351.604492188 424.452148438 l 1
819.883789062 372.708984375 m 1
 819.883789062 -15.31640625 l 1
 272.341796875 -15.31640625 l 1
 332.69140625 18.1875 377.458007812 14.8583984375 452.081054688 12.556640625 c 0
 553.549804688 9.2275390625 665.643554688 51.6923828125 720.716796875 108.040039062 c 0
 775.75390625 164.422851562 715.758789062 121.321289062 653.389648438 105.418945312 c 0
 591.056640625 89.4814453125 470.28515625 87.8173828125 389.393554688 109.067382812 c 1
 643.4375 105.737304688 742.604492188 187.65625 798.633789062 261.606445312 c 0
 854.698242188 335.237304688 774.443359375 274.533203125 722.380859375 248.998046875 c 0
 670.318359375 223.498046875 579.439453125 205.541992188 479.28125 218.823242188 c 1
 630.510742188 219.177734375 745.614257812 294.756835938 819.529296875 372.708984375 c 1
 819.883789062 372.708984375 l 1
EndSplineSet
Validated: 33
EndChar

StartChar: wolframalt
Encoding: 59695 59695 51
Width: 908
Flags: MW
VStem: 309 22.7666 363.866 22.0342<163.1 167> 442.934 21.9668<65.2998 168.866 65.2998 168.9 65.2998 168.9 419.066 537.366> 522.066 22.0332<163.1 167> 576.267 22.667
LayerCount: 2
Fore
SplineSet
724.166992188 402.966796875 m 1
 834.43359375 279.366210938 l 1
 672.633789062 244.033203125 l 1
 689.133789062 79.43359375 l 1
 537.466796875 145.900390625 l 1
 454 3 l 1
 370.466796875 145.900390625 l 1
 218.700195312 79.43359375 l 1
 235.366210938 244.266601562 l 1
 73.56640625 279.366210938 l 1
 183.733398438 403.133789062 l 1
 73.56640625 526.700195312 l 1
 235.366210938 561.833007812 l 1
 218.900390625 726.633789062 l 1
 370.5 660.099609375 l 1
 454 803 l 1
 537.43359375 660.133789062 l 1
 689.099609375 726.666992188 l 1
 672.599609375 561.866210938 l 1
 834.400390625 526.56640625 l 1
 724.166992188 402.966796875 l 1
777.666992188 309.900390625 m 1
 703.200195312 393.599609375 l 1
 619 425 l 1
 682.299804688 342.633789062 l 1
 777.666992188 309.900390625 l 1
792.966796875 513.099609375 m 1
 665.5 540.93359375 l 1
 604.033203125 453.866210938 l 1
 706.233398438 415.833007812 l 1
 792.966796875 513.099609375 l 1
650.033203125 557.233398438 m 1
 661.466796875 670.5 l 1
 601.866210938 590 l 1
 598.93359375 484.599609375 l 1
 650.033203125 557.233398438 l 1
539.900390625 637.200195312 m 1
 485.900390625 568.099609375 l 1
 584 603.06640625 l 1
 642.93359375 682.333007812 l 1
 539.900390625 637.200195312 l 1
579.466796875 578.133789062 m 1
 464.900390625 537.366210938 l 1
 464.900390625 419.06640625 l 1
 576.266601562 456.400390625 l 1
 579.466796875 578.133789062 l 1
454 759.400390625 m 1
 388.299804688 647.06640625 l 1
 454 563.033203125 l 1
 519.633789062 647.033203125 l 1
 454 759.400390625 l 1
368.099609375 637.200195312 m 1
 265.06640625 682.333007812 l 1
 323.799804688 603.06640625 l 1
 422.06640625 568.133789062 l 1
 368.099609375 637.200195312 l 1
442.93359375 537.366210938 m 1
 328.366210938 578.133789062 l 1
 331.766601562 456.400390625 l 1
 442.93359375 419.06640625 l 1
 442.93359375 537.366210938 l 1
306.133789062 590 m 1
 246.56640625 670.466796875 l 1
 257.93359375 557.233398438 l 1
 309 484.599609375 l 1
 306.133789062 590 l 1
115 513.266601562 m 1
 201.599609375 416 l 1
 303.766601562 453.866210938 l 1
 242.466796875 540.93359375 l 1
 115 513.266601562 l 1
204.799804688 393.766601562 m 1
 130.299804688 310.06640625 l 1
 225.666992188 342.633789062 l 1
 289 425 l 1
 204.799804688 393.766601562 l 1
135.033203125 288.466796875 m 1
 246.766601562 264.033203125 l 1
 334.166992188 291.93359375 l 1
 232.666992188 321.799804688 l 1
 135.033203125 288.466796875 l 1
244.366210938 114.733398438 m 1
 363.866210938 167 l 1
 361.133789062 277.333007812 l 1
 257.43359375 244.599609375 l 1
 244.366210938 114.733398438 l 1
367.400390625 305 m 1
 436.166992188 398.200195312 l 1
 325 435.733398438 l 1
 250.799804688 339.333007812 l 1
 367.400390625 305 l 1
442.93359375 65.2998046875 m 1
 442.93359375 168.900390625 l 1
 383.700195312 255.466796875 l 1
 385.900390625 163.099609375 l 1
 442.93359375 65.2998046875 l 1
385.266601562 291.966796875 m 1
 454 191.799804688 l 1
 522.766601562 291.966796875 l 1
 454 385.266601562 l 1
 385.266601562 291.966796875 l 1
522.06640625 163.099609375 m 1
 524.299804688 255.43359375 l 1
 464.900390625 168.866210938 l 1
 464.900390625 65.2998046875 l 1
 522.06640625 163.099609375 l 1
471.599609375 398.166992188 m 1
 540.366210938 304.966796875 l 1
 657 339.299804688 l 1
 582.966796875 435.700195312 l 1
 471.599609375 398.166992188 l 1
544.099609375 167 m 1
 663.400390625 114.56640625 l 1
 650.533203125 244.599609375 l 1
 546.666992188 277.333007812 l 1
 544.099609375 167 l 1
661.233398438 264.06640625 m 1
 772.966796875 288.400390625 l 1
 675.366210938 321.833007812 l 1
 573.733398438 291.966796875 l 1
 661.233398438 264.06640625 l 1
EndSplineSet
Validated: 1
EndChar

StartChar: wolfram
Encoding: 59696 59696 52
Width: 894
Flags: MW
HStem: 501.333 33<445 445>
LayerCount: 2
Fore
SplineSet
571.666992188 444.333007812 m 1
 571.666992188 444 l 1
 589.666992188 393 656.333007812 331.666992188 656.333007812 331.666992188 c 1
 656.333007812 331.666992188 575.666992188 329 524.333007812 293.333007812 c 0
 473 258 447 179.666992188 447 179.666992188 c 1
 447 179.666992188 408.666992188 266 366.333007812 295 c 0
 324 324 238 331.666992188 238 331.666992188 c 1
 238 331.666992188 304.333007812 390.333007812 320.333007812 443 c 0
 336.666992188 495.666992188 318 577.666992188 318 577.666992188 c 1
 318 577.666992188 389 534.666992188 444.666992188 534.333007812 c 0
 500.333007812 534 576.333007812 577.666992188 576.333007812 577.666992188 c 1
 576.333007812 577.666992188 554 495.333007812 571.666992188 444.333007812 c 1
505 321.333007812 m 0
 541 348.666992188 593 354.333007812 593 354.333007812 c 1
 593 354.333007812 555.333007812 396.666992188 540.666992188 434.666992188 c 0
 525.666992188 472 538.333007812 524.666992188 538.333007812 524.666992188 c 1
 538.333007812 524.666992188 502 501.333007812 445.333007812 501.333007812 c 0
 388.666992188 501.333007812 358 524.666992188 358 524.666992188 c 1
 358 524.666992188 367.333007812 485 352 433.666992188 c 0
 342.71484375 402.638671875 324.84765625 375.374023438 301 354.666992188 c 1
 301 354.666992188 351.666992188 348.666992188 386.666992188 322.333007812 c 0
 421.333007812 296 446.666992188 248.333007812 446.666992188 248.333007812 c 1
 446.666992188 248.333007812 468.666992188 294.333007812 505 321.333007812 c 0
504.666992188 481 m 1
 504.666992188 481 497.333007812 448.666992188 506.666992188 422.666992188 c 0
 516 396.333007812 540.666992188 370.333007812 540.666992188 370.333007812 c 1
 521.333007812 365.333007812 503 357.333007812 486.333007812 347 c 0
 462 331 447 302.666992188 447 302.666992188 c 1
 427.004882812 336.806640625 393.043945312 361.653320312 353 369.666992188 c 1
 353 369.666992188 374.333007812 395.666992188 383.333007812 424.333007812 c 0
 389 442.666992188 390.666992188 461.666992188 389 481 c 1
 389 481 418.333007812 468.666992188 445.666992188 468.666992188 c 0
 473 468.333007812 504.666992188 481 504.666992188 481 c 1
717 401 m 1
 717.333007812 401 l 1
 827.333007812 277.333007812 l 1
 665.666992188 242 l 1
 682.333007812 77.3330078125 l 1
 530.333007812 144 l 1
 447 1 l 1
 363.666992188 144 l 1
 212 77.3330078125 l 1
 228.666992188 242 l 1
 67 277.666992188 l 1
 176.666992188 401 l 1
 66.6669921875 524.666992188 l 1
 228.333007812 559.666992188 l 1
 212 724.666992188 l 1
 363.666992188 658 l 1
 447 801 l 1
 530.333007812 658 l 1
 682.333007812 724.666992188 l 1
 665.666992188 560 l 1
 827.333007812 524.333007812 l 1
 717 401 l 1
541.333007812 269.333007812 m 1
 541 269.333007812 l 1
 569 289.333007812 725.666992188 310 725.666992188 310 c 1
 725.666992188 310 611.333007812 424 601.333007812 456 c 0
 591.666992188 488 619 638 619 638 c 1
 619 638 516 568 443.666992188 568 c 0
 371 568 274.333007812 638 274.333007812 638 c 1
 274.333007812 638 306.333007812 529 286.666992188 459 c 0
 267.333007812 389 167.666992188 310 167.666992188 310 c 1
 167.666992188 310 297.666992188 302.666992188 347 269.333007812 c 0
 397 236 447 107.333007812 447 107.333007812 c 1
 447 107.333007812 513.666992188 249 541.333007812 269.333007812 c 1
EndSplineSet
Validated: 33
EndChar

StartChar: tensorflow
Encoding: 59697 59697 53
Width: 890
Flags: MW
VStem: 293.167 136.5<76.5 543.8 543.8 543.8> 460.333 136.5<76.5 301.566 454.434 543.8>
LayerCount: 2
Fore
SplineSet
88.06640625 602.033203125 m 1
 429.666992188 797.233398438 l 1
 429.666992188 -2.7666015625 l 1
 293.166992188 76.5 l 1
 293.166992188 543.799804688 l 1
 87.56640625 425 l 1
 88.06640625 602 l 1
 88.06640625 602.033203125 l 1
802.400390625 425 m 1
 596.833007812 543.799804688 l 1
 596.833007812 454.43359375 l 1
 699.299804688 395.900390625 l 1
 699.900390625 241.966796875 l 1
 596.833007812 301.56640625 l 1
 596.833007812 76.5 l 1
 460.333007812 -2.7666015625 l 1
 460.333007812 797.233398438 l 1
 801.93359375 602 l 1
 802.400390625 425 l 1
EndSplineSet
Validated: 1
EndChar

StartChar: powershell
Encoding: 59698 59698 54
Width: 1058
Flags: MW
HStem: 1.33398 102.541<529.417 714.125 714.125 714.167 529.417 822.708>
LayerCount: 2
Fore
SplineSet
994.875 753.5 m 2
 1018.54199219 753.5 1033.33300781 734.208984375 1027.875 710.375 c 2
 875.416992188 44.458984375 l 2
 870 20.625 846.375 1.333984375 822.708007812 1.333984375 c 2
 63.125 1.333984375 l 2
 39.4580078125 1.333984375 24.6669921875 20.625 30.125 44.458984375 c 2
 182.583007812 710.375 l 2
 188 734.208984375 211.625 753.5 235.291992188 753.5 c 2
 994.875 753.5 l 2
645.916992188 364.083984375 m 1
 656.375 380.5 655.375 401.791992188 642.166992188 415.875 c 2
 409.083007812 663.875 l 2
 393.25 680.708984375 365.875 680.833984375 348 664 c 0
 330.125 647.25 328.5 620 344.333007812 603.166992188 c 2
 538.583007812 396.5 l 1
 538.583007812 391.916992188 l 1
 229.416992188 168 l 2
 210.666992188 154.375 207.208007812 127.291992188 221.625 107.458984375 c 0
 236.041992188 87.625 262.916992188 82.583984375 281.625 96.208984375 c 2
 624.5 342.458984375 l 2
 636.166992188 350.625 642.75 357.666992188 645.916992188 364.125 c 1
 645.916992188 364.083984375 l 1
529.416992188 180.791992188 m 2
 529.33203125 180.79296875 529.24609375 180.79296875 529.161132812 180.79296875 c 0
 507.891601562 180.79296875 490.614257812 163.577148438 490.5 142.333984375 c 0
 490.5 121.083984375 507.916992188 103.875 529.416992188 103.875 c 2
 714.125 103.875 l 2
 714.209960938 103.875 714.294921875 103.874023438 714.379882812 103.874023438 c 0
 735.650390625 103.874023438 752.927734375 121.08984375 753.041992188 142.333984375 c 0
 752.927734375 163.577148438 735.645507812 180.7890625 714.375976562 180.7890625 c 0
 714.290039062 180.7890625 714.209960938 180.79296875 714.125 180.791992188 c 2
 529.416992188 180.791992188 l 2
EndSplineSet
Validated: 33
EndChar

StartChar: jypyter
Encoding: 59699 59699 55
Width: 812
Flags: MW
HStem: 0 119.934<168.74 185.15> 100 95.0332 638.233 95.0332<416 416> 653.667 70.333<127.925 137.551> 704.833 95.167<631.867 644.916 644.883 644.916>
VStem: 102.65 69.7656<688 688> 125.684 118.9<43.4243 76.5093 43.4243 76.5151> 597.717 94.3672<752.4 752.434 752.434 765.56>
LayerCount: 2
Fore
SplineSet
244.583984375 59.966796875 m 0x83
 244.583984375 26.8818359375 217.955078125 0.0185546875 185.150390625 0 c 0
 152.330078125 0 125.68359375 26.8701171875 125.68359375 59.966796875 c 0
 125.68359375 93.0634765625 152.330078125 119.93359375 185.150390625 119.93359375 c 0
 217.955078125 119.915039062 244.583984375 93.0517578125 244.583984375 59.966796875 c 0x83
692.083984375 752.43359375 m 0
 692.083984375 726.180664062 670.94921875 704.833007812 644.916015625 704.833007812 c 2
 644.8828125 704.833007812 l 2
 618.8515625 704.833007812 597.716796875 726.147460938 597.716796875 752.400390625 c 2
 597.716796875 752.43359375 l 2
 597.716796875 778.686523438 618.8515625 800 644.8828125 800 c 2
 644.916015625 800 l 2x09
 670.94921875 800 692.083984375 778.686523438 692.083984375 752.43359375 c 0
172.416015625 688.799804688 m 0x15
 172.380859375 669.415039062 156.7734375 653.685546875 137.55078125 653.666992188 c 0
 118.298828125 653.666992188 102.66796875 669.421875 102.650390625 688.833007812 c 0
 102.66796875 708.245117188 118.298828125 724 137.55078125 724 c 0
 156.796875 723.981445312 172.416015625 708.215820312 172.416015625 688.799804688 c 0x15
416.94921875 638.233398438 m 0x21
 291.349609375 638.233398438 181.650390625 592.099609375 124.55078125 524.099609375 c 1
 145.892578125 585.728515625 185.638671875 638.374023438 237.68359375 675.666992188 c 0
 288.1171875 711.793945312 350.177734375 733.240234375 416.8828125 733.266601562 c 0
 483.6015625 733.248046875 545.673828125 711.799804688 596.1171875 675.666992188 c 0
 648.1484375 638.370117188 687.884765625 585.724609375 709.216796875 524.099609375 c 1
 652.283203125 592.233398438 542.583984375 638.233398438 416.94921875 638.233398438 c 0x21
416.984375 195.06640625 m 0
 542.619140625 195.06640625 652.283203125 241.06640625 709.349609375 309.200195312 c 1
 688.017578125 247.575195312 648.28125 194.930664062 596.25 157.633789062 c 0
 545.810546875 121.48828125 483.73828125 100.029296875 417.017578125 100 c 0x41
 350.318359375 100.053710938 288.267578125 121.522460938 237.849609375 157.666992188 c 0
 185.8046875 194.958984375 146.05859375 247.604492188 124.716796875 309.233398438 c 1
 181.650390625 241.099609375 291.3828125 195.06640625 416.984375 195.06640625 c 0
EndSplineSet
Validated: 1
EndChar

StartChar: bash
Encoding: 59700 59700 56
Width: 1000
Flags: MW
HStem: -30 18.877<492.562 502.373 492.562 508.943> 164.969 52.2754 252.096 41.5791 801.123 18.877<492.562 507.42>
VStem: 128.125 18.5938<235.696 554.269> 490.721 67.9629<138.866 138.866 138.866 345.027> 490.721 99.9795<313.471 313.471 313.471 345.027 313.471 364.117>
LayerCount: 2
Fore
SplineSet
820.095703125 646.458007812 m 2xf8
 852.147460938 627.439453125 871.875 592.306640625 871.875 554.268554688 c 2
 871.875 235.696289062 l 2
 871.875 197.658203125 852.112304688 162.525390625 820.095703125 143.505859375 c 2
 551.744140625 -15.7626953125 l 2
 535.735351562 -25.25390625 517.885742188 -30 500 -30 c 0
 482.114257812 -30 464.264648438 -25.25390625 448.255859375 -15.7626953125 c 2
 179.904296875 143.505859375 l 2
 147.852539062 162.525390625 128.125 197.693359375 128.125 235.696289062 c 2
 128.125 554.268554688 l 2
 128.125 592.306640625 147.852539062 627.439453125 179.869140625 646.458007812 c 2
 448.220703125 805.727539062 l 2
 464.264648438 815.25390625 482.114257812 820 500 820 c 0
 517.885742188 820 535.735351562 815.25390625 551.744140625 805.762695312 c 2
 820.095703125 646.458007812 l 2xf8
612.270507812 148.99609375 m 1
 632.31640625 165.110351562 645.383789062 191.462890625 645.133789062 215.864257812 c 0
 644.885742188 240.833007812 634.154296875 251.670898438 609.362304688 252.095703125 c 0
 590.733398438 252.415039062 585.352539062 255.602539062 585.244140625 266.12109375 c 0
 585.137695312 274.904296875 589.918945312 286.768554688 603.553710938 293.674804688 c 0
 616.551757812 300.262695312 624.83984375 298.456054688 628.310546875 297.676757812 c 0
 628.983398438 297.533203125 629.65625 297.639648438 630.329101562 297.994140625 c 0
 630.790039062 298.241210938 631.25 298.560546875 631.674804688 298.985351562 c 0
 632.702148438 299.977539062 633.58984375 301.53515625 633.977539062 303.09375 c 2
 639.077148438 323.564453125 l 2
 639.75 326.220703125 639.041992188 328.487304688 637.376953125 328.912109375 c 0
 629.762695312 330.68359375 621.333007812 329.65625 611.665039062 325.795898438 c 1
 611.452148438 348.922851562 l 2
 611.416992188 351.75390625 609.645507812 353.102539062 607.485351562 352.00390625 c 2
 594.380859375 343.645507812 l 2
 592.150390625 342.512695312 590.415039062 339.395507812 590.450195312 336.5625 c 2
 590.700195312 313.470703125 l 1xfa
 571.255859375 297.922851562 558.96484375 273.34375 559.21484375 249.720703125 c 0
 559.498046875 221.033203125 577.702148438 217.208007812 597.181640625 217.244140625 c 0
 612.481445312 217.137695312 618.783203125 212.28515625 618.891601562 200.668945312 c 0
 619.033203125 187.84765625 610.568359375 174.956054688 597.924804688 168.545898438 c 0
 587.97265625 163.516601562 577.630859375 162.241210938 569.520507812 164.96875 c 0
 568.84765625 165.251953125 568.104492188 165.143554688 567.325195312 164.755859375 c 0
 566.900390625 164.543945312 566.474609375 164.227539062 566.049804688 163.834960938 c 0
 564.880859375 162.80859375 563.994140625 161.178710938 563.606445312 159.549804688 c 2
 558.68359375 138.866210938 l 2xfc
 558.116210938 136.494140625 558.71875 134.404296875 560.135742188 133.837890625 c 0
 567.643554688 130.827148438 579.40234375 131.99609375 591.018554688 136.8125 c 1
 591.268554688 114.323242188 l 2
 591.303710938 111.55859375 593.075195312 110.21484375 595.235351562 111.3125 c 2
 608.799804688 119.104492188 l 2
 610.959960938 120.202148438 612.766601562 123.354492188 612.731445312 126.116210938 c 2
 612.270507812 148.99609375 l 1
752.981445312 187.494140625 m 2
 752.981445312 202.935546875 l 2
 752.981445312 205.060546875 751.564453125 205.946289062 749.793945312 204.918945312 c 2
 682.962890625 164.93359375 l 2
 681.19140625 163.90625 679.880859375 162.737304688 679.880859375 160.612304688 c 2
 679.880859375 143.116210938 l 2
 679.880859375 140.991210938 681.297851562 140.106445312 683.068359375 141.133789062 c 2
 750.926757812 182.358398438 l 2
 752.698242188 183.385742188 752.981445312 185.369140625 752.981445312 187.494140625 c 2
799.58984375 579.272460938 m 2
 823 592.943359375 843.045898438 587.772460938 851.970703125 568.790039062 c 1
 847.791992188 594.25390625 832.845703125 616.991210938 810.74609375 630.130859375 c 2
 542.393554688 789.435546875 l 2
 529.501953125 797.084960938 514.83984375 801.123046875 500 801.123046875 c 0
 485.125 801.123046875 470.462890625 797.084960938 457.606445312 789.435546875 c 2
 189.25390625 630.130859375 l 2
 163.010742188 614.547851562 146.71875 585.470703125 146.71875 554.268554688 c 2
 146.71875 235.696289062 l 2
 146.71875 204.494140625 163.010742188 175.416992188 189.25390625 159.833007812 c 2
 457.606445312 0.564453125 l 2
 470.498046875 -7.0849609375 485.125 -11.123046875 500 -11.123046875 c 0
 504.74609375 -11.123046875 509.456054688 -10.556640625 514.095703125 -9.7412109375 c 1
 499.928710938 -5.4560546875 490.720703125 9.34765625 490.720703125 32.19140625 c 2xfc
 490.720703125 345.02734375 l 2
 490.720703125 383.206054688 514.060546875 403.959960938 545.72265625 422.483398438 c 2
 799.58984375 579.272460938 l 2
EndSplineSet
Validated: 37
EndChar

StartChar: semver
Encoding: 59701 59701 57
Width: 1000
Flags: MW
HStem: -30.2002 71.2041<437.807 509.811>
VStem: 75.0039 69.9463<366.723 414.845> 293.631 111.634<540.89 582.221> 659.082 126.363<690.673 704.291>
LayerCount: 2
Fore
SplineSet
87.6123046875 500.408203125 m 0
 157.134765625 797.270507812 538.926757812 922.96484375 770.233398438 722.612304688 c 0
 779.471679688 715.946289062 785.4453125 705.095703125 785.4453125 692.84375 c 0
 785.4453125 688.501953125 784.689453125 684.333984375 783.301757812 680.466796875 c 2
 578.026367188 171.103515625 l 2
 559.50390625 121.733398438 541.795898438 106.149414062 505.139648438 106.149414062 c 0
 468.483398438 106.149414062 450.810546875 121.768554688 432.251953125 171.103515625 c 2
 293.630859375 540.889648438 l 1
 268.34375 593.58984375 335.741210938 637.045898438 377.88671875 617.211914062 c 0
 391.309570312 609.94140625 401.350585938 597.329101562 405.264648438 582.220703125 c 2
 489.555664062 321.200195312 l 1
 493.345703125 293.362304688 513.993164062 292.512695312 517.783203125 321.200195312 c 1
 658.103515625 697.325195312 l 2
 658.72265625 698.756835938 659.08203125 700.336914062 659.08203125 701.994140625 c 0
 659.08203125 706.587890625 656.451171875 710.571289062 652.614257812 712.518554688 c 0
 606.341796875 735.147460938 554.0859375 748 499.146484375 748 c 0
 466.166015625 748 434.24609375 743.421875 403.989257812 734.866210938 c 0
 336.5 716.249023438 277.065429688 678.295898438 232.21875 627.05859375 c 0
 177.80859375 564.862304688 144.950195312 482.963867188 144.950195312 393.91796875 c 0
 144.950195312 339.52734375 157.256835938 287.989257812 179.235351562 241.9375 c 0
 235.967773438 122.868164062 357.587890625 41.00390625 498.16796875 41.00390625 c 0
 574.799804688 41.00390625 645.759765625 65.48046875 703.649414062 107.03515625 c 0
 793.008789062 171.228515625 850.919921875 275.635742188 850.919921875 393.956054688 c 0
 850.919921875 420.078125 848.081054688 445.541992188 842.6953125 470.055664062 c 0
 836.072265625 496.051757812 827.608398438 521.586914062 817.443359375 546.37890625 c 1
 811.529296875 580.520507812 870.108398438 609.6328125 884.841796875 567.487304688 c 1
 1011.24316406 319.53515625 822.897460938 -2.615234375 547.78125 -27.5126953125 c 0
 532.565429688 -29.158203125 517.635742188 -30.2001953125 501.986328125 -30.2001953125 c 0
 373.626953125 -30.2001953125 258.42578125 26.5859375 180.15625 116.384765625 c 0
 114.709960938 191.494140625 75.00390625 289.67578125 75.00390625 397.0234375 c 0
 75.00390625 432.666992188 79.3759765625 467.297851562 87.6123046875 500.408203125 c 0
EndSplineSet
Validated: 33
EndChar

StartChar: jekyll
Encoding: 59702 59702 58
Width: 1000
Flags: HMW
HStem: 1.5332 16.333<522.512 522.712 522.512 522.512> 785.399 15.9336<694.578 711.078>
LayerCount: 2
Fore
SplineSet
369.111328125 1.3330078125 m 5
 357.51171875 1.3330078125 346.145507812 3.4326171875 335.111328125 7.6328125 c 4
 289.278320312 25.1328125 264.978515625 74.966796875 277.578125 121.033203125 c 5
 277.078125 121.233398438 l 5
 280.078125 128.766601562 l 5
 513.311523438 734.333007812 l 6
 516.811523438 743.333007812 515.211914062 764.666015625 513.51171875 776.56640625 c 4
 512.978515625 779.399414062 512.978515625 781.932617188 513.778320312 784.56640625 c 6
 514.044921875 785.333007812 l 5
 514.245117188 785.833007812 l 5
 514.245117188 786.06640625 l 5
 514.544921875 786.69921875 l 6
 518.145507812 796.432617188 529.544921875 801.333007812 548.145507812 801.333007812 c 4
 570.578125 801.333007812 601.544921875 794.333007812 633.178710938 782.233398438 c 4
 659.745117188 772 683.9453125 759.266601562 700.9453125 746.399414062 c 4
 721.01171875 731.399414062 729.01171875 717.932617188 724.51171875 706.399414062 c 6
 723.478515625 704.899414062 l 5
 722.9453125 704.399414062 l 6
 721.4453125 702.366210938 719.9453125 700.399414062 717.9453125 698.899414062 c 4
 707.478515625 689.866210938 692.478515625 674.399414062 689.9453125 667.399414062 c 6
 454.51171875 53.3662109375 l 5
 453.978515625 53.56640625 l 5
 437.51171875 21.966796875 405.412109375 1.666015625 369.211914062 1.533203125 c 6
 369.01171875 1.533203125 l 5
 369.111328125 1.3330078125 l 5
296.211914062 125.266601562 m 5
 295.544921875 123.599609375 l 6
 280.645507812 83.56640625 300.9453125 38.3662109375 341.01171875 23 c 4
 350.044921875 19.5 359.377929688 17.8662109375 368.912109375 17.8662109375 c 4
 401.278320312 17.8662109375 429.912109375 37.3662109375 441.844726562 67.8662109375 c 6
 442.745117188 69.8994140625 l 5
 674.711914062 672.899414062 l 6
 679.578125 685.899414062 702.711914062 706.899414062 707.344726562 710.899414062 c 6
 707.877929688 711.432617188 l 6
 708.278320312 711.932617188 708.544921875 711.932617188 708.544921875 712.432617188 c 4
 708.544921875 714.432617188 706.51171875 721.432617188 689.978515625 733.932617188 c 4
 674.01171875 745.932617188 651.51171875 757.932617188 626.51171875 767.432617188 c 4
 597.578125 778.366210938 567.578125 785.399414062 547.578125 785.399414062 c 4
 534.578125 785.399414062 530.111328125 782.666015625 529.412109375 781.19921875 c 6
 529.412109375 779.866210938 l 6
 529.9453125 776.399414062 534.311523438 745.366210938 528.278320312 729.366210938 c 6
 296.211914062 125.366210938 l 5
 296.211914062 125.266601562 l 5
594.544921875 508.833007812 m 5
 426.912109375 72.3662109375 l 6
 414.51171875 41.166015625 378.51171875 24.8662109375 346.51171875 37.166015625 c 4
 314.611328125 49.5 297.412109375 86.3662109375 309.01171875 117.833007812 c 6
 416.178710938 396.56640625 l 5
 416.178710938 396.56640625 429.478515625 417.966796875 455.778320312 433.333007812 c 4
 482.145507812 448.766601562 503.778320312 445.266601562 533.111328125 458.533203125 c 4
 562.412109375 471.866210938 594.544921875 508.833007812 594.544921875 508.833007812 c 5
430.178710938 176 m 4
 426.678710938 174.366210938 425.278320312 170.399414062 426.678710938 167.166015625 c 4
 428.044921875 163.69921875 432.078125 162.266601562 435.544921875 163.69921875 c 4
 439.044921875 165.099609375 440.4453125 169.033203125 439.044921875 172.5 c 4
 437.678710938 176 433.645507812 177.366210938 430.178710938 176 c 4
396.377929688 236.06640625 m 5
 396.377929688 236.366210938 l 5
 401.811523438 238.899414062 404.01171875 244.366210938 401.544921875 249.366210938 c 4
 399.4453125 254.466796875 393.412109375 256.799804688 388.278320312 254.466796875 c 4
 383.145507812 252.366210938 380.811523438 246.299804688 383.145507812 241.233398438 c 4
 385.245117188 236.06640625 391.311523438 233.799804688 396.377929688 236.06640625 c 5
405.912109375 272.599609375 m 5
 405.478515625 272.6328125 l 5
 410.01171875 263.1328125 420.978515625 258.932617188 430.978515625 263.1328125 c 4
 440.478515625 267.56640625 444.51171875 278.733398438 440.478515625 288.366210938 c 4
 435.978515625 297.866210938 424.978515625 302 415.478515625 297.866210938 c 4
 405.912109375 293.366210938 401.811523438 282.19921875 405.912109375 272.599609375 c 5
486.778320312 347.866210938 m 5
 486.778320312 347.966796875 l 5
 481.645507812 345.866210938 479.178710938 339.799804688 481.645507812 334.733398438 c 4
 483.711914062 329.56640625 489.778320312 327.233398438 494.9453125 329.56640625 c 4
 500.044921875 331.666015625 502.377929688 337.733398438 500.044921875 342.866210938 c 4
 497.9453125 347.866210938 491.877929688 350.333007812 486.778320312 347.866210938 c 5
443.678710938 393.833007812 m 4
 440.4453125 392.5 438.778320312 388.466796875 440.245117188 384.932617188 c 4
 441.544921875 381.466796875 445.611328125 380.06640625 449.078125 381.466796875 c 4
 452.544921875 382.799804688 453.978515625 386.866210938 452.544921875 390.333007812 c 4
 451.211914062 393.833007812 447.178710938 395.233398438 443.678710938 393.833007812 c 4
556.044921875 763.333007812 m 5
 559.377929688 772.033203125 589.145507812 768.733398438 622.544921875 755.799804688 c 4
 655.844726562 743 680.178710938 725.5 676.877929688 716.799804688 c 4
 673.412109375 708 643.645507812 711.333007812 610.344726562 724.166015625 c 4
 576.844726562 737 552.544921875 754.5 555.9453125 763.366210938 c 5
 556.044921875 763.366210938 l 5
 556.044921875 763.333007812 l 5
EndSplineSet
Validated: 33
EndChar

